<svg id="illustration" xmlns="http://www.w3.org/2000/svg" width="202" height="188" viewBox="0 0 202 188"><defs><style>.cls-2,.cls-6{fill-rule:evenodd}.cls-2{fill:#b8b8b8;opacity:.3}.cls-6{fill:#48708e}</style><linearGradient id="linear-gradient" x1=".188" y1="117.469" x2="30.188" y2="117.469" gradientUnits="userSpaceOnUse"><stop offset="0" stop-color="#d4d3d4"/><stop offset="1" stop-color="#e6e6e6"/></linearGradient><linearGradient id="linear-gradient-2" x1="139.286" y1="180.344" x2="46.152" y2="19.031" gradientUnits="userSpaceOnUse"><stop offset="0" stop-color="#d4d3d4"/><stop offset="1" stop-color="#ddd"/></linearGradient><linearGradient id="linear-gradient-3" x1="110.916" y1="128.125" x2="46.365" y2="1.438" gradientUnits="userSpaceOnUse"><stop offset="0" stop-color="#d5d4d5"/><stop offset=".469" stop-color="#ededed"/><stop offset=".658" stop-color="#f2f2f2"/><stop offset="1" stop-color="#606060"/></linearGradient><linearGradient id="linear-gradient-4" x1="132.219" y1="163.812" x2="147.219" y2="163.812" gradientUnits="userSpaceOnUse"><stop offset="0" stop-color="#ededed"/><stop offset="1" stop-color="#ccc"/></linearGradient><linearGradient id="linear-gradient-5" x1="115.719" y1="169.812" x2="115.719" y2="157.781" gradientUnits="userSpaceOnUse"><stop offset="0" stop-color="#385e7a"/><stop offset="1" stop-color="#48708e"/></linearGradient><linearGradient id="linear-gradient-6" x1="142.719" y1="167.531" x2="201.25" y2="167.531" gradientUnits="userSpaceOnUse"><stop offset="0" stop-color="#ee5978"/><stop offset="1" stop-color="#d84b68"/></linearGradient><linearGradient id="linear-gradient-7" x1="142.75" y1="158.531" x2="201.25" y2="158.531" gradientUnits="userSpaceOnUse"><stop offset="0" stop-color="#f57791"/><stop offset="1" stop-color="#ee5978"/></linearGradient><linearGradient id="linear-gradient-8" x1="148.719" y1="158.562" x2="196.719" y2="158.562" gradientUnits="userSpaceOnUse"><stop offset="0" stop-color="#ee5978"/><stop offset="1" stop-color="#d85671"/></linearGradient><linearGradient id="linear-gradient-9" x1="150.281" y1="163.062" x2="195.156" y2="163.062" gradientUnits="userSpaceOnUse"><stop offset="0" stop-color="#d0d6dc"/><stop offset="1" stop-color="#eaf0f4"/></linearGradient><linearGradient id="linear-gradient-10" x1="169.54" y1="145.812" x2="175.898" y2="171.312" gradientUnits="userSpaceOnUse"><stop offset="0" stop-color="#fff"/><stop offset="1" stop-color="#fff" stop-opacity="0"/></linearGradient></defs><g id="briefcase"><path id="Rounded_Rectangle_2344" data-name="Rounded Rectangle 2344" d="M30.193 178.983L3.814 165.9l-.014-.2c-2.2-1.047-3.615-4.61-3.615-12.395l.07-69.245c0-5.936 4.166-13.156 9.294-16.129L30.193 55.97v123.013z" fill="url(#linear-gradient)" fill-rule="evenodd"/><path id="Rounded_Rectangle_2344-2" data-name="Rounded Rectangle 2344" class="cls-2" d="M127.641 5.954l24.13 11.966c.267.343.535.682.782 1.043l-1.769 24.562-23.621-9.647-.033 47.143-88.647 50.353c-5.133 2.916-9.292.558-9.288-5.269l.017-24.613a14.31 14.31 0 0 1 .306-2.723c-.14.057-.26.133-.4.186-.245-5.815-4.44-12.68-9.618-15.555l-8.428-4.779c-4.959-2.311-8.5 1.414-10.036 5.9-.016-4.75 1.635-9.572 4.593-11.3l112.5-64.787c2.014-1.467 5.61-2.434 9.512-2.48z"/><path id="Rounded_Rectangle_2344-3" data-name="Rounded Rectangle 2344" d="M38.581 82.327l108.35-62.769c5.129-2.971 9.3 7.232 9.3 13.171l-.07 67.443c0 5.937-4.165 13.158-9.295 16.129L38.513 179.07c-5.129 2.973-9.284.569-9.279-5.369l.052-75.245c.004-5.936 4.166-13.156 9.295-16.129z" fill="url(#linear-gradient-2)" fill-rule="evenodd"/><path id="Rounded_Rectangle_2346" data-name="Rounded Rectangle 2346" class="cls-2" d="M38.516 85.363l108.446-61.6c5.134-2.914 9.292-.556 9.288 5.269l-.017 24.615c0 5.827-4.17 12.913-9.3 15.827l-108.446 61.6c-5.133 2.915-9.292.557-9.288-5.269l.017-24.615c.001-5.825 4.166-12.91 9.3-15.827z"/><path id="Rounded_Rectangle_2346-2" data-name="Rounded Rectangle 2346" d="M156.249 24.834l-.017 24.613c0 5.825-4.17 12.911-9.3 15.828l-108.446 61.6c-5.133 2.918-9.292.558-9.288-5.268l.017-24.614a14.318 14.318 0 0 1 .306-2.721c-.14.057-.26.132-.4.185-.248-5.817-4.443-12.682-9.621-15.557l-8.428-4.782c-4.959-2.309-8.5 1.415-10.036 5.9-.016-4.752 1.635-9.572 4.593-11.3l112.5-64.786c3.089-2.246 9.881-3.332 15.814-1.704a9.772 9.772 0 0 1 2.168.748 15.708 15.708 0 0 1 1.972.958l.1.153 8.324 4.625c4.493 2.5 8.239 8 9.319 13.214a9.375 9.375 0 0 1 .423 2.908z" fill="url(#linear-gradient-3)" fill-rule="evenodd"/><path id="Rounded_Rectangle_2346-3" data-name="Rounded Rectangle 2346" class="cls-2" d="M92.366 95.8l3.171-1.841c2.627-1.525 4.755-.29 4.753 2.755l-.007 3.533a10.6 10.6 0 0 1-4.761 8.28l-3.171 1.84c-2.627 1.524-4.755.291-4.753-2.754l.007-3.537a10.584 10.584 0 0 1 4.761-8.276z"/><path id="Rounded_Rectangle_2346-4" data-name="Rounded Rectangle 2346" d="M93.866 83.8l3.171-1.84c2.627-1.525 4.755-.29 4.753 2.755l-.008 11.032a10.577 10.577 0 0 1-4.76 8.275l-3.171 1.845c-2.627 1.521-4.755.289-4.753-2.759l.008-11.028a10.589 10.589 0 0 1 4.76-8.28z" fill="#f0f0f0" fill-rule="evenodd"/><path id="Rounded_Rectangle_2346-5" data-name="Rounded Rectangle 2346" class="cls-6" d="M95.68 85.6l3.171-1.842c2.627-1.524 4.755-.29 4.753 2.757l-.004 11.036a10.589 10.589 0 0 1-4.76 8.278l-3.171 1.84c-2.627 1.526-4.755.29-4.753-2.755l.004-11.034a10.587 10.587 0 0 1 4.76-8.28z"/><path d="M64.647 46.674c3.037 1.739 3.041 4.56.008 6.3a12.229 12.229 0 0 1-10.992 0c-3.037-1.739-3.041-4.56-.008-6.3a12.229 12.229 0 0 1 10.992 0z" fill="#b8b8b8" fill-rule="evenodd"/><path d="M102.75 25.079c3.038 1.741 3.041 4.56.008 6.3a12.234 12.234 0 0 1-10.992 0c-3.037-1.741-3.041-4.56-.008-6.3a12.225 12.225 0 0 1 10.992 0z" fill="#b9b9b9" fill-rule="evenodd"/><path class="cls-6" d="M54.619 48.908s1.125-7.784 3.164-12.173 7.44-13.044 19.56-19.135 15.318-5.088 18.985-3.331 5.44 11.868 5.465 12.523-6.03 4.4-8.054 1.013c0 0-.9-5.551-2.733-4.988a58.882 58.882 0 0 0-12.226 6.086c-5.617 3.555-12.65 7.392-15.389 18.84.001.005-3.573 5.839-8.772 1.165z"/><path d="M96.351 23.73c1.439 1.973.6 3.873 1.462 5.294-1.566.377-3.2.249-4.073-1.215 0 0-.9-5.551-2.733-4.988a58.882 58.882 0 0 0-12.226 6.086c-5.617 3.555-12.65 7.392-15.389 18.84 0 0-1.719 2.8-4.5 2.961a42.39 42.39 0 0 1 2.522-8.574c2.039-4.39 7.44-13.047 19.561-19.13s12.989-2.55 15.376.726z" fill="#284c66" opacity=".5" fill-rule="evenodd"/></g><g id="magnifying_glass" data-name="magnifying glass"><rect x="132.219" y="160.812" width="15" height="6" rx="2" ry="2" fill="url(#linear-gradient-4)"/><rect x="93.219" y="160.812" width="45" height="12" rx="4" ry="4" opacity=".1" fill="#1f3d53"/><rect x="93.219" y="157.781" width="45" height="12.031" rx="4" ry="4" fill="url(#linear-gradient-5)"/><path d="M201.25 170.285q.006.24 0 .48v.548h-.045c-.323 4.155-3.142 8.257-8.521 11.43-11.436 6.745-29.966 6.744-41.386 0-5.371-3.174-8.179-7.274-8.494-11.428h-.085v-12.034h7.121c.48-.329.958-.658 1.487-.97 11.436-6.745 29.965-6.745 41.386 0 .526.311 1 .639 1.48.967h7.057v11z" opacity=".2" fill="#1f3d53" fill-rule="evenodd"/><path d="M201.25 167.286v1.026h-.045c-.323 4.157-3.141 8.259-8.521 11.432-11.436 6.744-29.966 6.743-41.386 0-5.371-3.173-8.18-7.274-8.494-11.429h-.085v-12.034h7.121c.48-.329.958-.658 1.487-.97 11.436-6.745 29.965-6.743 41.386 0 .526.311 1 .639 1.48.967h7.057v11z" fill="url(#linear-gradient-6)" fill-rule="evenodd"/><path d="M151.327 146.312c-11.436 6.746-11.449 17.684-.029 24.43s29.95 6.749 41.386 0 11.449-17.682.029-24.429-29.95-6.744-41.386-.001z" fill="url(#linear-gradient-7)" fill-rule="evenodd"/><path d="M155.775 149.535c-9.378 4.98-9.388 13.052-.023 18.033s24.559 4.981 33.937 0 9.388-13.052.023-18.031-24.558-4.981-33.937-.002z" fill="url(#linear-gradient-8)" fill-rule="evenodd"/><path d="M189.689 167.569c-9.378 4.98-24.573 4.978-33.937 0a15.443 15.443 0 0 1-5.457-4.508 15.469 15.469 0 0 1 5.48-4.527c9.379-4.979 24.573-4.978 33.937 0a15.415 15.415 0 0 1 5.457 4.51 15.463 15.463 0 0 1-5.48 4.525z" fill="url(#linear-gradient-9)" fill-rule="evenodd"/><path d="M155.775 149.535c-9.378 4.98-9.388 13.052-.023 18.033s24.559 4.981 33.937 0 9.388-13.052.023-18.031-24.558-4.981-33.937-.002z" opacity=".8" fill="url(#linear-gradient-10)" fill-rule="evenodd"/><path d="M189.712 155.536c-9.364-4.979-24.558-4.98-33.937 0-.158.084-.293.176-.446.262a14.658 14.658 0 0 1 3.626-3.269c7.619-4.969 19.965-4.969 27.574 0a14.613 14.613 0 0 1 3.608 3.256c-.146-.085-.274-.169-.425-.249z" fill="#fff" fill-rule="evenodd"/></g></svg>