<svg xmlns="http://www.w3.org/2000/svg" width="166" height="214" viewBox="0 0 166 214"><defs><style>.cls-11,.cls-7{fill-rule:evenodd}.cls-7{fill:#c0c6cb}.cls-11{fill:#48708e}</style><linearGradient id="linear-gradient" x1="149.672" y1="86.875" x2="149.672" y2="48.844" gradientUnits="userSpaceOnUse"><stop offset="0" stop-color="#dbe3e8"/><stop offset="1" stop-color="#bcc3c9"/></linearGradient><linearGradient id="linear-gradient-2" x1="97.047" y1="210.812" x2="97.047" y2=".844" gradientUnits="userSpaceOnUse"><stop offset="0" stop-color="#d5d4d5"/><stop offset="1" stop-color="#ededed"/></linearGradient><linearGradient id="linear-gradient-3" x1="34.061" y1="212.281" x2="115.127" y2="141.812" gradientUnits="userSpaceOnUse"><stop offset="0" stop-color="#dadbdb"/><stop offset="1" stop-color="#f5f5f5"/></linearGradient><linearGradient id="linear-gradient-4" x1="118.509" y1="2.188" x2="91.522" y2="60.063" gradientUnits="userSpaceOnUse"><stop offset="0" stop-color="#fff" stop-opacity="0"/><stop offset="1" stop-color="#fff"/></linearGradient></defs><g id="page" fill-rule="evenodd"><path id="Rounded_Rectangle_987" data-name="Rounded Rectangle 987" d="M136.978 72.233c.344-8.1 5.887-17.643 12.691-21.647 7.021-4.13 12.708-.787 12.7 7.465l-.02 28.826z" fill="url(#linear-gradient)"/><path d="M159.257 49.243c-2.2-.839-5.015-.465-8.088 1.343-7.021 4.133-12.718 14.172-12.724 22.425l-.057 114.045-.119-.069c-.159 8.175-5.784 17.979-12.709 22.047-3.123 1.835-5.977 2.186-8.189 1.294v.45L34.836 162.8c2.2.838 3.627.112 6.7-1.694 7.021-4.126 12.718-14.149 12.724-22.389l.058-113.865.109.064c.054-8.234 5.728-18.205 12.719-22.316C70.269.761 73.123.409 75.334 1.3V.852z" fill="url(#linear-gradient-2)"/><path d="M125.56 209.035c-3.123 1.835-5.977 2.186-8.189 1.294v.45L34.836 162.8c2.2.838 3.627.112 6.7-1.694a22.13 22.13 0 0 0 5.044-4.189l83.677 48.289a21.8 21.8 0 0 1-4.697 3.829z" opacity=".3" fill="#bcc3c9"/><path d="M125.56 209.035c-3.123 1.835-5.977 2.186-8.189 1.294v.45L34.836 162.8c2.2.838 3.627.112 6.7-1.694 5.115-3.005 9.515-9.142 11.536-15.438l83.866 48.4c-2.085 6.132-6.391 12.037-11.378 14.967z" opacity=".1" fill="#bcc3c9"/><path d="M112.857 203.146a10.8 10.8 0 0 0 1.987 6.829c-14.248-8.208-62.709-36.13-78.334-45.147a12.92 12.92 0 0 1-6.14-11.028c-.006-10.137-.017-11.979-.017-11.979l82.523 47.566zm5.984 9.131z" fill="url(#linear-gradient-3)"/><path d="M142.288 60.069l-83.8-48.358A25.977 25.977 0 0 1 67.146 2.6c.283-.166.55-.255.829-.4l83.553 48.216c-.122.068-.237.1-.359.174a26.2 26.2 0 0 0-8.881 9.479z" opacity=".5" fill="url(#linear-gradient-4)"/></g><path id="Rounded_Rectangle_1018" data-name="Rounded Rectangle 1018" class="cls-7" d="M98.279 160.739L67.415 142.2c-1.42-.854-2.571-.163-2.57 1.543a5.972 5.972 0 0 0 2.574 4.633l30.864 18.54c1.421.855 2.571.165 2.57-1.54a5.967 5.967 0 0 0-2.574-4.637z"/><path id="Rounded_Rectangle_1013" data-name="Rounded Rectangle 1013" d="M89.844 53.526l-20.872-11.86c-1.441-.819-2.608-.156-2.607 1.48l.017 23.69a5.659 5.659 0 0 0 2.611 4.444l20.872 11.856c1.441.819 2.608.157 2.607-1.478l-.017-23.692a5.653 5.653 0 0 0-2.611-4.44z" fill="#ee5978" fill-rule="evenodd"/><path id="Rounded_Rectangle_1013-2" data-name="Rounded Rectangle 1013" class="cls-7" d="M123.764 78.716l-20.871-11.858c-1.441-.82-2.608-.156-2.607 1.478a5.659 5.659 0 0 0 2.614 4.444l20.872 11.858c1.44.817 2.608.156 2.606-1.48a5.654 5.654 0 0 0-2.614-4.442zm.009 11.844L102.9 78.7c-1.441-.819-2.608-.157-2.607 1.48a5.652 5.652 0 0 0 2.611 4.441l20.872 11.858c1.441.82 2.608.157 2.607-1.479a5.661 5.661 0 0 0-2.61-4.44z"/><path id="Rounded_Rectangle_1013-3" data-name="Rounded Rectangle 1013" d="M89.844 92.516L68.972 80.66c-1.441-.82-2.608-.157-2.607 1.479l.017 23.69a5.666 5.666 0 0 0 2.611 4.445l20.872 11.856c1.441.818 2.608.156 2.607-1.479l-.017-23.693a5.664 5.664 0 0 0-2.611-4.442z" fill="#ff6b00" fill-rule="evenodd"/><path id="Rounded_Rectangle_1013-4" data-name="Rounded Rectangle 1013" class="cls-7" d="M123.764 117.708l-20.871-11.858c-1.441-.819-2.608-.156-2.607 1.478a5.665 5.665 0 0 0 2.611 4.445l20.872 11.856c1.44.82 2.608.158 2.606-1.479a5.656 5.656 0 0 0-2.611-4.442zm.009 11.844L102.9 117.7c-1.441-.818-2.608-.157-2.607 1.479a5.653 5.653 0 0 0 2.611 4.442l20.872 11.86c1.441.818 2.608.156 2.607-1.48a5.66 5.66 0 0 0-2.61-4.449z"/><g id="pen"><path d="M64.529 120.865l13.46 17.044-21.335-.665z" fill="#d9dfe4" fill-rule="evenodd"/><path class="cls-11" d="M77.989 137.909l-9.827-.306 4.049-7.01z"/><path d="M62.948 134.4a22.62 22.62 0 0 1-6.662 2.914l-51.9-30v-10.5h7.959v-5.873l51.842 30.12s1.847 3.82 1.772 6.565-.559 4.923-3.011 6.774z" fill="#385e7a" fill-rule="evenodd"/><path class="cls-11" d="M10.813 96.033v-6.092l52.645 29.687 2.532 8.337z"/><path class="cls-11" d="M.671 103.594c.745 4.264 4.339 5.511 8.026 2.786s6.074-8.39 5.329-12.655S9.687 88.215 6 90.94-.074 99.331.671 103.594z"/></g></svg>