<svg id="illustration" xmlns="http://www.w3.org/2000/svg" xmlns:xlink="http://www.w3.org/1999/xlink" width="210" height="200" viewBox="0 0 210 200"><defs><style>.cls-1,.cls-3{fill:#dcdcdc}.cls-1,.cls-14,.cls-2,.cls-3,.cls-7{fill-rule:evenodd}.cls-2{fill:#f5f5f5}.cls-3{opacity:.3}.cls-17,.cls-7{fill:#fff}.cls-7{opacity:.4}.cls-14{fill:#d0d0d0}.cls-17{opacity:.5}</style><linearGradient id="linear-gradient" x1="73.906" y1="130.156" x2="194.031" y2="130.156" gradientUnits="userSpaceOnUse"><stop offset="0" stop-color="#ccc"/><stop offset="1" stop-color="#ededed"/></linearGradient><linearGradient id="linear-gradient-2" x1="25.875" y1="124.937" x2="73.938" y2="76.875" gradientUnits="userSpaceOnUse"><stop offset="0" stop-color="#e4e4e4"/><stop offset="1" stop-color="#fff"/></linearGradient><linearGradient id="linear-gradient-3" x1="33.406" y1="109.922" x2="45.438" y2="109.922" gradientUnits="userSpaceOnUse"><stop offset="0" stop-color="#ff8532"/><stop offset="1" stop-color="#db4a17"/></linearGradient><linearGradient id="linear-gradient-4" x1="54.406" y1="121.906" x2="66.438" y2="121.906" xlink:href="#linear-gradient-3"/><linearGradient id="linear-gradient-5" x1="33.406" y1="85.922" x2="45.438" y2="85.922" xlink:href="#linear-gradient-3"/><linearGradient id="linear-gradient-6" x1="54.406" y1="97.922" x2="66.438" y2="97.922" xlink:href="#linear-gradient-3"/><linearGradient id="linear-gradient-7" x1="73.906" y1="91.906" x2="150.469" y2="91.906" gradientUnits="userSpaceOnUse"><stop offset="0" stop-color="#ededed"/><stop offset="1" stop-color="#ccc"/></linearGradient><linearGradient id="linear-gradient-8" x1="103.906" y1="107.672" x2="120.438" y2="107.672" gradientUnits="userSpaceOnUse"><stop offset="0" stop-color="#48708e"/><stop offset="1" stop-color="#274a63"/></linearGradient><linearGradient id="linear-gradient-9" x1="91.938" y1="148.922" x2="118.938" y2="148.922" gradientUnits="userSpaceOnUse"><stop offset="0" stop-color="#fff"/><stop offset="1" stop-color="#e4e4e4"/></linearGradient><linearGradient id="linear-gradient-10" x1="97.906" y1="126.406" x2="112.938" y2="126.406" xlink:href="#linear-gradient-7"/><linearGradient id="linear-gradient-11" x1="153.438" y1="115.938" x2="180.469" y2="115.938" xlink:href="#linear-gradient-9"/><linearGradient id="linear-gradient-12" x1="159.438" y1="93.422" x2="174.438" y2="93.422" xlink:href="#linear-gradient-7"/><linearGradient id="linear-gradient-13" x1="183.469" y1="51.953" x2="24.375" y2="51.953" gradientUnits="userSpaceOnUse"><stop offset="0" stop-color="#1f3d53"/><stop offset="1" stop-color="#2e5572"/></linearGradient><linearGradient id="linear-gradient-14" y1="46.547" y2="46.547" xlink:href="#linear-gradient-13"/><linearGradient id="linear-gradient-15" x1="183.469" y1="23.484" x2="63.469" y2="23.484" gradientUnits="userSpaceOnUse"><stop offset="0" stop-color="#2e5572"/><stop offset="1" stop-color="#1f3d53"/></linearGradient></defs><path id="Rounded_Rectangle_2374" data-name="Rounded Rectangle 2374" class="cls-1" d="M114.59 81.456L207 134.387c5.1 2.922 4.467 8.031-1.421 11.41l-89.408 51.3c-5.888 3.379-14.8 3.748-19.9.825l-92.4-52.931c-5.1-2.923-4.467-8.03 1.421-11.408l89.408-51.3c5.876-3.383 14.787-3.75 19.89-.827z"/><path id="Rounded_Rectangle_2374-2" data-name="Rounded Rectangle 2374" class="cls-2" d="M114.59 74.4L207 127.329c5.1 2.925 4.467 8.031-1.421 11.41l-89.408 51.3c-5.888 3.378-14.8 3.747-19.9.826l-92.4-52.932c-5.1-2.922-4.467-8.03 1.421-11.411l89.408-51.3c5.876-3.379 14.787-3.748 19.89-.822z"/><path class="cls-3" d="M121.77 186.821h-13.062l93.5-53.931h8.2c-.223 1.716-1.447 3.454-3.534 4.966l-10.58 6.213z"/><path id="Rounded_Rectangle_2374-3" data-name="Rounded Rectangle 2374" class="cls-1" d="M113.809 79.212l84.525 48.572c4.669 2.682 4.087 7.369-1.3 10.471l-81.785 47.07c-5.386 3.1-13.536 3.439-18.2.758L12.52 137.511c-4.668-2.683-4.086-7.371 1.3-10.47L95.6 79.968c5.39-3.1 13.541-3.438 18.209-.756z"/><path id="Rounded_Rectangle_2374-4" data-name="Rounded Rectangle 2374" class="cls-2" d="M113.809 72.736l84.525 48.571c4.669 2.684 4.087 7.372-1.3 10.471l-81.784 47.073c-5.386 3.1-13.536 3.438-18.2.755l-84.53-48.571c-4.668-2.684-4.086-7.37 1.3-10.472L95.6 73.491c5.39-3.1 13.541-3.438 18.209-.755z"/><path class="cls-3" d="M120.377 175.9h-11.949l85.523-49.492h7.5a7.141 7.141 0 0 1-3.232 4.558l-9.678 5.7z"/><path id="Rounded_Rectangle_2374-5" data-name="Rounded Rectangle 2374" class="cls-1" d="M113.158 75.413l77.963 44.987c4.306 2.485 3.77 6.828-1.2 9.7l-75.435 43.6c-4.968 2.871-12.486 3.185-16.792.7l-77.961-44.986c-4.306-2.483-3.769-6.826 1.2-9.7l75.435-43.6c4.966-2.871 12.484-3.186 16.79-.701z"/><path id="Rounded_Rectangle_2374-6" data-name="Rounded Rectangle 2374" class="cls-2" d="M113.158 69.416l77.963 44.99c4.306 2.485 3.77 6.826-1.2 9.7l-75.435 43.6c-4.968 2.871-12.486 3.185-16.792.7l-77.961-44.99c-4.306-2.484-3.769-6.827 1.2-9.7l75.435-43.6c4.966-2.873 12.484-3.186 16.79-.7z"/><path d="M128.857 159.4h-24.93l13.5-13.5H73.919l76.52-44.99h17.3l23.378 13.491c4.306 2.485 3.77 6.826-1.2 9.7z" fill="url(#linear-gradient)" fill-rule="evenodd"/><path d="M73.9 82.935L25.886 55.91l.043 62.983 48.01 27.026z" fill="url(#linear-gradient-2)" fill-rule="evenodd"/><path d="M45.416 106.422l-12.023-7L33.4 113.4l12.023 7z" fill="url(#linear-gradient-3)" fill-rule="evenodd"/><path class="cls-7" d="M36.4 111.905l9.02 5.251v3.247l-12.023-7-.01-13.981 3 1.748z"/><path d="M66.422 118.419l-12.023-7 .01 13.981 12.023 7z" fill="url(#linear-gradient-4)" fill-rule="evenodd"/><path class="cls-7" d="M57.409 123.9l9.02 5.251v3.249l-12.023-7-.006-13.98 3 1.748z"/><path d="M45.416 82.427l-12.023-7 .007 13.984 12.023 7z" fill="url(#linear-gradient-5)" fill-rule="evenodd"/><path class="cls-7" d="M36.4 87.91l9.02 5.251v3.247l-12.023-7-.01-13.984 3 1.749z"/><path d="M66.422 94.424l-12.023-7 .01 13.983 12.023 7z" fill="url(#linear-gradient-6)" fill-rule="evenodd"/><path class="cls-7" d="M57.409 99.907l9.02 5.251v3.247l-12.023-7-.006-13.981 3 1.748z"/><path d="M73.942 82.935l76.518-45.022-.044 62.987L73.9 145.919z" fill="url(#linear-gradient-7)" fill-rule="evenodd"/><path d="M103.95 96.433l16.5-10.53-.043 32.99-16.5 10.53z" fill="url(#linear-gradient-8)" fill-rule="evenodd"/><path d="M117.407 117.393l.039-29.573 3-1.918-.043 32.99-16.5 10.53v-3.418z" opacity=".2" fill="#fff" fill-rule="evenodd"/><path class="cls-14" d="M118.938 151.823c.035 1.947-1.28 3.9-3.959 5.387-5.283 2.928-13.841 2.926-19.117 0-2.636-1.464-3.953-3.383-3.952-5.3v-3h1.143a9.248 9.248 0 0 1 2.826-2.306c5.282-2.93 13.841-2.928 19.116 0a9.233 9.233 0 0 1 2.819 2.3h1.127v2.917z"/><path d="M114.979 154.209c5.282-2.928 5.288-7.677.013-10.608s-13.834-2.929-19.116 0-5.288 7.678-.013 10.607 13.837 2.93 19.116.001z" fill="url(#linear-gradient-9)" fill-rule="evenodd"/><path d="M112.787 148.906c-.7 1.712-3.729 3-7.365 3s-6.668-1.288-7.365-3h-.151v-48h15.031v48h-.15z" fill="url(#linear-gradient-10)" fill-rule="evenodd"/><rect id="Rounded_Rectangle_2378" data-name="Rounded Rectangle 2378" class="cls-17" x="100.906" y="100.906" width="3" height="48" rx="1" ry="1"/><rect id="Rounded_Rectangle_2378-2" data-name="Rounded Rectangle 2378" class="cls-17" x="106.938" y="100.906" width="3" height="48" rx="1" ry="1"/><path class="cls-14" d="M180.437 118.633c.131 2.011-1.173 4.047-3.942 5.583-5.282 2.928-13.841 2.928-19.116 0-2.859-1.588-4.153-3.709-3.91-5.787v-2.52h1.1a9.246 9.246 0 0 1 2.821-2.3c5.283-2.928 13.842-2.928 19.117 0a9.235 9.235 0 0 1 2.814 2.3h1.114v2.727z"/><path d="M176.5 121.216c5.283-2.929 5.289-7.678.014-10.609s-13.834-2.93-19.117 0-5.288 7.678-.013 10.608 13.829 2.93 19.116.001z" fill="url(#linear-gradient-11)" fill-rule="evenodd"/><path d="M174.287 115.906c-.695 1.712-3.721 3-7.349 3s-6.655-1.288-7.35-3h-.15V67.938h15v47.969h-.15z" fill="url(#linear-gradient-12)" fill-rule="evenodd"/><rect id="Rounded_Rectangle_2378-3" data-name="Rounded Rectangle 2378" class="cls-17" x="162.438" y="67.938" width="3" height="47.969" rx="1" ry="1"/><rect id="Rounded_Rectangle_2378-4" data-name="Rounded Rectangle 2378" class="cls-17" x="168.438" y="67.938" width="3" height="47.969" rx="1" ry="1"/><path id="Rounded_Rectangle_2374-7" data-name="Rounded Rectangle 2374" class="cls-1" d="M112.761 12.161l73.96 42.345c4.085 2.338 3.576 6.425-1.137 9.127l-71.562 41.04c-4.712 2.7-11.844 3-15.929.658l-73.96-42.345c-4.085-2.338-3.576-6.424 1.137-9.127l71.562-41.038c4.713-2.703 11.844-2.997 15.929-.66z"/><path id="Rounded_Rectangle_2374-8" data-name="Rounded Rectangle 2374" class="cls-2" d="M112.761 6.516l73.96 42.344c4.085 2.338 3.576 6.425-1.137 9.129l-71.562 41.038c-4.712 2.7-11.844 3-15.929.658l-73.96-42.344c-4.085-2.34-3.576-6.427 1.137-9.129L96.832 7.176c4.713-2.704 11.844-3 15.929-.66z"/><g id="roof" fill-rule="evenodd"><path d="M183.465 51.965l-79.594 46.1-79.483-46.111.028-.016h-.01v-5.407h6.75v1.5l72.826-42.179 72.705 42.18v-1.5h6.751v5.406h-.019z" fill="url(#linear-gradient-13)"/><path d="M103.982.43l-79.594 46.1 79.483 46.111 79.594-46.1z" fill="url(#linear-gradient-14)"/><path d="M144.361 49.247v.017l39.085-.017-78.173 46.1zm-39.086 46.1l78.173-46.1v4.068l-78.173 46.1v-4.067z" fill="#f0f0f0"/><path d="M142.958 46.539l-42.032-24.383H66.188V2L63.475.43h40.507l79.483 46.11h-40.507z" fill="url(#linear-gradient-15)"/><path d="M63.492.435L24.388 46.53l79.483 46.111 39.16-46.1z" fill="#48708e"/></g></svg>