<svg xmlns="http://www.w3.org/2000/svg" xmlns:xlink="http://www.w3.org/1999/xlink" width="160.53" height="163.47" viewBox="0 0 160.53 163.47"><defs><linearGradient id="a" x1="1677.69" y1="2838.3" x2="1722.91" y2="2793.08" gradientUnits="userSpaceOnUse"><stop offset="0" stop-color="#ccc"/><stop offset="1" stop-color="#ededed"/></linearGradient><linearGradient id="b" x1="1682" y1="2840.77" x2="1727.22" y2="2795.55" gradientUnits="userSpaceOnUse"><stop offset="0" stop-color="#e4e4e4"/><stop offset="1" stop-color="#fff"/></linearGradient><linearGradient id="c" x1="1661.22" y1="2929.16" x2="1774.88" y2="2815.5" xlink:href="#a"/><linearGradient id="d" x1="1672.06" y1="2935.345" x2="1785.72" y2="2821.685" xlink:href="#b"/><linearGradient id="e" x1="1686.66" y1="2922.705" x2="1773.69" y2="2835.675" gradientUnits="userSpaceOnUse"><stop offset="0" stop-color="#db4a17"/><stop offset="1" stop-color="#ff8532"/></linearGradient><linearGradient id="f" x1="1745.22" y1="2937.255" x2="1790.41" y2="2892.065" xlink:href="#a"/><linearGradient id="g" x1="1749.53" y1="2939.755" x2="1794.72" y2="2894.565" xlink:href="#b"/><linearGradient id="h" x1="1634.19" y1="2910.285" x2="1679.38" y2="2865.095" xlink:href="#a"/><linearGradient id="i" x1="1638.5" y1="2912.755" x2="1683.69" y2="2867.565" xlink:href="#b"/></defs><g fill-rule="evenodd"><path d="M1700.55 2841.48c-12.49 7.02-22.72 1.17-22.85-13.08s9.86-31.48 22.35-38.5 22.71-1.16 22.85 13.08-9.87 31.48-22.35 38.5z" transform="translate(-1634.19 -2786.94)" fill="url(#a)"/><path d="M1704.85 2843.96c-12.48 7.02-22.71 1.16-22.85-13.09s9.87-31.48 22.35-38.5 22.72-1.16 22.85 13.09-9.86 31.48-22.35 38.5z" transform="translate(-1634.19 -2786.94)" fill="url(#b)"/><path d="M53.62 41.17c.12 10.91 7.97 15.43 17.53 10.09s17.21-18.52 17.09-29.43S80.27 6.4 70.71 11.74 53.49 30.25 53.62 41.17z" fill="#3e9ae8"/></g><g data-name="token" fill-rule="evenodd"><path d="M1718.68 2936.81c-31.38 17.55-57.1 2.9-57.45-32.71s24.81-78.71 56.19-96.26 57.11-2.9 57.46 32.71-24.82 78.71-56.2 96.26z" transform="translate(-1634.19 -2786.94)" fill="url(#c)"/><path d="M1729.51 2942.99c-31.38 17.55-57.1 2.91-57.45-32.71s24.81-78.71 56.2-96.25 57.1-2.9 57.45 32.71-24.81 78.71-56.2 96.25z" transform="translate(-1634.19 -2786.94)" fill="url(#d)"/><path d="M1686.65 2903.36c.31 27.29 20.05 38.59 44.08 25.24s43.28-46.29 42.97-73.58-20.04-38.58-44.08-25.23-43.27 46.29-42.97 73.57z" transform="translate(-1634.19 -2786.94)" fill="url(#e)"/><path d="M68.48 108.42a13.738 13.738 0 0 1 4.18-9.25 5.086 5.086 0 0 1-1.11-3.43 13.56 13.56 0 0 1 6.27-10.84l.85-.48a5.5 5.5 0 0 1-.89-3.15 13.556 13.556 0 0 1 6.28-10.84l3.48-1.97c1.28-4.97 4.8-10.01 8.97-12.36s7.75-1.33 9.1 2.16l3.8-2.15c3.5-1.98 6.37-.33 6.41 3.68a11.353 11.353 0 0 1-.82 4.11l.86-.48c3.5-1.98 6.37-.33 6.4 3.68a11.652 11.652 0 0 1-1.03 4.65c2.48-.4 4.28 1.28 4.3 4.45a13.681 13.681 0 0 1-4.17 9.25 5.21 5.21 0 0 1 1.11 3.43 13.593 13.593 0 0 1-6.27 10.85l-.86.48a5.378 5.378 0 0 1 .89 3.15 13.59 13.59 0 0 1-6.27 10.84l-3.71 2.09c-1.27 4.97-4.76 9.99-8.9 12.33s-7.69 1.29-9.04-2.2l-3.71 2.09c-3.5 1.98-6.37.33-6.41-3.68a11.164 11.164 0 0 1 .83-4.11l-.86.48c-3.5 1.98-6.37.33-6.41-3.68a11.632 11.632 0 0 1 1.04-4.65c-2.48.4-4.28-1.28-4.31-4.45zm28.06-48.69a13.489 13.489 0 0 0-5.49 6.75l11.05-6.24c-1.12-1.55-3.19-1.85-5.56-.51zm19.35 7.32l-6.34 3.58-15.85 8.95a.983.983 0 0 1-1.6-.92 3.365 3.365 0 0 1 1.57-2.71L109.52 67a6.79 6.79 0 0 0 3.13-5.42c-.02-2-1.45-2.83-3.2-1.84L84.09 74.06a6.8 6.8 0 0 0-3.14 5.42c.02 2 1.46 2.83 3.21 1.84a.981.981 0 0 1 1.6.92 3.4 3.4 0 0 1-1.57 2.71l-6.34 3.58a6.775 6.775 0 0 0-3.13 5.42c.02 2 1.45 2.82 3.2 1.84l11.93-6.74a19.221 19.221 0 0 1 7.06-7.63c2.81-1.59 5.35-1.61 7.12-.37l11.93-6.74a6.775 6.775 0 0 0 3.13-5.42c-.02-2-1.45-2.83-3.2-1.84zM90.67 95.89c.04 4.01 2.91 5.66 6.41 3.68a13.575 13.575 0 0 0 6.27-10.84c-.04-4.01-2.91-5.66-6.41-3.68a13.56 13.56 0 0 0-6.27 10.84zm31.7-17.9c-.02-2-1.46-2.83-3.21-1.84l-3.17 1.79-10.05 5.68a9.472 9.472 0 0 1 .58 3.32 15.617 15.617 0 0 1-.51 3.94l13.22-7.47a6.8 6.8 0 0 0 3.14-5.42zm-25.05 47a13.559 13.559 0 0 0 5.45-6.73l-10.97 6.19c1.11 1.55 3.17 1.86 5.52.54zm-19.19-7.42l22.18-12.53a.988.988 0 0 1 1.61.92 3.391 3.391 0 0 1-1.57 2.71l-15.85 8.95a6.826 6.826 0 0 0-3.14 5.42c.02 2.01 1.46 2.83 3.21 1.84l25.36-14.31a6.793 6.793 0 0 0 3.13-5.43c-.02-2-1.45-2.82-3.2-1.84a.978.978 0 0 1-1.6-.92 3.377 3.377 0 0 1 1.56-2.7l6.34-3.58a6.818 6.818 0 0 0 3.14-5.43c-.02-2-1.45-2.82-3.2-1.84l-11.94 6.74a19.2 19.2 0 0 1-7.05 7.63c-2.82 1.59-5.36 1.62-7.12.37l-11.93 6.74a6.8 6.8 0 0 0-3.14 5.42c.02 2.01 1.46 2.83 3.21 1.84zm-3.28-9.1L88.08 101a9.249 9.249 0 0 1-.58-3.32 15.559 15.559 0 0 1 .51-3.94l-10.05 5.68-3.17 1.79a6.76 6.76 0 0 0-3.14 5.42c.02 2 1.45 2.83 3.2 1.84z" fill="#fff" opacity=".7"/></g><g data-name="token" fill-rule="evenodd"><path d="M1768.06 2940.46c-12.48 7.02-22.71 1.17-22.85-13.08s9.87-31.48 22.35-38.5 22.72-1.16 22.85 13.08-9.86 31.49-22.35 38.5z" transform="translate(-1634.19 -2786.94)" fill="url(#f)"/><path d="M1772.37 2942.94c-12.48 7.02-22.71 1.16-22.85-13.09s9.87-31.48 22.35-38.5 22.71-1.16 22.85 13.09-9.87 31.48-22.35 38.5z" transform="translate(-1634.19 -2786.94)" fill="url(#g)"/><path d="M121.14 140.15c.12 10.91 7.97 15.43 17.53 10.09s17.21-18.52 17.09-29.43-7.97-15.43-17.54-10.09-17.21 18.51-17.08 29.43z" fill="#48708e"/></g><g data-name="token" fill-rule="evenodd"><path d="M1657.03 2913.47c-12.48 7.02-22.71 1.16-22.85-13.08s9.87-31.49 22.35-38.51 22.72-1.16 22.85 13.09-9.86 31.48-22.35 38.5z" transform="translate(-1634.19 -2786.94)" fill="url(#h)"/><path d="M1661.34 2915.94c-12.48 7.02-22.71 1.17-22.85-13.08s9.87-31.48 22.35-38.5 22.71-1.16 22.85 13.08-9.87 31.49-22.35 38.5z" transform="translate(-1634.19 -2786.94)" fill="url(#i)"/><path d="M10.11 113.15c.12 10.92 7.97 15.44 17.53 10.1s17.21-18.52 17.09-29.43-7.97-15.44-17.54-10.1-17.21 18.52-17.08 29.43z" fill="#0fbaac"/></g></svg>