<svg id="illustration" xmlns="http://www.w3.org/2000/svg" xmlns:xlink="http://www.w3.org/1999/xlink" width="193" height="189" viewBox="0 0 193 189"><defs><style>.cls-3{fill-rule:evenodd;fill:#ccc}</style><linearGradient id="linear-gradient" x1="168.48" y1="189.156" x2="101.832" y2="73.719" gradientUnits="userSpaceOnUse"><stop offset="0" stop-color="#d4d3d4"/><stop offset="1" stop-color="#ddd"/></linearGradient><linearGradient id="linear-gradient-2" x1="19.344" y1="170.062" x2="96.594" y2="92.812" gradientUnits="userSpaceOnUse"><stop offset="0" stop-color="#e4e4e4"/><stop offset="1" stop-color="#fff"/></linearGradient><linearGradient id="linear-gradient-3" x1="96.531" y1="86.984" x2="173.781" y2="86.984" gradientUnits="userSpaceOnUse"><stop offset="0" stop-color="#ededed"/><stop offset="1" stop-color="#ccc"/></linearGradient><linearGradient id="linear-gradient-4" x1="37.781" y1="72.953" x2="156.469" y2="72.953" xlink:href="#linear-gradient-3"/><linearGradient id="linear-gradient-5" x1="37.781" y1="67.281" x2="156.469" y2="67.281" gradientUnits="userSpaceOnUse"><stop offset="0" stop-color="#3e9ae8"/><stop offset="1" stop-color="#3286ce"/></linearGradient><linearGradient id="linear-gradient-6" x1="37.781" y1="56.25" x2="156.469" y2="56.25" xlink:href="#linear-gradient-3"/><linearGradient id="linear-gradient-7" x1="37.781" y1="50.578" x2="156.469" y2="50.578" gradientUnits="userSpaceOnUse"><stop offset="0" stop-color="#0fbaac"/><stop offset="1" stop-color="#059a8e"/></linearGradient><linearGradient id="linear-gradient-8" x1="37.781" y1="39.563" x2="156.469" y2="39.563" xlink:href="#linear-gradient-3"/><linearGradient id="linear-gradient-9" x1="37.781" y1="33.875" x2="156.469" y2="33.875" gradientUnits="userSpaceOnUse"><stop offset="0" stop-color="#ff8532"/><stop offset="1" stop-color="#db4a17"/></linearGradient><linearGradient id="linear-gradient-10" x1=".531" y1="107.781" x2="96.563" y2="107.781" gradientUnits="userSpaceOnUse"><stop offset="0" stop-color="#e4e4e4"/><stop offset="1" stop-color="#f0f0f0"/></linearGradient><linearGradient id="linear-gradient-11" x1="96.563" y1="107.781" x2="192.594" y2="107.781" gradientUnits="userSpaceOnUse"><stop offset="0" stop-color="#f0f0f0"/><stop offset="1" stop-color="#e4e4e4"/></linearGradient></defs><g id="box"><path d="M96.584 118.345l77.21-44.635-.042 70.8-77.209 44.635z" fill="url(#linear-gradient)" fill-rule="evenodd"/><path d="M96.555 118.345L19.345 73.71l.042 70.8L96.6 189.145z" fill="url(#linear-gradient-2)" fill-rule="evenodd"/><path class="cls-3" d="M96.516 28.335l77.268 45.4-77.16 45.407-77.268-45.4z"/><path d="M80.477 109.651l16.039-9.438 16.146 9.486-16.038 9.438z" fill="#bcbcbc" fill-rule="evenodd"/><path d="M111.581 109.675l-15-8.67-.038-72.692 76.274 45.962zm61.214 35.39l.957-.554.021-34.836.021 35.967z" opacity=".5" fill="url(#linear-gradient-3)" fill-rule="evenodd"/><path id="Rounded_Rectangle_2589" data-name="Rounded Rectangle 2589" d="M105.415 60.511l45.884 26.3c5.431 3.114 4.754 8.552-1.511 12.148l-42.77 24.552c-6.265 3.6-15.746 3.991-21.176.878l-45.885-26.3c-5.43-3.113-4.753-8.55 1.512-12.147l42.769-24.553c6.262-3.597 15.746-3.989 21.177-.878z" fill="#3d6481" fill-rule="evenodd"/><g fill-rule="evenodd"><path id="Rounded_Rectangle_2589-2" data-name="Rounded Rectangle 2589" d="M106.915 41.015l45.885 26.3c5.43 3.113 4.753 8.552-1.512 12.148l-42.77 24.552c-6.264 3.6-15.746 3.99-21.176.878l-45.884-26.3c-5.431-3.113-4.753-8.552 1.512-12.148l42.769-24.553c6.261-3.597 15.746-3.992 21.176-.877z" fill="url(#linear-gradient-4)" opacity=".8"/><path id="Rounded_Rectangle_2589-3" data-name="Rounded Rectangle 2589" d="M106.915 35.34l45.885 26.3c5.43 3.113 4.753 8.55-1.512 12.149l-42.77 24.551c-6.264 3.6-15.746 3.991-21.176.879l-45.884-26.3c-5.431-3.114-4.753-8.55 1.512-12.148l42.769-24.554c6.261-3.596 15.746-3.988 21.176-.877z" fill="url(#linear-gradient-5)"/></g><g fill-rule="evenodd"><path id="Rounded_Rectangle_2589-4" data-name="Rounded Rectangle 2589" d="M106.915 24.313l45.885 26.3c5.43 3.111 4.753 8.552-1.512 12.148l-42.77 24.554c-6.264 3.595-15.746 3.991-21.176.877l-45.884-26.3c-5.431-3.114-4.753-8.553 1.512-12.151l42.769-24.55C92 21.6 101.485 21.2 106.915 24.313z" fill="url(#linear-gradient-6)" opacity=".8"/><path id="Rounded_Rectangle_2589-5" data-name="Rounded Rectangle 2589" d="M106.915 18.64l45.885 26.3c5.43 3.113 4.753 8.553-1.512 12.148l-42.77 24.553c-6.264 3.6-15.746 3.991-21.176.878l-45.884-26.3c-5.431-3.119-4.758-8.55 1.511-12.149l42.77-24.552c6.261-3.596 15.746-3.99 21.176-.878z" fill="url(#linear-gradient-7)"/></g><g fill-rule="evenodd"><path id="Rounded_Rectangle_2589-6" data-name="Rounded Rectangle 2589" d="M106.915 7.617l45.885 26.3c5.43 3.11 4.753 8.55-1.512 12.146l-42.77 24.553c-6.264 3.6-15.746 3.989-21.176.877l-45.884-26.3c-5.431-3.113-4.753-8.553 1.512-12.149L85.739 8.492C92 4.895 101.485 4.5 106.915 7.617z" fill="url(#linear-gradient-8)" opacity=".8"/><path id="Rounded_Rectangle_2589-7" data-name="Rounded Rectangle 2589" d="M106.915 1.943l45.885 26.3c5.43 3.111 4.753 8.55-1.512 12.147l-42.77 24.554c-6.264 3.6-15.746 3.989-21.176.877l-45.884-26.3c-5.431-3.111-4.753-8.552 1.512-12.148L85.739 2.817C92-.779 101.485-1.171 106.915 1.943z" fill="url(#linear-gradient-9)"/></g><path d="M96.568 119.144l-77.21-45.4-7.516 26.457 77.21 45.4z" opacity=".8" fill="#ccc" fill-rule="evenodd"/><path class="cls-3" d="M96.571 119.144l77.21-45.4 11.281 22.675-77.209 45.4z"/><path d="M96.568 119.144l-77.21-45.4L.545 96.424l77.21 45.4z" fill="url(#linear-gradient-10)" fill-rule="evenodd"/><path d="M96.571 119.144l77.21-45.4 18.813 22.675-77.21 45.4z" fill="url(#linear-gradient-11)" fill-rule="evenodd"/></g></svg>