<svg id="illustration" xmlns="http://www.w3.org/2000/svg" xmlns:xlink="http://www.w3.org/1999/xlink" width="147" height="209" viewBox="0 0 147 209"><defs><style>.cls-1{fill:#dcdcdc;fill-rule:evenodd}</style><linearGradient id="linear-gradient" x1="61.469" y1="170.75" x2="61.469" y2="130.25" gradientUnits="userSpaceOnUse"><stop offset="0" stop-color="#fff"/><stop offset="1" stop-color="#e4e4e4"/></linearGradient><linearGradient id="linear-gradient-2" x1=".094" y1="85.516" x2="124.125" y2="85.516" gradientUnits="userSpaceOnUse"><stop offset="0" stop-color="#ccc"/><stop offset="1" stop-color="#ededed"/></linearGradient><linearGradient id="linear-gradient-3" x1="5.563" y1="149.156" x2="129.281" y2="25.438" gradientUnits="userSpaceOnUse"><stop offset="0" stop-color="#e4e4e4"/><stop offset="1" stop-color="#fff"/></linearGradient><linearGradient id="linear-gradient-4" x1="10.438" y1="136.312" x2="124.125" y2="22.625" xlink:href="#linear-gradient-3"/><linearGradient id="linear-gradient-5" x1="85.344" y1="203.906" x2="131.438" y2="157.812" xlink:href="#linear-gradient-3"/></defs><g id="monitor"><path id="Rounded_Rectangle_2303" data-name="Rounded Rectangle 2303" class="cls-1" d="M45.745 135.907l-19.568 9.773c-2.295 1.338-2.009 3.671.639 5.211l31.907 23.373c2.648 1.541 6.655 1.71 8.95.375l29.087-16.927c2.295-1.339 2.009-3.671-.639-5.217l-41.426-16.213c-2.648-1.543-6.655-1.71-8.95-.375z"/><path id="Rounded_Rectangle_2303-2" data-name="Rounded Rectangle 2303" d="M45.745 131.134l-19.569 9.777c-2.295 1.333-2.009 3.667.639 5.215l31.907 23.368c2.648 1.541 6.655 1.712 8.95.374L96.76 152.94c2.295-1.338 2.009-3.669-.639-5.215l-41.426-16.211c-2.648-1.549-6.655-1.714-8.95-.38z" fill="url(#linear-gradient)" fill-rule="evenodd"/><path id="Rounded_Rectangle_2303-3" data-name="Rounded Rectangle 2303" d="M26.177 140.911l19.569-9.777c2.295-1.335 6.3-1.169 8.949.38l26.526 10.38L47.6 161.347l-20.785-15.221c-2.647-1.548-2.933-3.882-.638-5.215z" fill="#e5eaed" opacity=".6" fill-rule="evenodd"/><g fill-rule="evenodd"><path id="Rounded_Rectangle_2298" data-name="Rounded Rectangle 2298" d="M8.429 63.934L115.878 1.458c4.565-2.656 8.262-.511 8.258 4.794l-.053 86.428c0 5.3-3.707 11.751-8.272 14.407L8.362 169.567C3.8 172.22.1 170.073.1 164.773l.057-86.431c.004-5.301 3.707-11.75 8.272-14.408z" fill="url(#linear-gradient-2)"/><path id="Rounded_Rectangle_2298-2" data-name="Rounded Rectangle 2298" d="M13.867 65.89l107.169-62c4.553-2.637 8.24-.5 8.237 4.761l-.053 85.766c0 5.262-3.7 11.668-8.251 14.3l-107.169 62c-4.553 2.634-8.241.5-8.237-4.761l.053-85.77c.004-5.259 3.697-11.662 8.251-14.296z" fill="url(#linear-gradient-3)"/><path d="M69.8 125.466c2.276-1.318 4.12-.25 4.118 2.38A9.139 9.139 0 0 1 69.794 135c-2.276 1.315-4.12.252-4.118-2.378a9.142 9.142 0 0 1 4.124-7.156z" fill="#c8d0d4"/><path id="Rounded_Rectangle_2298-3" data-name="Rounded Rectangle 2298" d="M13.867 65.89l107.169-62c4.553-2.637 8.24-.5 8.237 4.761l.019 76.272c0 2.965-3.77 4.473-8.323 7.105l-107.169 62c-4.553 2.633-8.507 3.106-8.507 2.915V79.5c.007-5.267 4.02-10.976 8.574-13.61z" fill="#3d6481"/><path id="Rounded_Rectangle_2298-4" data-name="Rounded Rectangle 2298" d="M14.553 72.739l105.52-61.547c2.242-1.3 4.057-.244 4.056 2.365l-.046 65.561a9.078 9.078 0 0 1-4.063 7.094L14.5 147.758c-2.241 1.306-4.057.247-4.055-2.366l.046-65.559a9.072 9.072 0 0 1 4.062-7.094z" fill="url(#linear-gradient-4)"/><path id="Rounded_Rectangle_1053" data-name="Rounded Rectangle 1053" d="M17.775 75.355l20.79-12c1.435-.83 2.6-.159 2.6 1.5l-.017 23.97a5.748 5.748 0 0 1-2.6 4.5l-20.79 12c-1.435.827-2.6.156-2.6-1.5l.017-23.97a5.743 5.743 0 0 1 2.6-4.5z" fill="#3e9ae8"/><path id="Rounded_Rectangle_1053-2" data-name="Rounded Rectangle 1053" d="M17.75 111.308l20.79-12c1.435-.827 2.6-.157 2.6 1.5l-.02 23.971a5.744 5.744 0 0 1-2.6 4.5l-20.79 12c-1.435.83-2.6.159-2.6-1.5l.017-23.97a5.748 5.748 0 0 1 2.603-4.501z" fill="#0fbaac"/><path id="Rounded_Rectangle_1061" data-name="Rounded Rectangle 1061" d="M48.96 57.358l36.971-22.5c1.435-.828 2.6-.157 2.6 1.5l-.044 59.927a5.745 5.745 0 0 1-2.6 4.5l-36.973 22.49c-1.435.829-2.6.159-2.6-1.5l.042-59.926a5.74 5.74 0 0 1 2.604-4.491z" fill="#ff6b00"/><path id="Rounded_Rectangle_1061-2" data-name="Rounded Rectangle 1061" d="M96.327 28.864l20.79-12c1.436-.828 2.6-.159 2.6 1.5l-.042 59.925a5.741 5.741 0 0 1-2.6 4.495l-20.79 12c-1.435.83-2.6.16-2.6-1.5l.042-59.925a5.74 5.74 0 0 1 2.6-4.495z" fill="#ee5978"/></g></g><g id="keyboard"><path id="Rounded_Rectangle_2309" data-name="Rounded Rectangle 2309" class="cls-1" d="M124.489 163.579l-53.077 32c-2.309 1.356-2.021 3.73.643 5.3l11.229 6.608c2.664 1.57 6.7 1.74 9 .387l53.077-32.006c2.309-1.359 2.022-3.73-.642-5.3l-11.229-6.613c-2.66-1.562-6.69-1.733-9.001-.376z"/><path id="Rounded_Rectangle_2309-2" data-name="Rounded Rectangle 2309" d="M124.489 158.725l-53.077 32c-2.309 1.358-2.021 3.728.643 5.3l11.229 6.61c2.664 1.568 6.7 1.741 9 .384l53.077-32c2.309-1.36 2.022-3.731-.642-5.3l-11.229-6.611c-2.66-1.571-6.69-1.741-9.001-.383z" fill="url(#linear-gradient-5)" fill-rule="evenodd"/><path id="Rounded_Rectangle_2313" data-name="Rounded Rectangle 2313" d="M125.078 160.587l-.551.317c-.98.564-.858 1.55.273 2.2a4.25 4.25 0 0 0 3.822.157l.551-.316c.98-.563.858-1.55-.273-2.2a4.256 4.256 0 0 0-3.822-.158zm4.092 4.719l-.551.319c-.98.562-.858 1.547.273 2.2a4.26 4.26 0 0 0 3.821.156l.552-.314c.98-.566.858-1.551-.273-2.206a4.262 4.262 0 0 0-3.822-.155zm-10.242-1.18l-.552.316c-.98.563-.858 1.55.273 2.2a4.253 4.253 0 0 0 3.822.159l.551-.318c.98-.562.858-1.549-.273-2.2a4.251 4.251 0 0 0-3.821-.157zm4.091 4.721l-.551.316c-.98.562-.858 1.55.273 2.2a4.247 4.247 0 0 0 3.822.16l.551-.318c.98-.563.858-1.55-.273-2.2a4.249 4.249 0 0 0-3.822-.158zm-10.243-1.181l-.551.314c-.98.566-.858 1.551.273 2.2a4.263 4.263 0 0 0 3.822.159l.551-.316c.98-.566.858-1.548-.273-2.2a4.25 4.25 0 0 0-3.822-.157zm4.092 4.719l-.551.313c-.98.569-.858 1.552.273 2.206a4.266 4.266 0 0 0 3.822.157l.551-.318c.98-.565.858-1.548-.273-2.2a4.262 4.262 0 0 0-3.822-.158zm-10.242-1.185l-.552.319c-.98.559-.858 1.547.273 2.2a4.263 4.263 0 0 0 3.822.159l.551-.316c.98-.566.858-1.549-.272-2.2a4.253 4.253 0 0 0-3.822-.162zm4.091 4.718l-.551.319c-.98.562-.858 1.548.273 2.2a4.25 4.25 0 0 0 3.822.158l.552-.315c.979-.563.857-1.55-.273-2.2a4.256 4.256 0 0 0-3.823-.159zm-10.242-1.18l-.552.318c-.98.566-.858 1.549.273 2.2a4.25 4.25 0 0 0 3.822.158l.552-.318c.98-.56.857-1.547-.273-2.2a4.26 4.26 0 0 0-3.822-.155zm4.092 4.719l-.552.316c-.98.566-.858 1.55.273 2.2a4.25 4.25 0 0 0 3.822.156l.552-.316c.98-.563.857-1.549-.273-2.2a4.254 4.254 0 0 0-3.822-.153zm-10.243-1.179l-.552.316c-.98.563-.858 1.547.273 2.2a4.253 4.253 0 0 0 3.822.157l.551-.316c.98-.563.858-1.55-.272-2.2a4.25 4.25 0 0 0-3.822-.154zM98.416 183l-.551.316c-.98.562-.858 1.549.273 2.2a4.253 4.253 0 0 0 3.822.16l.552-.319c.98-.562.858-1.549-.273-2.2a4.253 4.253 0 0 0-3.823-.157zm-10.243-1.181l-.551.317c-.98.565-.858 1.546.273 2.2a4.264 4.264 0 0 0 3.822.163l.551-.319c.98-.563.858-1.545-.273-2.2a4.256 4.256 0 0 0-3.822-.161zm4.092 4.721l-.552.315c-.98.564-.858 1.548.273 2.2a4.259 4.259 0 0 0 3.822.16l.552-.316c.98-.567.858-1.549-.273-2.2a4.259 4.259 0 0 0-3.822-.159zm-10.243-1.183l-.551.32c-.98.561-.858 1.543.273 2.2a4.254 4.254 0 0 0 3.822.16l.551-.314c.98-.568.858-1.551-.273-2.2a4.26 4.26 0 0 0-3.822-.166zm4.092 4.718l-.552.32c-.98.562-.858 1.546.273 2.2a4.256 4.256 0 0 0 3.822.159l.551-.315c.98-.566.858-1.55-.272-2.2a4.26 4.26 0 0 0-3.822-.164zM75.871 188.9l-.551.314c-.98.566-.858 1.552.273 2.2a4.252 4.252 0 0 0 3.822.156l.552-.317c.98-.563.858-1.548-.273-2.2a4.246 4.246 0 0 0-3.823-.153zm61.492-21.229l-.552.314c-.98.563-.858 1.55.273 2.2a4.26 4.26 0 0 0 3.822.161l.552-.318c.98-.564.857-1.548-.273-2.2a4.25 4.25 0 0 0-3.822-.159zm-6.151 3.535l-.552.318c-.98.563-.858 1.547.273 2.2a4.256 4.256 0 0 0 3.823.16l.551-.316c.98-.567.858-1.547-.273-2.2a4.26 4.26 0 0 0-3.822-.168zm-6.151 3.539l-.551.318c-.98.564-.858 1.548.272 2.2a4.253 4.253 0 0 0 3.822.157l.552-.316c.98-.56.858-1.55-.273-2.2a4.254 4.254 0 0 0-3.822-.161zm-24.6 14.156l-.552.316c-.98.563-.858 1.55.273 2.2a4.256 4.256 0 0 0 3.822.156l.551-.316c.98-.562.858-1.55-.272-2.2a4.246 4.246 0 0 0-3.825-.157zm-6.151 3.538l-.551.315c-.98.564-.858 1.55.273 2.2a4.262 4.262 0 0 0 3.822.157l.546-.311c.98-.563.858-1.55-.273-2.2a4.25 4.25 0 0 0-3.82-.163zm-6.151 3.538l-.551.315c-.98.566-.858 1.55.273 2.2a4.249 4.249 0 0 0 3.822.157l.552-.318c.98-.561.858-1.548-.273-2.2a4.253 4.253 0 0 0-3.826-.156zm30.754-17.693l-12.853 7.395c-.98.563-.858 1.546.273 2.2a4.256 4.256 0 0 0 3.822.158l12.853-7.392c.98-.564.858-1.552-.273-2.2a4.262 4.262 0 0 0-3.825-.163z" fill="#aeaeae" fill-rule="evenodd"/></g></svg>