<svg width="601" height="172" viewBox="0 0 601 172" xmlns="http://www.w3.org/2000/svg"><g fill="#FFF" fill-rule="evenodd"><path d="M105.8 87.8L53.4.8.9 87.8l52.5 31z"/><path d="M105.9 97.8l-52.5 31-52.5-31 52.5 73.9z"/><path d="M168.7 36.6c2.3 0 4.5.5 6.4 1.4 2 1 3.7 2.2 5.1 3.8 1.4 1.6 2.5 3.4 3.3 5.5.8 2.1 1.2 4.3 1.2 6.5 0 2.3-.4 4.4-1.2 6.5-.8 2.1-1.9 3.9-3.3 5.5s-3.1 2.9-5.1 3.8c-2 1-4.1 1.4-6.4 1.4-3 0-5.7-.8-8.2-2.4-2.5-1.6-4.4-3.7-5.8-6.3v25.6c0 .9-.5 1.4-1.4 1.4-.9 0-1.4-.5-1.4-1.4V38.3c0-.3.1-.6.4-.9.3-.3.6-.4 1-.4s.7.2 1 .4c.3.3.4.6.4.9v6.8c1.4-2.6 3.3-4.7 5.8-6.3 2.5-1.4 5.2-2.2 8.2-2.2m0 31.9c1.9 0 3.7-.4 5.3-1.2 1.6-.8 3-1.9 4.2-3.2 1.2-1.3 2.1-2.9 2.7-4.6.7-1.8 1-3.6 1-5.4 0-1.9-.3-3.7-1-5.4-.7-1.8-1.6-3.3-2.7-4.6-1.2-1.3-2.6-2.4-4.2-3.2-1.6-.8-3.4-1.2-5.3-1.2-2 0-3.8.4-5.4 1.2-1.6.8-3 1.9-4.2 3.2-1.2 1.3-2.1 2.9-2.7 4.6-.7 1.8-1 3.6-1 5.4 0 1.9.3 3.7 1 5.4.7 1.8 1.6 3.3 2.7 4.6 1.2 1.3 2.6 2.4 4.2 3.2 1.6.8 3.4 1.2 5.4 1.2m48.6-32c2.3 0 4.5.5 6.5 1.4 2 1 3.7 2.2 5.1 3.8 1.4 1.6 2.5 3.4 3.3 5.5.8 2.1 1.2 4.3 1.2 6.5 0 2.3-.4 4.4-1.2 6.5-.8 2.1-1.9 3.9-3.3 5.5s-3.1 2.9-5.1 3.8c-2 1-4.2 1.4-6.5 1.4s-4.5-.5-6.4-1.4c-2-1-3.7-2.2-5.1-3.8-1.4-1.6-2.5-3.4-3.3-5.5-.8-2.1-1.2-4.3-1.2-6.5 0-2.3.4-4.4 1.2-6.5.8-2.1 1.9-3.9 3.3-5.5s3.1-2.9 5.1-3.8c1.9-.9 4-1.4 6.4-1.4m0 31.9c2 0 3.8-.4 5.4-1.2 1.6-.8 3-1.9 4.2-3.2 1.2-1.3 2.1-2.9 2.7-4.6.6-1.8.9-3.6.9-5.4 0-1.9-.3-3.7-.9-5.4-.6-1.7-1.5-3.3-2.7-4.6-1.2-1.3-2.6-2.4-4.2-3.2-1.6-.8-3.4-1.2-5.4-1.2-1.9 0-3.7.4-5.3 1.2-1.6.8-3 1.9-4.2 3.2-1.2 1.3-2.1 2.9-2.7 4.6-.7 1.7-1 3.5-1 5.4 0 1.9.3 3.7 1 5.4.7 1.8 1.6 3.3 2.7 4.6 1.2 1.3 2.6 2.4 4.2 3.2 1.5.8 3.3 1.2 5.3 1.2" fill-rule="nonzero"/><path d="M295.3 37.1c.9 0 1.4.5 1.4 1.4 0 .1-.3.9-.7 2.4-.5 1.5-1.1 3.3-1.9 5.5-.8 2.2-1.7 4.6-2.6 7.2-.9 2.6-1.8 5-2.6 7.3s-1.6 4.3-2.2 6c-.6 1.7-1 2.8-1.1 3.2-.1.4-.3.6-.6.7-.3.1-.6.2-.9.2-.3 0-.6-.1-.9-.2-.3-.1-.5-.3-.6-.7l-10-27.9-10 27.9c-.1.4-.3.6-.6.7-.3.1-.6.2-.9.2-.3 0-.6-.1-.9-.2-.3-.1-.5-.3-.6-.7-.2-.4-.6-1.4-1.2-3.1-.6-1.7-1.4-3.7-2.2-6-.8-2.3-1.7-4.8-2.6-7.4-.9-2.6-1.8-5-2.5-7.2-.8-2.2-1.4-4.1-1.9-5.6s-.7-2.3-.7-2.3c0-.9.5-1.4 1.4-1.4.7 0 1.1.3 1.3.9l10.1 28.2L271.4 38c.2-.6.7-.9 1.4-.9s1.2.3 1.5.9l10 28.2L294 38c.2-.6.6-.9 1.3-.9"/><path d="M327.7 36.6c2.3 0 4.5.5 6.5 1.4 2 1 3.7 2.2 5.1 3.8 1.4 1.6 2.5 3.4 3.3 5.5.8 2.1 1.2 4.3 1.2 6.5 0 .4-.1.7-.4 1-.3.3-.6.4-1 .4h-27.8c.2 1.7.6 3.4 1.3 5 .7 1.6 1.6 3 2.7 4.2 1.1 1.2 2.5 2.2 4 2.9 1.5.7 3.2 1.1 5.1 1.1 4.9 0 8.7-2 11.5-5.9.3-.5.7-.7 1.2-.7.9 0 1.4.5 1.4 1.4 0 .1-.1.3-.2.7-1.4 2.5-3.4 4.3-5.9 5.5-2.5 1.2-5.2 1.8-8 1.8-2.3 0-4.5-.5-6.4-1.4-2-1-3.7-2.2-5.1-3.8-1.4-1.6-2.5-3.4-3.3-5.5-.8-2.1-1.2-4.3-1.2-6.5 0-2.3.4-4.4 1.2-6.5.8-2.1 1.9-3.9 3.3-5.5s3.1-2.9 5.1-3.8c1.9-1.1 4.1-1.6 6.4-1.6zm13.2 16c-.1-1.7-.5-3.4-1.2-5s-1.6-3-2.8-4.2c-1.2-1.2-2.5-2.2-4.1-2.9-1.6-.7-3.2-1.1-5-1.1-1.9 0-3.6.4-5.1 1.1-1.5.7-2.9 1.7-4 2.9s-2 2.6-2.7 4.2c-.7 1.6-1.1 3.3-1.3 5h26.2z" fill-rule="nonzero"/><path d="M377.1 37.3c.3 0 .7.1 1 .3.3.2.5.5.5.9 0 .9-.4 1.4-1.3 1.5-2.1.3-3.8 1-5.3 1.9-1.5.9-2.7 2.1-3.7 3.5s-1.7 3-2.1 4.7c-.5 1.8-.7 3.6-.7 5.5V69c0 .9-.5 1.4-1.4 1.4-.9 0-1.4-.5-1.4-1.4V38.6c0-.9.5-1.4 1.4-1.4.9 0 1.4.5 1.4 1.4v6.2c.6-1 1.3-1.9 2.1-2.8.8-.9 1.7-1.7 2.7-2.4 1-.7 2.1-1.3 3.2-1.7 1.3-.4 2.5-.6 3.6-.6"/><path d="M409.6 36.6c2.3 0 4.5.5 6.5 1.4 2 1 3.7 2.2 5.1 3.8 1.4 1.6 2.5 3.4 3.3 5.5.8 2.1 1.2 4.3 1.2 6.5 0 .4-.1.7-.4 1-.3.3-.6.4-1 .4h-27.8c.2 1.7.6 3.4 1.3 5 .7 1.6 1.6 3 2.7 4.2 1.1 1.2 2.5 2.2 4 2.9 1.5.7 3.2 1.1 5.1 1.1 4.9 0 8.7-2 11.5-5.9.3-.5.7-.7 1.2-.7.9 0 1.4.5 1.4 1.4 0 .1-.1.3-.2.7-1.4 2.5-3.4 4.3-5.9 5.5-2.5 1.2-5.2 1.8-8 1.8-2.3 0-4.5-.5-6.4-1.4-2-1-3.7-2.2-5.1-3.8-1.4-1.6-2.5-3.4-3.3-5.5-.8-2.1-1.2-4.3-1.2-6.5 0-2.3.4-4.4 1.2-6.5.8-2.1 1.9-3.9 3.3-5.5s3.1-2.9 5.1-3.8c2-1.1 4.1-1.6 6.4-1.6zm13.2 16c-.1-1.7-.5-3.4-1.2-5s-1.6-3-2.8-4.2c-1.2-1.2-2.5-2.2-4.1-2.9-1.6-.7-3.2-1.1-5-1.1-1.9 0-3.6.4-5.1 1.1-1.5.7-2.9 1.7-4 2.9s-2 2.6-2.7 4.2c-.7 1.6-1.1 3.3-1.3 5h26.2zm50.7-43.2c.4 0 .7.2 1 .5.3.3.4.6.4.9v58.3c0 .9-.5 1.4-1.4 1.4-.9 0-1.4-.5-1.4-1.4v-6.4c-1.4 2.6-3.3 4.7-5.8 6.3-2.5 1.6-5.2 2.4-8.2 2.4-2.3 0-4.5-.5-6.4-1.4-2-1-3.7-2.2-5.1-3.8-1.4-1.6-2.5-3.4-3.3-5.5-.8-2.1-1.2-4.3-1.2-6.5 0-2.3.4-4.4 1.2-6.5.8-2.1 1.9-3.9 3.3-5.5s3.1-2.9 5.1-3.8c2-1 4.1-1.4 6.4-1.4 3 0 5.7.8 8.2 2.4 2.5 1.6 4.4 3.7 5.8 6.3V11c0-.3.1-.6.4-.9.3-.5.6-.7 1-.7m-15.3 59.2c2 0 3.8-.4 5.4-1.2 1.6-.8 3-1.9 4.2-3.2 1.2-1.3 2.1-2.9 2.7-4.6.6-1.8.9-3.6.9-5.4 0-1.9-.3-3.7-.9-5.4-.6-1.8-1.5-3.3-2.7-4.6-1.2-1.3-2.6-2.4-4.2-3.2-1.6-.8-3.4-1.2-5.4-1.2-1.9 0-3.7.4-5.3 1.2-1.6.8-3 1.9-4.2 3.2-1.2 1.3-2.1 2.9-2.7 4.6-.7 1.8-1 3.6-1 5.4 0 1.9.3 3.7 1 5.4.7 1.8 1.6 3.3 2.7 4.6 1.2 1.3 2.6 2.4 4.2 3.2 1.6.8 3.4 1.2 5.3 1.2M542 36.8c2.3 0 4.5.5 6.4 1.4 2 1 3.7 2.2 5.1 3.8 1.4 1.6 2.5 3.4 3.3 5.5.8 2.1 1.2 4.3 1.2 6.5 0 2.3-.4 4.4-1.2 6.5-.8 2.1-1.9 3.9-3.3 5.5s-3.1 2.9-5.1 3.8c-2 1-4.1 1.4-6.4 1.4-3 0-5.7-.8-8.2-2.4-2.5-1.6-4.4-3.7-5.8-6.3V69c0 .3-.1.6-.4.9-.3.3-.6.4-1 .4s-.7-.2-1-.4c-.3-.3-.4-.6-.4-.9V10.6c0-.3.1-.6.4-.9.3-.3.6-.4 1-.4s.7.1 1 .4c.3.3.4.6.4.9v34.7c1.4-2.6 3.3-4.7 5.8-6.3 2.5-1.4 5.2-2.2 8.2-2.2m0 31.9c1.9 0 3.7-.4 5.3-1.2 1.6-.8 3-1.9 4.2-3.2 1.2-1.3 2.1-2.9 2.7-4.6.7-1.8 1-3.6 1-5.4 0-1.9-.3-3.7-1-5.4-.7-1.7-1.6-3.3-2.7-4.6-1.2-1.4-2.6-2.5-4.2-3.3-1.6-.8-3.4-1.2-5.3-1.2-2 0-3.8.4-5.4 1.2-1.6.8-3 1.9-4.2 3.3-1.2 1.4-2.1 2.9-2.7 4.6-.7 1.7-1 3.5-1 5.4 0 1.9.3 3.7 1 5.4.7 1.8 1.6 3.3 2.7 4.6 1.2 1.3 2.6 2.4 4.2 3.2 1.6.8 3.4 1.2 5.4 1.2" fill-rule="nonzero"/><path d="M599.5 37.2c.9 0 1.4.5 1.4 1.4 0 .1-.3.8-.8 2.2-.5 1.4-1.2 3.2-2 5.4s-1.8 4.8-2.9 7.6c-1.1 2.9-2.2 5.8-3.4 8.8-1.2 3-2.4 6-3.5 8.9-1.1 2.9-2.2 5.6-3.1 8-1 2.4-1.8 4.5-2.4 6.2-.7 1.7-1.1 2.8-1.3 3.2-.3.6-.8.9-1.3.9-.3 0-.6-.1-.9-.4-.3-.3-.4-.6-.4-.9 0-.1.2-.6.5-1.5s.7-2 1.2-3.2c.5-1.3 1-2.6 1.6-4.1.6-1.5 1.2-2.9 1.7-4.3s1-2.5 1.4-3.5c.4-1 .7-1.7.8-2-.1-.1-.4-.9-1.1-2.4-.7-1.5-1.5-3.4-2.4-5.7-1-2.3-2-4.8-3-7.4-1.1-2.7-2.1-5.1-3-7.4-.9-2.3-1.7-4.2-2.3-5.8l-.9-2.4c0-.9.5-1.4 1.4-1.4.7 0 1.1.3 1.3.8l11.6 28.2 11-28.1c-.3-.8.2-1.1.8-1.1"/><path d="M165.5 113.5c2.3 0 4.5.5 6.5 1.4 2 1 3.7 2.2 5.1 3.8 1.4 1.6 2.5 3.4 3.3 5.5.8 2.1 1.2 4.3 1.2 6.5 0 .4-.1.7-.4 1-.3.3-.6.4-1 .4h-27.8c.2 1.7.6 3.4 1.3 5 .7 1.6 1.6 3 2.7 4.2 1.1 1.2 2.5 2.2 4 2.9 1.5.7 3.2 1.1 5.1 1.1 4.9 0 8.7-2 11.5-5.9.3-.5.7-.7 1.2-.7.9 0 1.4.5 1.4 1.4 0 .1-.1.3-.2.7-1.4 2.5-3.4 4.3-5.9 5.5-2.5 1.2-5.2 1.8-8 1.8-2.3 0-4.5-.5-6.4-1.4-2-1-3.7-2.2-5.1-3.8-1.4-1.6-2.5-3.4-3.3-5.5-.8-2.1-1.2-4.3-1.2-6.5 0-2.3.4-4.4 1.2-6.5.8-2.1 1.9-3.9 3.3-5.5s3.1-2.9 5.1-3.8c1.9-1.1 4.1-1.6 6.4-1.6zm13.2 15.9c-.1-1.7-.5-3.4-1.2-5s-1.6-3-2.8-4.2c-1.2-1.2-2.5-2.2-4.1-2.9-1.6-.7-3.2-1.1-5-1.1-1.9 0-3.6.4-5.1 1.1-1.5.7-2.9 1.7-4 2.9s-2 2.6-2.7 4.2c-.7 1.6-1.1 3.3-1.3 5h26.2z" fill-rule="nonzero"/><path d="M215.5 114.2c.4 0 .7.1 1 .4.3.3.4.6.4.9 0 .9-.5 1.4-1.4 1.4H208v29.3c0 .3-.1.6-.4.9-.3.3-.6.4-1 .4s-.7-.1-1-.4c-.3-.3-.4-.6-.4-.9V117H198c-.9 0-1.4-.5-1.4-1.4 0-.3.1-.6.4-.9.3-.3.6-.4 1-.4h7.2v-10.8c0-.9.5-1.4 1.4-1.4.9 0 1.4.5 1.4 1.4v10.8h7.5v-.1zm33.3-.6c2.1 0 3.9.4 5.5 1.2 1.6.8 2.9 1.9 4 3.3s1.9 2.9 2.5 4.7c.6 1.8.8 3.6.8 5.5V146c0 .4-.2.7-.4 1-.3.3-.6.4-.9.4-.9 0-1.4-.5-1.4-1.4v-17.7c0-1.5-.2-2.9-.6-4.4-.4-1.5-1.1-2.7-1.9-3.8-.8-1.1-1.9-2-3.1-2.7-1.3-.7-2.7-1-4.4-1-2 0-3.7.4-5.2 1.1-1.5.8-2.7 1.8-3.7 3-1 1.3-1.7 2.7-2.2 4.4-.5 1.7-.7 3.4-.7 5.2 0 .5 0 .9.1 1.4.1.5.1.9.1 1.2v13.4c0 .9-.5 1.4-1.4 1.4-.9 0-1.4-.5-1.4-1.4V87.8c0-.3.1-.6.4-.9.3-.3.6-.4 1-.4s.7.1 1 .4c.3.3.4.6.4.9v33c1.2-2.1 2.8-3.9 4.8-5.2 1.9-1.4 4.1-2 6.7-2"/><path d="M296.6 113.5c2.3 0 4.5.5 6.5 1.4 2 1 3.7 2.2 5.1 3.8 1.4 1.6 2.5 3.4 3.3 5.5.8 2.1 1.2 4.3 1.2 6.5 0 .4-.1.7-.4 1-.3.3-.6.4-1 .4h-27.8c.2 1.7.6 3.4 1.3 5 .7 1.6 1.6 3 2.7 4.2 1.1 1.2 2.5 2.2 4 2.9 1.5.7 3.2 1.1 5.1 1.1 4.9 0 8.7-2 11.5-5.9.3-.5.7-.7 1.2-.7.9 0 1.4.5 1.4 1.4 0 .1-.1.3-.2.7-1.4 2.5-3.4 4.3-5.9 5.5-2.5 1.2-5.2 1.8-8 1.8-2.3 0-4.5-.5-6.4-1.4-2-1-3.7-2.2-5.1-3.8-1.4-1.6-2.5-3.4-3.3-5.5-.8-2.1-1.2-4.3-1.2-6.5 0-2.3.4-4.4 1.2-6.5.8-2.1 1.9-3.9 3.3-5.5s3.1-2.9 5.1-3.8c1.9-1.1 4.1-1.6 6.4-1.6zm13.2 15.9c-.1-1.7-.5-3.4-1.2-5s-1.6-3-2.8-4.2c-1.2-1.2-2.5-2.2-4.1-2.9-1.6-.7-3.2-1.1-5-1.1-1.9 0-3.6.4-5.1 1.1-1.5.7-2.9 1.7-4 2.9s-2 2.6-2.7 4.2c-.7 1.6-1.1 3.3-1.3 5h26.2z" fill-rule="nonzero"/><path d="M346.1 114.2c.3 0 .7.1 1 .3.3.2.5.5.5.9 0 .9-.4 1.4-1.3 1.5-2.1.3-3.8 1-5.3 1.9-1.5.9-2.7 2.1-3.7 3.5s-1.7 3-2.1 4.7c-.5 1.8-.7 3.6-.7 5.5V146c0 .9-.5 1.4-1.4 1.4-.9 0-1.4-.5-1.4-1.4v-30.4c0-.9.5-1.4 1.4-1.4.9 0 1.4.5 1.4 1.4v6.2c.6-1 1.3-1.9 2.1-2.8.8-.9 1.7-1.7 2.7-2.4 1-.7 2.1-1.3 3.2-1.7 1.3-.5 2.4-.7 3.6-.7"/><path d="M378.5 113.5c2.3 0 4.5.5 6.5 1.4 2 1 3.7 2.2 5.1 3.8 1.4 1.6 2.5 3.4 3.3 5.5.8 2.1 1.2 4.3 1.2 6.5 0 .4-.1.7-.4 1-.3.3-.6.4-1 .4h-27.8c.2 1.7.6 3.4 1.3 5 .7 1.6 1.6 3 2.7 4.2 1.1 1.2 2.5 2.2 4 2.9 1.5.7 3.2 1.1 5.1 1.1 4.9 0 8.7-2 11.5-5.9.3-.5.7-.7 1.2-.7.9 0 1.4.5 1.4 1.4 0 .1-.1.3-.2.7-1.4 2.5-3.4 4.3-5.9 5.5-2.5 1.2-5.2 1.8-8 1.8-2.3 0-4.5-.5-6.4-1.4-2-1-3.7-2.2-5.1-3.8-1.4-1.6-2.5-3.4-3.3-5.5-.8-2.1-1.2-4.3-1.2-6.5 0-2.3.4-4.4 1.2-6.5.8-2.1 1.9-3.9 3.3-5.5s3.1-2.9 5.1-3.8c2-1.1 4.1-1.6 6.4-1.6zm13.2 15.9c-.1-1.7-.5-3.4-1.2-5s-1.6-3-2.8-4.2c-1.2-1.2-2.5-2.2-4.1-2.9-1.6-.7-3.2-1.1-5-1.1-1.9 0-3.6.4-5.1 1.1-1.5.7-2.9 1.7-4 2.9s-2 2.6-2.7 4.2c-.7 1.6-1.1 3.3-1.3 5h26.2z" fill-rule="nonzero"/><path d="M439.3 114.4c.3 0 .6.1.9.4.3.3.4.6.4.9v30.5c0 .4-.1.7-.4 1-.3.3-.6.4-.9.4-.9 0-1.4-.5-1.4-1.4v-5.8c-1.1 2.3-2.7 4.2-4.7 5.7s-4.3 2.2-6.9 2.2c-2.1 0-3.9-.4-5.5-1.2-1.6-.8-2.9-1.9-4-3.3s-1.9-2.9-2.5-4.7c-.6-1.8-.8-3.6-.8-5.5v-17.8c0-.3.1-.6.4-.9.3-.3.6-.4 1-.4s.7.1 1 .4c.3.3.4.6.4.9v17.8c0 1.5.2 3 .6 4.4.4 1.4 1.1 2.7 1.9 3.8.8 1.1 1.9 2 3.1 2.7 1.3.7 2.7 1 4.4 1 2.3 0 4.2-.5 5.7-1.5s2.7-2.4 3.5-4.1c.9-1.7 1.5-3.7 1.8-5.9.3-2.2.5-4.5.5-6.9v-11.4c0-.3.1-.6.4-.9.4-.3.7-.4 1.1-.4m61.8-.8c2.1 0 3.9.4 5.5 1.2 1.6.8 2.9 1.9 4 3.2 1.1 1.3 1.9 2.9 2.5 4.7.6 1.8.8 3.6.8 5.5V146c0 .4-.1.7-.4 1-.3.3-.6.4-.9.4-.9 0-1.4-.5-1.4-1.4v-17.8c0-1.5-.2-2.9-.6-4.3-.4-1.4-1.1-2.7-1.9-3.8-.8-1.1-1.9-2-3.1-2.7-1.3-.7-2.7-1-4.4-1-2.1 0-3.9.5-5.4 1.5-1.5 1-2.6 2.3-3.5 3.8-.9 1.6-1.6 3.3-2 5.2-.4 1.9-.6 3.7-.6 5.4v13.8c0 .4-.2.7-.4 1-.3.3-.6.4-.9.4-.9 0-1.4-.5-1.4-1.4v-17.8c0-1.5-.2-2.9-.6-4.3-.4-1.4-1.1-2.7-1.9-3.8-.8-1.1-1.9-2-3.1-2.7-1.3-.7-2.7-1-4.4-1-2.1 0-3.8.4-5.3 1.1-1.5.7-2.7 1.7-3.6 3-1 1.3-1.7 2.8-2.1 4.6-.4 1.8-.6 3.7-.6 5.8v15.2c0 .9-.5 1.4-1.4 1.4-.9 0-1.4-.5-1.4-1.4v-30.5c0-.9.5-1.4 1.4-1.4.9 0 1.4.5 1.4 1.4v5.1c1.2-2.1 2.8-3.8 4.8-5.1 2-1.3 4.3-1.9 6.8-1.9 2.9 0 5.3.8 7.4 2.4 2.1 1.6 3.6 3.8 4.5 6.4 1.1-2.6 2.8-4.7 4.9-6.4 1.7-1.8 4.3-2.6 7.3-2.6"/></g></svg>