<svg width="584" height="197" preserveAspectRatio="none" xmlns="http://www.w3.org/2000/svg"><defs><linearGradient x1="0%" y1="100%" x2="100%" y2="100%" id="a"><stop stop-color="#F47329" offset="0%"/><stop stop-color="#E65C1F" offset="100%"/></linearGradient></defs><g fill="none" fill-rule="evenodd"><path d="M1249-133.001s-150.478 1.836-259.86 62.755C879.757-9.326 847.736 55.29 636.043 17.756 424.351-19.777 392.69 26.13 289 104.999c-103.69 78.87-166.459 88.322-351.563 86.868-185.104-1.452-206.622.905-348.437 87.132s-260 66.002-260 66.002v13.643l1920-13.643v-478.002z" fill="#FFF"/><path d="M1920 .999s-150.478 1.836-259.86 62.755c-109.383 60.92-141.404 125.536-353.097 88.002-211.692-37.533-243.353 8.374-347.043 87.243-103.69 78.87-166.459 88.322-351.563 86.868-185.104-1.452-206.622.905-348.437 87.132S0 479.001 0 479.001" stroke="url(#a)" stroke-width="6" transform="translate(-671 -134)"/></g></svg>