<svg xmlns="http://www.w3.org/2000/svg" width="2239" height="1430"><path fill-rule="evenodd" opacity=".102" fill="#FFF" d="M465.591 158.975l252.013 145.501L341.41 522.025 89.396 376.524l376.195-217.549z"/><path fill-rule="evenodd" opacity=".102" fill="#FFF" d="M793.333 182.004l161.673 93.376-241.339 139.615-161.673-93.377 241.339-139.614zM1226.867.002l115.138 66.528-171.872 99.466-115.138-66.525L1226.867.002zM331.758 838.006L554.009 966.25l-331.767 191.743L-.009 1029.751l331.767-191.745zm1573-138l222.251 128.243-331.767 191.744-222.251-128.243 331.767-191.744z"/><path fill-rule="evenodd" opacity=".102" fill="#FFF" d="M1942.554 596.005l154.452 88.967-230.56 133.024-154.452-88.969 230.56-133.022zm-332 580l154.452 88.967-230.56 133.023-154.452-88.967 230.56-133.023zm241.987-908.004l89.462 51.299-133.544 76.698-89.463-51.298 133.545-76.699zm150-230.999l89.462 51.297-133.544 76.698-89.463-51.297 133.545-76.698zm-816.999 275.999l89.462 51.298-133.545 76.699-89.463-51.298 133.546-76.699z"/><path fill-rule="evenodd" opacity=".102" fill="#FFF" d="M1319.396 314.001l70.607 40.478-105.399 60.518-70.607-40.476 105.399-60.52zm-74.75 487.003l122.359 70.131-182.651 104.861-122.359-70.131 182.651-104.861zm-283.348 380.001l173.709 99.788-259.305 149.201-173.709-99.788 259.305-149.201zM1422.67 156.003l114.335 65.723-170.675 98.271-114.335-65.725 170.675-98.269zm-1082.088-122l75.421 43.281-112.585 64.713-75.421-43.281 112.585-64.713zm1823 328l75.421 43.281-112.585 64.714-75.421-43.281 112.585-64.714zm-182 768.999l75.421 43.282-112.585 64.713-75.421-43.281 112.585-64.714z"/></svg>