<svg width="188" height="188" viewBox="0 0 188 188" xmlns="http://www.w3.org/2000/svg"><defs><filter x="-79.3%" y="-79.3%" width="258.7%" height="258.7%" filterUnits="objectBoundingBox" id="a"><feOffset dy="15" in="SourceAlpha" result="shadowOffsetOuter1"/><feGaussianBlur stdDeviation="17.5" in="shadowOffsetOuter1" result="shadowBlurOuter1"/><feColorMatrix values="0 0 0 0 0.231372549 0 0 0 0 0.6 0 0 0 0 0.91372549 0 0 0 0.5 0" in="shadowBlurOuter1" result="shadowMatrixOuter1"/><feMerge><feMergeNode in="shadowMatrixOuter1"/><feMergeNode in="SourceGraphic"/></feMerge></filter></defs><g filter="url(#a)" transform="translate(34 18)" fill="none" fill-rule="evenodd"><path d="M60 .594C84.283.581 106.182 15.2 115.484 37.631c9.3 22.43 4.173 48.256-12.994 65.431-17.166 17.176-42.989 22.317-65.425 13.027C14.63 106.8 0 84.91 0 60.625-.008 27.479 26.854.603 60 .594z" fill="#3B99E9"/><path d="M81 53.126H39a1.5 1.5 0 0 1 0-3h42a1.5 1.5 0 0 1 0 3zm-21-12a7.5 7.5 0 0 0-7.349 6h-3A10.467 10.467 0 0 1 58.5 38.26v-4.64a1.5 1.5 0 0 1 3 0v4.64a10.467 10.467 0 0 1 8.849 8.864h-3A7.5 7.5 0 0 0 60 41.123v.003zM40.5 72.637V57.631a1.5 1.5 0 0 1 3 0v15.006a1.5 1.5 0 0 1-3 0zm6 0V57.631a1.5 1.5 0 0 1 3 0v15.006a1.5 1.5 0 0 1-3 0zm9 0V57.631a1.5 1.5 0 0 1 3 0v15.006a1.5 1.5 0 0 1-3 0zm6 0V57.631a1.5 1.5 0 0 1 3 0v15.006a1.5 1.5 0 0 1-3 0zm9 0V57.631a1.5 1.5 0 0 1 3 0v15.006a1.5 1.5 0 0 1-3 0zm6 0V57.631a1.5 1.5 0 0 1 3 0v15.006a1.5 1.5 0 0 1-3 0zM39 77.138h42a1.5 1.5 0 0 1 0 3H39a1.5 1.5 0 0 1 0-3z" fill="#FFF" fill-rule="nonzero"/></g></svg>