<svg width="2880" height="1235" viewBox="0 0 2880 1235" xmlns="http://www.w3.org/2000/svg"><path d="M2550 12a12 12 0 0 1-9 11.611v192.87a12 12 0 1 1-6 0V23.616A12 12 0 1 1 2550 12zm-18 216.087a6 6 0 1 0 12-.01 6 6 0 0 0-12 .015v-.005zM2538 6a6 6 0 1 0 0 12 6 6 0 0 0 0-12zM330 1223a12.005 12.005 0 0 1 9-11.62v-192.86a12 12 0 1 1 6 0v192.86a12 12 0 1 1-15 11.62zm18-216.09a6 6 0 1 0-12 0 6 6 0 0 0 12 0zM342 1229a6.005 6.005 0 1 0 .01-12.01A6.005 6.005 0 0 0 342 1229zM2880 154.562v10.385a12.034 12.034 0 0 1-5.61-7.384h-36.78a12 12 0 1 1 0-6h36.78a12.034 12.034 0 0 1 5.61-7.384v10.385-.002zm-54-6a6.002 6.002 0 1 0 0 12.004 6.003 6.003 0 0 0 0-12.006v.002zm-255 144.057a12 12 0 0 1 11.61 9h36.78a12 12 0 1 1 0 6h-36.78a12 12 0 1 1-11.61-15zm60 18.007a6 6 0 1 0 0-12 6 6 0 0 0 0 12zm-60 0a6 6 0 1 0 0-12 6 6 0 0 0 0 12zm111 237.1a12 12 0 1 1-11.61 15.006h-192.78a12 12 0 1 1 0-6h192.78a12 12 0 0 1 11.61-9.01v.004zm0 18.007a6 6 0 1 0-6-6 6 6 0 0 0 6 5.996v.004zm-216-12a6 6 0 1 0 6 6 6 6 0 0 0-6-6.009v.009zm25.5-244.6a11.961 11.961 0 0 1-6.09-1.671l-43.58 43.6a12.022 12.022 0 1 1-4.24-4.244l43.58-43.6a11.992 11.992 0 1 1 10.33 5.907v.008zm-60 42.017a6 6 0 1 0 6 6 6 6 0 0 0-6-6.008v.008zm60-60.024a6 6 0 1 0 6 6 6 6 0 0 0-6-6.008v.008zM111 234.1a12.032 12.032 0 1 1-10.329 5.915l-43.584-43.6a12.037 12.037 0 1 1 4.242-4.244l43.584 43.6A11.916 11.916 0 0 1 111 234.1zm0 18.007a6 6 0 1 0-6-6 6 6 0 0 0 6 5.993v.007zm-60-72.034a6 6 0 1 0 0 12 6 6 0 0 0 0-12zm34.5-58.524a12 12 0 1 1-15-11.611V37.122a12 12 0 1 1 6 0v72.816a12 12 0 0 1 9 11.611zm-6-96.039a6 6 0 1 0-12 0 6 6 0 0 0 12 0zm-6 90.037a6 6 0 1 0 0 12 6 6 0 0 0 0-12zm-7.156 210.54l84.038-.186a12.059 12.059 0 0 1 3.144-5.75 11.9 11.9 0 0 1 16.961 0c4.683 4.757 4.683 12.393 0 17.15a11.9 11.9 0 0 1-16.959 0 12.025 12.025 0 0 1-3.03-5.359l-84.16.187a40.9 40.9 0 0 0-29.207 12.266L0 381.941v-8.533l32.909-33.28a46.8 46.8 0 0 1 33.435-14.041zm91.422 6.927a5.95 5.95 0 0 0 8.48 0 6.112 6.112 0 0 0 0-8.576 5.949 5.949 0 0 0-8.48 0 6.113 6.113 0 0 0 0 8.576zM0 1080.44v-10.39a12.06 12.06 0 0 1 5.607 7.39h36.787a12 12 0 1 1 0 6H5.607A12.013 12.013 0 0 1 0 1090.82v-10.38zm54 6a6.005 6.005 0 1 0-6-6 6 6 0 0 0 6 6zm255-144.059a12 12 0 0 1-11.607-9h-36.786a12 12 0 1 1 0-6h36.786a12 12 0 1 1 11.607 15zm-60-18.007a6 6 0 1 0 0 12 6 6 0 0 0 0-12zm60 0a6 6 0 1 0 0 12 6 6 0 0 0 0-12zm-111-237.1a12 12 0 1 1 11.607-15.006h192.786a12 12 0 1 1 0 6H209.607a11.994 11.994 0 0 1-11.607 9.01v-.004zm0-18.007a6 6 0 1 0 6 6 6 6 0 0 0-6-5.996v-.004zm216 12a6 6 0 1 0-6-6 6 6 0 0 0 6 6.009v-.009zm-25.5 244.6c2.142 0 4.245.578 6.087 1.672l43.584-43.6a12.029 12.029 0 1 1 4.243 4.244l-43.585 43.6a11.991 11.991 0 1 1-10.329-5.908v-.008zm60-42.017a6 6 0 1 0-6-6 6 6 0 0 0 6 6.008v-.008zm-60 60.024a6 6 0 1 0-6-6 6 6 0 0 0 6 6.008v-.008zM2769 1000.91a12.038 12.038 0 1 1 10.33-5.921l43.58 43.6a12.057 12.057 0 1 1-4.24 4.25l-43.58-43.607a11.946 11.946 0 0 1-6.09 1.678zm0-18.012a6 6 0 1 0 0 11.996 6 6 0 0 0 0-11.994v-.002zm60 72.032a6.005 6.005 0 1 0 .01-12.01 6.005 6.005 0 0 0-.01 12.01zm-34.5 58.52a12 12 0 1 1 15 11.61v72.82a12 12 0 1 1-6 0v-72.82a12 12 0 0 1-9-11.61zm6 96.04a6 6 0 1 0 12 0 6 6 0 0 0-12 0zm6-90.04a6 6 0 1 0 0-12 6 6 0 0 0 0 12zm7.16-210.536l-84.04.185a12.04 12.04 0 0 1-3.15 5.751 11.9 11.9 0 0 1-16.96 0c-4.68-4.76-4.68-12.392 0-17.151a11.9 11.9 0 0 1 16.96 0 12.023 12.023 0 0 1 3.03 5.358l84.16-.185a40.906 40.906 0 0 0 29.21-12.268l37.13-37.545v8.534l-32.91 33.28a46.814 46.814 0 0 1-33.43 14.041zm-91.43-6.927a5.948 5.948 0 0 0-8.48 0 6.115 6.115 0 0 0 0 8.575 5.947 5.947 0 0 0 8.48 0 6.1 6.1 0 0 0 0-8.575zm81.27-108.166a12.005 12.005 0 1 1-11.61 15.006h-36.78a12.005 12.005 0 1 1 0-6h36.78a12 12 0 0 1 11.61-9.006zm0 18.008a6 6 0 1 0 0-12 6 6 0 0 0 0 12zm-60-12a6 6 0 1 0 6 6 6 6 0 0 0-6-6.005v.005zm40.5-84.039a12 12 0 1 1-15-11.612v-132.84a12 12 0 1 1 6 0v132.84a12 12 0 0 1 9 11.612zm-6-156.063a6 6 0 1 0-12 0 6 6 0 0 0 12 0zm-6 150.06a6 6 0 1 0 0 12 6 6 0 0 0 0-12zm-90 108.044a11.961 11.961 0 0 1-6.09-1.671l-43.58 43.6a12.022 12.022 0 1 1-4.24-4.244l43.58-43.6a11.992 11.992 0 1 1 10.33 5.915zm-60 42.017a6 6 0 1 0 0 12 6 6 0 0 0 0-12zm60-60.024a6 6 0 1 0 0 12 6 6 0 0 0 0-12zm-216-172.57a12 12 0 0 1 11.61 9h87.78a12.005 12.005 0 1 1 0 6h-87.78a12 12 0 1 1-11.61-15zm111 18.007a6 6 0 1 0 0-12 6 6 0 0 0 0 12zm-111 0a6 6 0 1 0 0-12 6 6 0 0 0 0 12zm-102-222.09a12 12 0 1 1 15 11.612v192.864a12 12 0 1 1-6 0V434.783a12 12 0 0 1-9-11.612zm6 216.088a6 6 0 1 0 12 0 6 6 0 0 0-12 0zm6-210.085a6 6 0 1 0 0-12 6 6 0 0 0 0 12zm72-189.074a11.952 11.952 0 0 1-6.09-1.672l-133.37 133.7a41.181 41.181 0 0 0-12.08 29.26V537.6a12 12 0 1 1-5.97.014V401.383a47.126 47.126 0 0 1 13.83-33.494L2437.68 234.2a11.993 11.993 0 1 1 10.32 5.9zm-154.5 303.12a6 6 0 1 0 0 12 6 6 0 0 0 0-12zM2448 222.09a6 6 0 1 0 0 12 6 6 0 0 0 0-12zm-210-61.525a12.005 12.005 0 1 1-11.61 15.006h-87.78a12.005 12.005 0 1 1 0-6h87.78a12 12 0 0 1 11.61-9.006zm0 18.007a6 6 0 1 0 0-12 6 6 0 0 0 0 12zm-111-12a6 6 0 1 0 6 6 6 6 0 0 0-6-6.005v.005zm-24 190.578a11.994 11.994 0 0 1-10.32-18.116l-44.86-45.149a47.133 47.133 0 0 1-13.83-33.5V214.19a12 12 0 1 1 5.97.014v46.181a41.18 41.18 0 0 0 12.08 29.26l44.87 45.161a12 12 0 1 1 6.09 22.339v.005zm-59.95-154.563a6 6 0 1 0-12 .01 6 6 0 0 0 12-.015v.005zm60 136.555a6 6 0 1 0 6 6 6 6 0 0 0-6-6.005v.005zM2022 439.678a12.005 12.005 0 1 1-11.61 15.006h-192.78a12.005 12.005 0 1 1 0-6h192.78a12 12 0 0 1 11.61-9.006zm0 18.007a6 6 0 1 0 0-12 6 6 0 0 0 0 12zm-216-12a6 6 0 1 0 6 6 6 6 0 0 0-6-6.005v.005zm130.5-42.017a11.994 11.994 0 0 1-23.62 2.961h-136.16a41.154 41.154 0 0 0-29.25 12.088l-121.74 121.506-4.23-4.223 121.74-121.51a47.075 47.075 0 0 1 33.48-13.84h136.18a11.991 11.991 0 0 1 23.6 3.013v.005zm-12-6a6 6 0 1 0 6 6 6 6 0 0 0-6-6.007v.007zm4.5-97.539a11.995 11.995 0 0 1-23.61 3h-87.78a12 12 0 1 1 0-6h87.78a11.995 11.995 0 0 1 23.61 2.993v.007zm-123-6a6 6 0 1 0 6 6 6 6 0 0 0-6-6.01v.01zm105 6a6 6 0 1 0 0-.007v.007zm-270-199.588a12 12 0 0 1 11.61 9h57.78a12 12 0 1 1 0 6h-57.78a12 12 0 1 1-11.61-15zm81 18.007a6 6 0 1 0 0-12 6 6 0 0 0 0 12zm-81 0a6 6 0 1 0 0-12 6 6 0 0 0 0 12zM1612.5 241.6a12 12 0 1 1 15 11.611v36.8a12 12 0 1 1-6 0v-36.8a12 12 0 0 1-9-11.611zm6 60.024a6 6 0 1 0 12 .004 6 6 0 0 0-12-.006v.002zm6-54.022a6 6 0 1 0 0-11.996 6 6 0 0 0 0 11.994v.002zm61.5 42.017a12.03 12.03 0 1 1 10.33-5.915l43.58 43.6a12.04 12.04 0 1 1-4.24 4.245l-43.58-43.6a11.961 11.961 0 0 1-6.09 1.668v.002zm0-18.007a6.002 6.002 0 1 0 0 12.004 6.003 6.003 0 0 0 0-12.006v.002zm60 72.029a6 6 0 1 0 0-11.996 6 6 0 0 0 0 11.994v.002zm-80.96 63.806v-46.184a12 12 0 1 1 5.97-.013v46.195a47.128 47.128 0 0 1-13.83 33.494l-46.46 46.761-4.22-4.235 46.46-46.758a41.18 41.18 0 0 0 12.08-29.262v.002zm2.96-51.8a6 6 0 1 0-6-6 6 6 0 0 0 6 5.997v.003zm-154.5 676.773a12.006 12.006 0 0 1 11.61 9h66.78a12.01 12.01 0 1 1 0 6h-66.78a12 12 0 1 1-11.61-15zm90 18.01a6.005 6.005 0 1 0 .01-12.01 6.005 6.005 0 0 0-.01 12.01zm-90 0a6.005 6.005 0 1 0 .01-12.01 6.005 6.005 0 0 0-.01 12.01zm279 96.03a12 12 0 0 1-11.61-9h-255.78a12.01 12.01 0 1 1 0-6h255.78a12 12 0 1 1 11.61 15zm-279-18a6 6 0 1 0 0 12 6 6 0 0 0 0-12zm279 0a6 6 0 1 0 0 12 6 6 0 0 0 0-12zm118.74-94.86L1777.6 900.182a12.016 12.016 0 1 1 4.23-4.232l133.64 133.42a41.135 41.135 0 0 0 29.25 12.09h136.16a12.019 12.019 0 1 1 .02 5.98h-136.18a47.1 47.1 0 0 1-33.48-13.84zM1771.5 883.858a6 6 0 1 0 0 12 6 6 0 0 0 0-12zm321 166.572a6.005 6.005 0 1 0 .01-12.01 6.005 6.005 0 0 0-.01 12.01zm225 96.03a12 12 0 0 1-11.61-9h-297.78a12.01 12.01 0 1 1 0-6h297.78a12 12 0 1 1 11.61 15zm-321-18a6 6 0 1 0 0 12 6 6 0 0 0 0-12zm321 0a6 6 0 1 0 0 12 6 6 0 0 0 0-12zM2235 705.286a12 12 0 1 1-22.32-6.111l-44.86-45.148a47.134 47.134 0 0 1-13.83-33.5v-46.191a12 12 0 1 1 5.97.014v46.181a41.176 41.176 0 0 0 12.08 29.259l44.88 45.161a11.979 11.979 0 0 1 18.08 10.335zm-71.95-142.558a6 6 0 1 0-12 0 6 6 0 0 0 12 0zm54 142.558a6 6 0 1 0 12 0 6 6 0 0 0-12 0zM2094 645.261a12 12 0 1 1-15-11.611v-36.8a12 12 0 1 1 6 0v36.8a12 12 0 0 1 9 11.611zm-6-60.024a6 6 0 1 0-12 0 6 6 0 0 0 12 0zm-6 54.022a6 6 0 1 0 0 12 6 6 0 0 0 0-12zm-189 75.03a12 12 0 0 1 11.61 9h192.78a12.005 12.005 0 1 1 0 6h-192.78a12 12 0 1 1-11.61-15zm216 18.011a6 6 0 1 0 0-12 6 6 0 0 0 0 12zm-216 0a6 6 0 1 0 0-12 6 6 0 0 0 0 12zm-19.5 163.567a12.005 12.005 0 1 1 11.61-15.006h87.78a12.005 12.005 0 1 1 0 6h-87.78a12 12 0 0 1-11.61 9.002v.004zm0-18.008a6 6 0 1 0 6 6 6 6 0 0 0-6-6.004v.004zm111 12a6.001 6.001 0 1 0 0-12.002 6.002 6.002 0 0 0 0 12.003v-.001zm75 81.033a12 12 0 0 1-11.61-9h-87.78a12.005 12.005 0 1 1 0-6h87.78a12 12 0 1 1 11.61 15.001v-.001zm-111-18.007a6 6 0 1 0 0 11.998 6 6 0 0 0 0-11.997v-.001zm111 0a6 6 0 1 0 0 11.998 6 6 0 0 0 0-11.997v-.001zm-36.53-135.344a11.9 11.9 0 0 1-16.96 0c-4.68-4.76-4.68-12.392 0-17.152a11.9 11.9 0 0 1 16.96 0 12.029 12.029 0 0 1 3.15 5.749l84.04.186a46.817 46.817 0 0 1 33.43 14.04l53.83 54.437a11.88 11.88 0 0 1 14.55 1.87c4.69 4.754 4.69 12.395 0 17.149a11.9 11.9 0 0 1-16.96 0 12.212 12.212 0 0 1-1.8-14.74l-53.84-54.447a40.9 40.9 0 0 0-29.21-12.267l-84.16-.186a12.023 12.023 0 0 1-3.03 5.362v-.001zm-4.24-12.862a5.949 5.949 0 0 0-8.48 0 6.115 6.115 0 0 0 0 8.575 5.949 5.949 0 0 0 8.48 0 6.1 6.1 0 0 0 0-8.574v-.001zm180.52 84.858a5.951 5.951 0 0 0 8.48 0 6.1 6.1 0 0 0 0-8.577 5.951 5.951 0 0 0-8.48 0 6.117 6.117 0 0 0 0 8.578v-.001zm-109.75 6.325a12.031 12.031 0 1 1 10.33-5.916l43.58 43.6a12.04 12.04 0 1 1-4.24 4.245l-43.58-43.6a11.962 11.962 0 0 1-6.09 1.672v-.001zm0-18.008a6 6 0 1 0 0 11.998 6 6 0 0 0 0-11.997v-.001zm60 72.03a6.001 6.001 0 1 0 0-12.002 6.002 6.002 0 0 0 0 12.003v-.001zm-538.78-231.091l46.46 46.757a47.13 47.13 0 0 1 13.83 33.5v46.193a12 12 0 1 1-5.97-.013v-46.18a41.181 41.181 0 0 0-12.08-29.26l-46.46-46.759 4.22-4.238zm51.23 138.054a6 6 0 1 0 12 0 6 6 0 0 0-12 0zm36.05 87.035a12.03 12.03 0 1 1 10.33-5.915l43.58 43.6a12.036 12.036 0 1 1-4.24 4.244l-43.58-43.6a11.961 11.961 0 0 1-6.09 1.671zm0-18.007a6 6 0 1 0 0 12 6 6 0 0 0 0-12zm60 72.029a6 6 0 1 0-6-6 6 6 0 0 0 6 5.996v.004zm-148.84-26.469l-84.16-.187a12.026 12.026 0 0 1-3.03 5.359 11.9 11.9 0 0 1-16.96 0c-4.68-4.76-4.68-12.392 0-17.152a11.9 11.9 0 0 1 16.96 0 12.035 12.035 0 0 1 3.15 5.751l84.04.186a46.8 46.8 0 0 1 33.43 14.039l53.83 54.437a11.879 11.879 0 0 1 14.55 1.87c4.69 4.755 4.69 12.395 0 17.15a11.909 11.909 0 0 1-16.96 0 12.212 12.212 0 0 1-1.8-14.74l-53.84-54.448a40.9 40.9 0 0 0-29.21-12.265zm-91.43-7.691a5.949 5.949 0 0 0-8.48 0 6.115 6.115 0 0 0 0 8.575 5.949 5.949 0 0 0 8.48 0 6.1 6.1 0 0 0 0-8.575zm180.52 84.856a5.946 5.946 0 0 0 8.48 0 6.09 6.09 0 0 0 0-8.57 5.946 5.946 0 0 0-8.48 0 6.109 6.109 0 0 0 0 8.57zm226.25-251.777a12 12 0 1 1-11.6 15.016h-136.18A47.073 47.073 0 0 1 1743.24 798L1621.5 676.493l4.23-4.224 121.74 121.51a41.159 41.159 0 0 0 29.25 12.089h136.16a12 12 0 0 1 11.62-9.045zm0 18.007a6 6 0 1 0 0-12 6 6 0 0 0 0 12zm-132-118.548a12 12 0 1 1 15 11.611v36.8a12 12 0 1 1-6 0v-36.8a12 12 0 0 1-9-11.611zm6 60.024a6 6 0 1 0 12 0 6 6 0 0 0-12 0zm6-54.022a6 6 0 1 0 0-12 6 6 0 0 0 0 12zm15-108.043a12 12 0 1 1-11.61 15.006H1642.5v-6h165.39a12 12 0 0 1 11.61-9.006zm0 18.007a6 6 0 1 0 0-12 6 6 0 0 0 0 12zm-90 42.017a12.005 12.005 0 1 1-11.61 15.006h-90.39v-6h90.39a12 12 0 0 1 11.61-9.006zm0 18.007a6 6 0 1 0 0-12 6 6 0 0 0 0 12zm17.22-172.58h31.18a11.99 11.99 0 1 1-.02 5.974h-31.16a41.159 41.159 0 0 0-29.25 12.085l-76.74 76.5-4.23-4.225 76.74-76.492a47.081 47.081 0 0 1 33.48-13.842zm42.78 9.014a6 6 0 1 0 0-12 6 6 0 0 0 0 12zm217.5 124.55a12.005 12.005 0 1 1-11.61 15.006h-87.78a12.005 12.005 0 1 1 0-6h87.78a12 12 0 0 1 11.61-9.006zm0 18.008a6 6 0 1 0 0-12 6 6 0 0 0 0 12zm-111-12a6 6 0 1 0 6 6 6 6 0 0 0-6-6.005v.005zm64.5-66.027a12.031 12.031 0 1 1-10.33 5.916l-43.58-43.6a12.036 12.036 0 1 1 4.24-4.244l43.58 43.6a11.962 11.962 0 0 1 6.09-1.677v.005zm0 18.007a6 6 0 1 0-6-6 6 6 0 0 0 6 5.995v.005zm-60-72.029a6 6 0 1 0 6 6 6 6 0 0 0-6-6.005v.005zM2172 349.642a12 12 0 1 1-6.09 22.338l-43.58 43.6a12.022 12.022 0 1 1-4.24-4.244l43.58-43.6a11.989 11.989 0 0 1 10.33-18.094zm0 18.007a6 6 0 1 0 0-12 6 6 0 0 0 0 12zm-60 48.019a6 6 0 1 0 0 12 6 6 0 0 0 0-12zm90.51 2.084a11.9 11.9 0 0 1 16.96 0c4.69 4.755 4.69 12.395 0 17.15a11.883 11.883 0 0 1-14.55 1.869l-53.83 54.435a46.8 46.8 0 0 1-33.43 14.041l-84.04.187a12.045 12.045 0 0 1-3.15 5.751 11.9 11.9 0 0 1-16.96 0c-4.68-4.76-4.68-12.392 0-17.152a11.888 11.888 0 0 1 19.99 5.36l84.16-.186a40.9 40.9 0 0 0 29.21-12.267l53.84-54.447a12.217 12.217 0 0 1 1.8-14.741zm4.24 12.865a5.951 5.951 0 0 0 8.48 0 6.1 6.1 0 0 0 0-8.576 5.949 5.949 0 0 0-8.48 0 6.116 6.116 0 0 0 0 8.576zm-180.52 67.707a5.948 5.948 0 0 0-8.48 0 6.115 6.115 0 0 0 0 8.575 5.947 5.947 0 0 0 8.48 0 6.1 6.1 0 0 0 0-8.575zm690.27 603.126a12.005 12.005 0 1 1-11.6 15.01h-136.18a47.087 47.087 0 0 1-33.48-13.83l-73.63-73.4a11.876 11.876 0 0 1-6.11 1.69 12.037 12.037 0 1 1 10.33-5.92l73.64 73.4a41.135 41.135 0 0 0 29.25 12.09h136.16a11.993 11.993 0 0 1 11.62-9.04zm0 18a6 6 0 1 0 0-12 6 6 0 0 0 0 12zm-261-106.54a6 6 0 1 0 0 12 6 6 0 0 0 0-12zm231 1.5a12.005 12.005 0 1 1-11.61 15.01h-87.78a12.005 12.005 0 1 1 0-6.01h87.78a12.006 12.006 0 0 1 11.61-9zm0 18.01a6.005 6.005 0 1 0-6-6 6 6 0 0 0 6 6zm-111-12.01a6.005 6.005 0 1 0-.01 12.01 6.005 6.005 0 0 0 .01-12.01zm-147.53-159.994a12.035 12.035 0 0 1 3.15 5.751l84.04.186a46.806 46.806 0 0 1 33.43 14.041l53.83 54.435a11.884 11.884 0 0 1 14.55 1.869c4.69 4.755 4.69 12.396 0 17.151a11.9 11.9 0 0 1-16.96 0 12.216 12.216 0 0 1-1.8-14.743l-53.84-54.446a40.91 40.91 0 0 0-29.21-12.268l-84.16-.186a11.888 11.888 0 0 1-19.99 5.361c-4.68-4.76-4.68-12.392 0-17.152a11.9 11.9 0 0 1 16.96.001zm176.28 89.145a5.949 5.949 0 0 0 8.48 0 6.1 6.1 0 0 0 0-8.575 5.949 5.949 0 0 0-8.48 0 6.115 6.115 0 0 0 0 8.575zm-189-76.281a5.949 5.949 0 0 0 8.48 0 6.1 6.1 0 0 0 0-8.574 5.948 5.948 0 0 0-8.48 0 6.116 6.116 0 0 0 0 8.574zm70.25 58.6a12.005 12.005 0 1 1-11.61 15.006h-192.78a12.005 12.005 0 1 1 0-6h192.78a12 12 0 0 1 11.61-9.009v.003zm0 18.008a6 6 0 1 0-6-6 6 6 0 0 0 6 5.997v.003zm-216-12a6 6 0 1 0 6 6 6 6 0 0 0-6-6.008v.008zm40.5-105.051a12.033 12.033 0 1 1-10.33 5.917l-43.58-43.6a12.036 12.036 0 1 1 4.24-4.244l43.58 43.6a11.962 11.962 0 0 1 6.09-1.673zm0 18.007a6 6 0 1 0 0-12 6 6 0 0 0 0 12zm-60-72.029a6 6 0 1 0 0 12 6 6 0 0 0 0-12zm95.28 268.565h-136.16a12.014 12.014 0 1 1-.02-5.97h136.18a47.055 47.055 0 0 1 33.48 13.84l133.64 133.41a12.043 12.043 0 1 1-4.23 4.24l-133.64-133.43a41.176 41.176 0 0 0-29.25-12.09zm-147.78-8.96a6.005 6.005 0 1 0 6 6 6 6 0 0 0-6-6zm321 166.57a6.005 6.005 0 1 0 .01-12.01 6.005 6.005 0 0 0-.01 12.01zm-702-148.56a12.037 12.037 0 1 1 10.33-5.92l73.58 73.62a12.023 12.023 0 1 1-4.24 4.24l-73.58-73.61a12.01 12.01 0 0 1-6.09 1.67zm0-18.01a6.005 6.005 0 1 0 6 6 6 6 0 0 0-6-6zm90 102.04a6 6 0 1 0 0-12 6 6 0 0 0 0 12zm-303-259.6a12 12 0 1 1-11.61 15.006h-66.78a12 12 0 1 1 0-6h66.78a12 12 0 0 1 11.61-9.009v.003zm-90 6a6.001 6.001 0 1 0 0 12.002 6.002 6.002 0 0 0 0-12.003v.001zm90 12a6 6 0 1 0-6-6 6 6 0 0 0 6 6.004v-.004zm-48.32-510.447l-31.46 31.752-4.22-4.234 31.46-31.751a41.181 41.181 0 0 0 12.08-29.259V278.73a12 12 0 1 1 5.97-.013v76.208a47.121 47.121 0 0 1-13.83 33.492v-.004zM1572 267.108a6 6 0 1 0-12 0 6 6 0 0 0 12 0zm-132-43.518a12 12 0 0 1 3 23.617v195.472h-6V247.207a12 12 0 0 1 3-23.617zm0 18.008a6.002 6.002 0 1 0 0-12.004 6.003 6.003 0 0 0 0 12.006v-.002zm3 565.729v180.466a12 12 0 1 1-6 0V807.327h6zm-9 192.078a6 6 0 1 0 12 0 6 6 0 0 0-12 0zm-49.75-118.034a11.881 11.881 0 0 1 0 16.966 12.158 12.158 0 0 1-5.77 3.172l-.18 84.047a46.756 46.756 0 0 1-14.09 33.444l-54.61 53.88a11.833 11.833 0 0 1-1.85 14.53c-4.774 4.69-12.426 4.69-17.2 0a11.874 11.874 0 0 1 0-16.96 12.277 12.277 0 0 1 14.8-1.82l54.59-53.85a40.9 40.9 0 0 0 12.3-29.217l.18-84.149a12.181 12.181 0 0 1-5.37-3.077 11.881 11.881 0 0 1 0-16.966c4.776-4.685 12.424-4.685 17.2 0zm-80.8 193.319a6.145 6.145 0 0 0-8.6 0 5.928 5.928 0 0 0 0 8.48 6.127 6.127 0 0 0 8.6 0 5.946 5.946 0 0 0 0-8.48zm67.9-189.076a5.931 5.931 0 0 0 0 8.482 6.141 6.141 0 0 0 8.6 0 5.952 5.952 0 0 0 0-8.485 6.138 6.138 0 0 0-8.6.003zM1332 955.887a12 12 0 1 1-15.01-11.608v-76.206a47.134 47.134 0 0 1 13.83-33.5l37.46-37.754 4.22 4.235-37.46 37.753a41.184 41.184 0 0 0-12.08 29.262v76.192a12 12 0 0 1 9.04 11.626zm-12-6a6.002 6.002 0 1 0 0 12.004 6.003 6.003 0 0 0 0-12.006v.002zm48-618.251a12 12 0 0 1-11.61-9h-66.78a12 12 0 1 1 0-6h66.78a12 12 0 1 1 11.61 14.998v.002zm-90-18.007a6.002 6.002 0 1 0 0 12.004 6.003 6.003 0 0 0 0-12.006v.002zm90 0a6.002 6.002 0 1 0 0 12.004 6.003 6.003 0 0 0 0-12.006v.002zm-1.5-111.045a12 12 0 0 1-11.61-9h-66.78a12.005 12.005 0 1 1 0-6h66.78a12 12 0 1 1 11.61 14.998v.002zm-90-18.007a6.002 6.002 0 1 0 0 12.004 6.003 6.003 0 0 0 0-12.006v.002zm90 0a6.002 6.002 0 1 0 0 12.004 6.003 6.003 0 0 0 0-12.006v.002zm-279-96.039a12 12 0 0 1 11.61 9h255.78a12.005 12.005 0 1 1 0 6h-255.78a12 12 0 1 1-11.61-15.002v.002zm279 18.007a6 6 0 1 0 0-11.996 6 6 0 0 0 0 11.994v.002zm-279 0a6 6 0 1 0 0-11.996 6 6 0 0 0 0 11.994v.002zM968.761 201.4l133.629 133.418a12.039 12.039 0 1 1-4.22 4.233L964.528 205.626a41.143 41.143 0 0 0-29.249-12.088H799.117a12 12 0 1 1-.013-5.973h136.175a47.091 47.091 0 0 1 33.482 13.835zM1108.5 351.142a6 6 0 1 0 0-12 6 6 0 0 0 0 12zm-321-166.567a6 6 0 1 0 0 12 6 6 0 0 0 0-12zm-225-96.039a12 12 0 0 1 11.607 9h297.786a12.005 12.005 0 1 1 0 6H574.107a12 12 0 1 1-11.607-15zm321 18.007a6 6 0 1 0 0-12 6 6 0 0 0 0 12zm-321 0a6 6 0 1 0 0-12 6 6 0 0 0 0 12zm-399 27.011a12.005 12.005 0 1 1 11.6-15.018h136.18a47.091 47.091 0 0 1 33.481 13.84l73.631 73.391a12.036 12.036 0 1 1-4.223 4.233l-73.641-73.4a41.142 41.142 0 0 0-29.248-12.09H175.117a11.994 11.994 0 0 1-11.617 9.044zm261 88.536a6 6 0 1 0 0-12 6 6 0 0 0 0 12zm-261-106.543a6 6 0 1 0 0 12 6 6 0 0 0 0-12zM198 417.169c2.142 0 4.245.578 6.087 1.672l43.584-43.6a12.031 12.031 0 1 1 4.242 4.243l-43.584 43.6A11.991 11.991 0 1 1 198 417.169zm60-42.017a6 6 0 1 0 0-12 6 6 0 0 0 0 12zm-60 60.024a6 6 0 1 0 0-12 6 6 0 0 0 0 12zm216 172.57a12 12 0 0 1-11.607-9h-87.786a12.005 12.005 0 1 1 0-6h87.786a12 12 0 1 1 11.607 15zm-111-18.007a6 6 0 1 0 0 12 6 6 0 0 0 0-12zm111 0a6 6 0 1 0 0 12 6 6 0 0 0 0-12zm102 222.09a12 12 0 1 1-15-11.612V607.353a12 12 0 1 1 6 0v192.864a12 12 0 0 1 9 11.612zm-6-216.088a6 6 0 1 0-12 0 6 6 0 0 0 12 0zm-6 210.085a6 6 0 1 0 0 12 6 6 0 0 0 0-12zM432 994.9c2.142 0 4.245.578 6.087 1.672l133.37-133.7a41.179 41.179 0 0 0 12.084-29.261V697.4a12 12 0 1 1 5.97-.014v136.231a47.127 47.127 0 0 1-13.833 33.5L442.318 1000.8A11.991 11.991 0 1 1 432 994.9zm154.5-303.12a6 6 0 1 0 0-12 6 6 0 0 0 0 12zM432 1012.91a6 6 0 1 0 0-12 6 6 0 0 0 0 12zm198-574.733a12.035 12.035 0 1 1-10.329 5.917l-43.585-43.6a12.034 12.034 0 1 1 4.243-4.244l43.585 43.6a11.923 11.923 0 0 1 6.086-1.673zm0 18.008a6 6 0 1 0 0-12 6 6 0 0 0 0 12zm-60-72.029a6 6 0 1 0 0 12 6 6 0 0 0 0-12zM394.5 279.113a12 12 0 0 1 11.607 9h192.786a12.005 12.005 0 1 1 0 6H406.107a12 12 0 1 1-11.607-15zm216 18.007a6 6 0 1 0 0-12 6 6 0 0 0 0 12zm-216 0a6 6 0 1 0 0-12 6 6 0 0 0 0 12zm-101.607-85.534h-87.786a12 12 0 1 1 0-6h87.786a12 12 0 1 1 0 6zm-99.393-9a6 6 0 1 0 6 6 6 6 0 0 0-6-6.004v.004zm117 6a6 6 0 1 0-12 .004 6 6 0 0 0 12-.006v.002zm54.337 154.022l84.163.185a12.036 12.036 0 0 1 3.03-5.359 11.9 11.9 0 0 1 16.959 0c4.684 4.758 4.684 12.393 0 17.151a11.9 11.9 0 0 1-16.961 0 12.062 12.062 0 0 1-3.144-5.751l-84.038-.185a46.805 46.805 0 0 1-33.435-14.041l-53.83-54.435a11.889 11.889 0 0 1-14.553-1.87c-4.683-4.758-4.683-12.392 0-17.15a11.9 11.9 0 0 1 16.959 0 12.2 12.2 0 0 1 1.8 14.742l53.842 54.447a40.892 40.892 0 0 0 29.208 12.264v.002zm91.429 7.69a5.948 5.948 0 0 0 8.48 0 6.112 6.112 0 0 0 0-8.576 5.949 5.949 0 0 0-8.48 0 6.112 6.112 0 0 0 0 8.578v-.002zm-180.52-84.857a5.951 5.951 0 0 0-8.48 0 6.114 6.114 0 0 0 0 8.576 5.949 5.949 0 0 0 8.48 0 6.112 6.112 0 0 0 0-8.578v.002zM642 1074.43a12 12 0 1 1 11.607-15h87.786a12 12 0 1 1 0 6h-87.786a11.986 11.986 0 0 1-11.607 9zm0-18a6 6 0 1 0 0 12 6 6 0 0 0 0-12zm111 12a6 6 0 1 0 0-12 6 6 0 0 0 0 12zm24-190.575a11.988 11.988 0 0 1 10.315 18.117l44.864 45.149a47.132 47.132 0 0 1 13.832 33.5v46.194a12.006 12.006 0 1 1-5.971-.01v-46.189a41.173 41.173 0 0 0-12.083-29.26L783.085 900.2A12 12 0 1 1 777 877.855zm59.953 154.565a6 6 0 1 0 12 0 6 6 0 0 0-12 0zm-60-136.557a6 6 0 1 0 0-12 6 6 0 0 0 0 12zm130.547-246.1a12 12 0 1 1 22.329 6.089l43.585 43.6a12.038 12.038 0 1 1-4.243 4.245l-43.584-43.6a11.982 11.982 0 0 1-18.087-10.334zm72 66.027a6 6 0 1 0 0-12 6 6 0 0 0 0 12zm-54-66.027a6 6 0 1 0-12 0 6 6 0 0 0 12 0zm31.5 147.06a11.993 11.993 0 0 1 11.617 9.045h136.163a41.159 41.159 0 0 0 29.25-12.089l121.74-121.51 4.23 4.224L1138.26 798a47.073 47.073 0 0 1-33.48 13.837H968.6a12 12 0 1 1-11.6-15.014zm0 18.007a6 6 0 1 0 0-12 6 6 0 0 0 0 12zm-6 120.048a11.993 11.993 0 0 1 23.607-3h87.783a12 12 0 1 1 0 6h-87.783a11.993 11.993 0 0 1-23.607-3zm123 6a6 6 0 1 0-4.244-1.755 6 6 0 0 0 4.244 1.758v-.003zm-105-6a6 6 0 1 0-12 0 6 6 0 0 0 12 0zm270 199.582a12.006 12.006 0 0 1-11.61-9h-57.78a12.005 12.005 0 1 1 0-6.01h57.78a12 12 0 1 1 11.61 15.01zm-81-18.01a6.005 6.005 0 1 0 6 6 6 6 0 0 0-6-6zm81 0a6.005 6.005 0 1 0 6 6 6 6 0 0 0-6-6zm-24-153.06a12.031 12.031 0 1 1-10.33 5.916l-43.58-43.6a12.04 12.04 0 1 1 4.24-4.245l43.58 43.6a11.962 11.962 0 0 1 6.09-1.671zm0 18.007a6 6 0 1 0-4.244-1.755A6 6 0 0 0 1215 981.4v-.003zm-60-72.029a6 6 0 1 0 0 12 6 6 0 0 0 0-12zm61.46-104.321v46.181a12 12 0 1 1-5.97.013v-46.194a47.128 47.128 0 0 1 13.83-33.5l46.46-46.759 4.22 4.237-46.46 46.756a41.184 41.184 0 0 0-12.08 29.266zm-2.96 51.8a6 6 0 1 0 0 12 6 6 0 0 0 0-12zm64.5-490.7a12.005 12.005 0 1 1-12 12c0-6.627 5.373-11.999 12-11.999v-.001zm.05 18.008a6.001 6.001 0 1 0 0-12.002 6.002 6.002 0 0 0 0 12.003v-.001zm-7.27 109.545l-46.46-46.757a47.131 47.131 0 0 1-13.83-33.5v-46.191a12 12 0 1 1 5.97.014v46.18a41.176 41.176 0 0 0 12.08 29.26l46.46 46.758-4.22 4.236zm-51.23-138.055a6 6 0 1 0-12 .002 6 6 0 0 0 12-.003v.001zm-96.05 97.539a12.005 12.005 0 1 1-6.09 22.339l-43.58 43.6a12.022 12.022 0 1 1-4.24-4.244l43.58-43.6a11.99 11.99 0 0 1 10.33-18.096v.001zm0 18.008a6 6 0 1 0 0-11.998 6 6 0 0 0 0 11.997v.001zm-60 48.019a6.001 6.001 0 1 0 0 12.002 6.002 6.002 0 0 0 0-12.003v.001zm88.5 39.016a12.005 12.005 0 1 1 11.61-15.006H1254v6h-90.39a12 12 0 0 1-11.61 9.005v.001zm0-18.007a6.001 6.001 0 1 0 0 12.002 6.002 6.002 0 0 0 0-12.003v.001zm-48.38 166.608h31.16a41.158 41.158 0 0 0 29.25-12.088l76.74-76.491 4.23 4.224-76.74 76.49a47.082 47.082 0 0 1-33.48 13.838h-31.18a11.992 11.992 0 1 1 .02-5.974v.001zm-17.62 2.96a6 6 0 1 0 12 .002 6 6 0 0 0-12-.003v.001zm-24-91.537a12 12 0 1 1 11.61-15.006H1254v6h-180.39a12 12 0 0 1-11.61 9.005v.001zm0-18.007a6.001 6.001 0 1 0 0 12.002 6.002 6.002 0 0 0 0-12.003v.001zm76.26-185.753L1260 536l-4.23 4.224-121.74-121.512a41.154 41.154 0 0 0-29.25-12.088H968.617a12 12 0 1 1-.013-5.974h136.176a47.075 47.075 0 0 1 33.48 13.84v.001zM957 397.661a6 6 0 1 0 0 12 6 6 0 0 0 0-12zm49.5-58.524a12.005 12.005 0 1 1-11.607 15.006h-87.786a12.005 12.005 0 1 1 0-6h87.786a12 12 0 0 1 11.607-9.006zm0 18.008a6 6 0 1 0 0-12 6 6 0 0 0 0 12zm-111-12a6 6 0 1 0 6 6 6 6 0 0 0-6-6.005v.005zm-75-81.033a12 12 0 0 1 11.607 9h87.786a12.005 12.005 0 1 1 0 6h-87.786a12 12 0 1 1-11.607-15.005v.005zm111 18.007a6 6 0 1 0-6-6 6 6 0 0 0 6 5.995v.005zm-111 0a6 6 0 1 0-6-6 6 6 0 0 0 6 5.995v.005zM645 529.714a12 12 0 1 1 22.316 6.111l44.863 45.149a47.136 47.136 0 0 1 13.832 33.5v46.194a12 12 0 1 1-5.971-.014V614.47a41.17 41.17 0 0 0-12.083-29.259l-44.873-45.162A11.982 11.982 0 0 1 645 529.714zm71.953 142.558a6 6 0 1 0 12 0 6 6 0 0 0-12 0zm-54-142.558a6 6 0 1 0-12 0 6 6 0 0 0 12 0zM984 601.744a12 12 0 0 1-11.607-9h-87.786a12.005 12.005 0 1 1 0-6h87.786a12 12 0 1 1 11.607 15zm-111-18.008a6 6 0 1 0 0 12 6 6 0 0 0 0-12zm111 0a6 6 0 1 0 0 12 6 6 0 0 0 0-12zm-213-63.025a12.005 12.005 0 1 1 11.607-15.006h192.786a12.005 12.005 0 1 1 0 6H782.607A12 12 0 0 1 771 520.711zm0-18.007a6 6 0 1 0 6 6 6 6 0 0 0-6-6.004v.004zm216 12a6 6 0 1 0-6-6 6 6 0 0 0 6 6.004v-.004zm-201 75.035a12 12 0 1 1 15 11.611v36.8a12 12 0 1 1-6 0v-36.8a12 12 0 0 1-9-11.611zm6 60.024a6 6 0 1 0 12 0 6 6 0 0 0-12 0zm6-54.022a6 6 0 1 0 0-12 6 6 0 0 0 0 12zm-90 289.617a12 12 0 1 1 6.086-22.338l43.585-43.6a12.027 12.027 0 1 1 4.243 4.245l-43.585 43.6A11.988 11.988 0 0 1 708 885.358zm0-18.007a6 6 0 1 0 0 12 6 6 0 0 0 0-12zm60-48.019a6 6 0 1 0 0-12 6 6 0 0 0 0 12zm-90.514-2.085a11.9 11.9 0 0 1-16.959 0c-4.683-4.757-4.683-12.392 0-17.149a11.885 11.885 0 0 1 14.553-1.869l53.83-54.437a46.813 46.813 0 0 1 33.435-14.041l84.039-.185a12.052 12.052 0 0 1 3.143-5.751 11.9 11.9 0 0 1 16.961 0c4.684 4.758 4.684 12.393 0 17.151a11.9 11.9 0 0 1-16.959 0 12.022 12.022 0 0 1-3.03-5.358l-84.16.186a40.9 40.9 0 0 0-29.208 12.268l-53.842 54.447a12.2 12.2 0 0 1-1.803 14.738zm-4.24-12.864a5.951 5.951 0 0 0-8.48 0 6.114 6.114 0 0 0 0 8.576 5.951 5.951 0 0 0 8.48 0 6.112 6.112 0 0 0 0-8.576zm180.52-67.706a5.948 5.948 0 0 0 8.48 0 6.111 6.111 0 0 0 0-8.575 5.947 5.947 0 0 0-8.48 0 6.112 6.112 0 0 0 0 8.575zm3.261-319.219a11.9 11.9 0 0 1 16.959 0c4.683 4.759 4.683 12.394 0 17.153a11.9 11.9 0 0 1-16.961 0 12.054 12.054 0 0 1-3.143-5.749l-84.039-.187a46.805 46.805 0 0 1-33.435-14.041L682.579 360.2a11.887 11.887 0 0 1-14.553-1.87c-4.683-4.758-4.683-12.392 0-17.15a11.9 11.9 0 0 1 16.959 0 12.2 12.2 0 0 1 1.8 14.741l53.842 54.446a40.9 40.9 0 0 0 29.208 12.268l84.165.182a12.036 12.036 0 0 1 3.027-5.359zm4.239 12.863a5.951 5.951 0 0 0 8.48 0 6.112 6.112 0 0 0 0-8.576 5.948 5.948 0 0 0-8.479 0 6.113 6.113 0 0 0-.001 8.576zm-180.52-84.858a5.949 5.949 0 0 0-8.48 0 6.113 6.113 0 0 0 0 8.575 5.947 5.947 0 0 0 8.48 0 6.111 6.111 0 0 0 0-8.575zm109.754-6.326a12.034 12.034 0 1 1-10.329 5.916l-43.584-43.6a12.036 12.036 0 1 1 4.242-4.244l43.584 43.6a11.926 11.926 0 0 1 6.087-1.672zm0 18.008a6 6 0 1 0 0-12 6 6 0 0 0 0 12zm-60-72.03a6 6 0 1 0 0 12 6 6 0 0 0 0-12zm451.5 6a12.031 12.031 0 1 1-10.33 5.916l-43.58-43.6a12.036 12.036 0 1 1 4.24-4.244l43.58 43.6a11.952 11.952 0 0 1 6.09-1.669v-.003zm0 18.007a6 6 0 1 0-4.244-1.755 6 6 0 0 0 4.244 1.758v-.003zm-60-72.022a6 6 0 1 0 0 12 6 6 0 0 0 0-12zm148.84 26.47l84.16.187a11.888 11.888 0 0 1 19.99-5.36c4.68 4.76 4.68 12.392 0 17.152a11.9 11.9 0 0 1-16.96 0 12.032 12.032 0 0 1-3.15-5.75l-84.04-.186a46.809 46.809 0 0 1-33.43-14.04l-53.83-54.436a11.88 11.88 0 0 1-14.55-1.87c-4.69-4.754-4.69-12.395 0-17.149a11.9 11.9 0 0 1 16.96 0 12.212 12.212 0 0 1 1.8 14.74l53.84 54.448a40.9 40.9 0 0 0 29.21 12.26v.004zm91.43 7.691a5.951 5.951 0 0 0 8.48 0 6.116 6.116 0 0 0 0-8.576 5.951 5.951 0 0 0-8.48 0 6.1 6.1 0 0 0 0 8.572v.004zM1181.75 186.4a5.949 5.949 0 0 0-8.48 0 6.1 6.1 0 0 0 0 8.575 5.948 5.948 0 0 0 8.48 0 6.115 6.115 0 0 0 0-8.575zm-181.25 924.05a12.006 12.006 0 0 1 11.61 9h57.78a12.005 12.005 0 1 1 0 6.01h-57.78a12 12 0 1 1-11.61-15.01zm81 18.01a6.005 6.005 0 1 0 .01-12.01 6.005 6.005 0 0 0-.01 12.01zm-81 0a6.005 6.005 0 1 0 .01-12.01 6.005 6.005 0 0 0-.01 12.01zm-22.5-84.04a12.005 12.005 0 1 1 11.607-15h192.783a12 12 0 1 1 0 6H989.607a12 12 0 0 1-11.607 9zm216-6a6 6 0 1 0 0-12 6 6 0 0 0 0 12zm-216-12a6 6 0 1 0 0 12 6 6 0 0 0 0-12zm-57 81.03a12 12 0 1 1 15 11.61v36.8a12 12 0 1 1-6 0v-36.8a11.994 11.994 0 0 1-9-11.61zm6 60.02a6 6 0 1 0 12 0 6 6 0 0 0-12 0zm6-54.02a6 6 0 1 0 0-12 6 6 0 0 0 0 12zm-94.5-252.1a12.035 12.035 0 1 1 10.329-5.917l43.585 43.6a12.038 12.038 0 1 1-4.243 4.245l-43.585-43.6a11.925 11.925 0 0 1-6.086 1.671v.001zm0-18.008a6.001 6.001 0 1 0 0 12.002 6.002 6.002 0 0 0 0-12.003v.001zm60 72.03a6 6 0 1 0 0-11.998 6 6 0 0 0 0 11.997v.001zM783 1194.48a12.005 12.005 0 1 1 6.087-22.33l43.584-43.61a12.01 12.01 0 1 1 4.242 4.25l-43.584 43.6A11.986 11.986 0 0 1 783 1194.48zm0-18a6 6 0 1 0 0 12 6 6 0 0 0 0-12zm60-48.02a6.005 6.005 0 1 0 .01-12.01 6.005 6.005 0 0 0-.01 12.01zm-336.514 93.95a11.89 11.89 0 0 1-16.959 0c-4.683-4.757-4.683-12.393 0-17.15a11.885 11.885 0 0 1 14.553-1.87l53.83-54.43a46.822 46.822 0 0 1 33.435-14.05l84.038-.18a12.023 12.023 0 0 1 3.144-5.75 11.893 11.893 0 0 1 16.961 0c4.683 4.757 4.683 12.393 0 17.15a11.9 11.9 0 0 1-16.959 0 12.034 12.034 0 0 1-3.03-5.36l-84.16.19a40.886 40.886 0 0 0-29.208 12.26l-53.842 54.45a12.2 12.2 0 0 1-1.803 14.74zm-4.239-12.86a5.947 5.947 0 0 0-8.481 0 6.107 6.107 0 0 0 0 8.57 5.946 5.946 0 0 0 8.48 0 6.106 6.106 0 0 0 .001-8.57zm180.519-67.71a5.946 5.946 0 0 0 8.48 0 6.1 6.1 0 0 0 0-8.57 5.946 5.946 0 0 0-8.48 0 6.107 6.107 0 0 0 0 8.57zM432 1138.96a12.005 12.005 0 1 1 6.105-22.33L571.74 983.22a47.094 47.094 0 0 1 33.481-13.838H741.4a12 12 0 1 1-.014 5.971H605.221a41.145 41.145 0 0 0-29.249 12.09L442.329 1120.87A11.986 11.986 0 0 1 432 1138.96zm0-18.01a6.005 6.005 0 1 0-.01 12.01 6.005 6.005 0 0 0 .01-12.01zM753 978.4a6 6 0 1 0 0-12 6 6 0 0 0 0 12zM297 459.186a12.005 12.005 0 1 1 11.6-15.017h136.179a47.1 47.1 0 0 1 33.481 13.837L611.9 591.422a12.032 12.032 0 1 1-4.224 4.232L474.028 462.231a41.146 41.146 0 0 0-29.249-12.09H308.617A11.993 11.993 0 0 1 297 459.186zm0-18.007a6 6 0 1 0 0 12 6 6 0 0 0 0-12zm321 166.567a6 6 0 1 0 0-12 6 6 0 0 0 0 12zM402 750.3a12 12 0 1 1 15 11.611v36.8a12 12 0 1 1-6 0v-36.8a12 12 0 0 1-9-11.611zm6 60.024a6 6 0 1 0 12-.008 6 6 0 0 0-12 .012v-.004zm6-54.022a6 6 0 1 0-6-6 6 6 0 0 0 6 6.004v-.004zm-207.514-149.14a11.9 11.9 0 0 1-16.959 0c-4.683-4.757-4.683-12.392 0-17.149a11.885 11.885 0 0 1 14.553-1.869l53.83-54.437a46.813 46.813 0 0 1 33.435-14.041l84.038-.185a12.058 12.058 0 0 1 3.144-5.751 11.9 11.9 0 0 1 16.961 0c4.684 4.758 4.684 12.393 0 17.151a11.9 11.9 0 0 1-16.959 0 12.025 12.025 0 0 1-3.03-5.359l-84.16.187a40.9 40.9 0 0 0-29.208 12.267l-53.844 54.444a12.2 12.2 0 0 1-1.801 14.742zm-4.24-12.864a5.948 5.948 0 0 0-8.48 0 6.112 6.112 0 0 0 0 8.574 5.949 5.949 0 0 0 8.48 0 6.111 6.111 0 0 0 0-8.572v-.002zm180.52-67.706a5.95 5.95 0 0 0 8.48 0 6.112 6.112 0 0 0 0-8.576 5.949 5.949 0 0 0-8.48 0 6.113 6.113 0 0 0 0 8.576zm-254.28 398.7a11.9 11.9 0 0 1-16.959 0c-4.683-4.757-4.683-12.393 0-17.15a11.886 11.886 0 0 1 14.553-1.869l53.83-54.436a46.805 46.805 0 0 1 33.435-14.041l84.039-.186a12.046 12.046 0 0 1 3.143-5.749 11.9 11.9 0 0 1 16.961 0c4.683 4.757 4.683 12.393 0 17.15a11.9 11.9 0 0 1-16.959 0 12.036 12.036 0 0 1-3.03-5.359l-84.16.186a40.893 40.893 0 0 0-29.21 12.262l-53.842 54.447a12.2 12.2 0 0 1-1.801 14.744v.001zm-4.24-12.864a5.95 5.95 0 0 0-8.48 0 6.112 6.112 0 0 0 0 8.575 5.949 5.949 0 0 0 8.479 0 6.112 6.112 0 0 0 .001-8.576v.001zm180.52-67.706a5.948 5.948 0 0 0 8.48 0 6.112 6.112 0 0 0 0-8.576 5.947 5.947 0 0 0-8.48 0 6.113 6.113 0 0 0 0 8.575v.001zM34.5 1018.91a12 12 0 1 1 11.607-15h192.786a12 12 0 1 1 0 6H46.107a12 12 0 0 1-11.607 9zm0-18a6 6 0 1 0 0 12 6 6 0 0 0 0-12zm216 12a6 6 0 1 0 0-12 6 6 0 0 0 0 12zM86.486 1181.89a11.891 11.891 0 0 1-16.959 0c-4.683-4.757-4.683-12.393 0-17.15a11.883 11.883 0 0 1 14.553-1.86l53.83-54.44a46.772 46.772 0 0 1 33.435-14.04l84.039-.19a12.066 12.066 0 0 1 3.143-5.75 11.893 11.893 0 0 1 16.961 0c4.683 4.757 4.683 12.393 0 17.15a11.89 11.89 0 0 1-16.959 0 12.034 12.034 0 0 1-3.03-5.36l-84.16.19a40.855 40.855 0 0 0-29.208 12.27l-53.842 54.44a12.2 12.2 0 0 1-1.803 14.74zm-4.24-12.86a5.946 5.946 0 0 0-8.48 0 6.118 6.118 0 0 0 0 8.58 5.963 5.963 0 0 0 8.479 0 6.117 6.117 0 0 0 .001-8.58zm180.52-67.71a5.955 5.955 0 0 0 8.48.01 6.117 6.117 0 0 0 0-8.58 5.946 5.946 0 0 0-8.48 0 6.107 6.107 0 0 0 0 8.57zM297.4 747.291a12.006 12.006 0 1 1-.013 5.974H161.221a41.139 41.139 0 0 0-29.249 12.088L0 897.109v-8.45L127.739 761.13a47.1 47.1 0 0 1 33.482-13.839H297.4zm11.6 9.015a6 6 0 1 0 0-12 6 6 0 0 0 0 12zM76.5 441.179a12.005 12.005 0 1 1 11.607-15.006h36.786a12.005 12.005 0 1 1 0 6H88.107a12 12 0 0 1-11.607 9.006zm0-18.008a6 6 0 1 0 0 12 6 6 0 0 0 0-12zm60 12a6 6 0 1 0-6-6 6 6 0 0 0 6 6.005v-.005zM96 519.21a12 12 0 1 1 15 11.612v132.84a12 12 0 1 1-6 0v-132.84a12 12 0 0 1-9-11.612zm6 156.063a6 6 0 1 0 12 0 6 6 0 0 0-12 0zm6-150.06a6 6 0 1 0 0-12 6 6 0 0 0 0 12zm426.721-337.6h136.162a12 12 0 1 1 .013 5.973H534.721a47.091 47.091 0 0 1-33.481-13.839L367.6 46.337a12.034 12.034 0 1 1 4.225-4.233l133.647 133.424a41.141 41.141 0 0 0 29.249 12.089v-.004zM682.5 196.58a6 6 0 1 0 0-12 6 6 0 0 0 0 12zm-321-166.568a6 6 0 1 0 0 12 6 6 0 0 0 0-12zm702 148.56a12.031 12.031 0 1 1-10.33 5.916l-73.583-73.614a12.04 12.04 0 1 1 4.242-4.245l73.581 73.615a11.962 11.962 0 0 1 6.09-1.672zm0 18.008a6 6 0 1 0 0-12 6 6 0 0 0 0 12zm-90-102.042a6 6 0 1 0 0 12 6 6 0 0 0 0-12zm524.52 17.386c6.69.07 12.095 5.478 12.16 12.168a11.872 11.872 0 0 1-11.99 12 12.087 12.087 0 0 1-6.34-1.85l-17.09 16.867a46.731 46.731 0 0 1-33.6 13.691l-34.25-.517a11.86 11.86 0 0 1-11.61 8.947c-6.69-.069-12.095-5.477-12.16-12.167a11.874 11.874 0 0 1 11.99-12 12.3 12.3 0 0 1 11.77 9.206l34.22.516a40.839 40.839 0 0 0 29.35-11.959l17.17-16.948a12.17 12.17 0 0 1-1.62-5.955 11.889 11.889 0 0 1 12-11.999zm.12 18.124a5.941 5.941 0 0 0 6-6 6.143 6.143 0 0 0-6.08-6.083 5.94 5.94 0 0 0-6 6 6.151 6.151 0 0 0 6.08 6.083zM1395.17 155.1a5.94 5.94 0 0 0-5.99 6 6.136 6.136 0 0 0 6.08 6.083 5.941 5.941 0 0 0 6-6 6.152 6.152 0 0 0-6.09-6.083zm177.08-7.518c4.776-4.687 12.424-4.687 17.2 0a11.88 11.88 0 0 1 0 16.965 12.277 12.277 0 0 1-14.8 1.822l-54.59 53.843a40.91 40.91 0 0 0-12.3 29.22l-.18 84.148a12.188 12.188 0 0 1 5.37 3.076 11.883 11.883 0 0 1 0 16.968c-4.776 4.685-12.424 4.685-17.2 0a11.883 11.883 0 0 1 0-16.968 12.173 12.173 0 0 1 5.77-3.171l.18-84.046A46.761 46.761 0 0 1 1515.79 216l54.61-53.875a11.844 11.844 0 0 1 1.85-14.539v-.004zm4.3 12.725a6.139 6.139 0 0 0 8.6 0 5.931 5.931 0 0 0 0-8.482 6.141 6.141 0 0 0-8.6 0 5.951 5.951 0 0 0 0 8.486v-.004zm-76.5 180.593a5.951 5.951 0 0 0 0 8.484 6.141 6.141 0 0 0 8.6 0 5.931 5.931 0 0 0 0-8.482 6.141 6.141 0 0 0-8.6-.002zm379.45-216.35a12 12 0 0 1-11.61-9h-57.78a12 12 0 1 1 0-6h57.78a12 12 0 1 1 11.61 15zm-81-18.007a6 6 0 1 0 0 12 6 6 0 0 0 0-12zm81 0a6 6 0 1 0 0 12 6 6 0 0 0 0-12zm22.5 84.034a12.005 12.005 0 1 1-11.61 15.006h-192.78a12.005 12.005 0 1 1 0-6h192.78a12 12 0 0 1 11.61-9.006zm-216 6a6 6 0 1 0 6 6 6 6 0 0 0-6-5.997v-.003zm216 12a6 6 0 1 0-6-6 6 6 0 0 0 6 6.007v-.007zm57-81.032a12 12 0 1 1-15-11.612v-36.8a12 12 0 1 1 6 0v36.8a12 12 0 0 1 9 11.619v-.007zm-6-60.025a6 6 0 1 0 0 .007v-.007zm-6 54.022a6 6 0 1 0 6 6 6 6 0 0 0-6-5.993v-.007zm94.5 252.1a12.033 12.033 0 1 1-10.33 5.917l-43.58-43.6a12.036 12.036 0 1 1 4.24-4.244l43.58 43.6a11.962 11.962 0 0 1 6.09-1.664v-.009zm0 18.008a6 6 0 1 0-6-6 6 6 0 0 0 6 6.009v-.009zm-60-72.03a6 6 0 1 0 6 6 6 6 0 0 0-6-5.991v-.009zM2097 40.516a12 12 0 1 1-6.09 22.338l-43.58 43.6a12.022 12.022 0 1 1-4.24-4.244l43.58-43.6A11.99 11.99 0 0 1 2097 40.516zm0 18.007a6.001 6.001 0 1 0 0-12.002 6.002 6.002 0 0 0 0 12.003v-.001zm-60 48.019a6 6 0 1 0 0 11.998 6 6 0 0 0 0-11.997v-.001zm336.51-93.954a11.9 11.9 0 0 1 16.96 0c4.69 4.754 4.69 12.395 0 17.149a11.88 11.88 0 0 1-14.55 1.869l-53.83 54.436a46.807 46.807 0 0 1-33.43 14.041l-84.04.186a12.037 12.037 0 0 1-3.15 5.75 11.9 11.9 0 0 1-16.96 0c-4.68-4.759-4.68-12.391 0-17.15a11.9 11.9 0 0 1 16.96 0 12.02 12.02 0 0 1 3.03 5.358l84.16-.186a40.9 40.9 0 0 0 29.21-12.267l53.84-54.447a12.215 12.215 0 0 1 1.8-14.738v-.001zm4.24 12.864a5.951 5.951 0 0 0 8.48 0 6.1 6.1 0 0 0 0-8.575 5.952 5.952 0 0 0-8.48 0 6.117 6.117 0 0 0 0 8.577v-.002zM2197.23 93.16a5.948 5.948 0 0 0-8.48 0 6.115 6.115 0 0 0 0 8.576 5.947 5.947 0 0 0 8.48 0 6.114 6.114 0 0 0 0-8.576zM2448 96.039a12.005 12.005 0 1 1-6.1 22.327l-133.64 133.415a47.081 47.081 0 0 1-33.48 13.837H2138.6a11.992 11.992 0 1 1 .02-5.972h136.16a41.158 41.158 0 0 0 29.25-12.088l133.64-133.425A11.99 11.99 0 0 1 2448 96.039zm0 18.007a6 6 0 1 0 0-12 6 6 0 0 0 0 12zM2127 256.6a6 6 0 1 0 0 12 6 6 0 0 0 0-12zm456 519.21a12.005 12.005 0 1 1-11.6 15.017h-136.18a47.082 47.082 0 0 1-33.48-13.838l-133.63-133.411a12.039 12.039 0 1 1 4.22-4.233l133.64 133.424a41.152 41.152 0 0 0 29.25 12.091h136.16a12 12 0 0 1 11.62-9.046v-.004zm0 18.007a6 6 0 1 0-6-6 6 6 0 0 0 6 6.004v-.004zm-321-166.563a6 6 0 1 0 0 12 6 6 0 0 0 0-12zM2478 484.7a12 12 0 1 1-15-11.611v-36.8a12 12 0 1 1 6 0v36.8a12 12 0 0 1 9 11.611zm-6-60.024a6 6 0 1 0-12 .008 6 6 0 0 0 12-.012v.004zm-6 54.022a6 6 0 1 0 6 6 6 6 0 0 0-6-6.004v.004zm207.51 149.145a11.9 11.9 0 0 1 16.96 0c4.69 4.754 4.69 12.395 0 17.149a11.88 11.88 0 0 1-14.55 1.869l-53.83 54.435a46.8 46.8 0 0 1-33.43 14.041l-84.04.187a12.045 12.045 0 0 1-3.15 5.751 11.9 11.9 0 0 1-16.96 0c-4.68-4.76-4.68-12.392 0-17.152a11.9 11.9 0 0 1 16.96 0 12.026 12.026 0 0 1 3.03 5.359l84.16-.186a40.9 40.9 0 0 0 29.21-12.267l53.84-54.447a12.214 12.214 0 0 1 1.8-14.743v.004zm4.24 12.863a5.949 5.949 0 0 0 8.48 0 6.1 6.1 0 0 0 0-8.574 5.949 5.949 0 0 0-8.48 0 6.116 6.116 0 0 0 0 8.568v.006zm-180.52 67.707a5.948 5.948 0 0 0-8.48 0 6.115 6.115 0 0 0 0 8.575 5.947 5.947 0 0 0 8.48 0 6.1 6.1 0 0 0 0-8.579v.004zM2880 346.341L2752.26 473.87a47.074 47.074 0 0 1-33.48 13.838H2582.6a11.992 11.992 0 1 1 .02-5.972h136.16a41.158 41.158 0 0 0 29.25-12.088L2880 337.892v8.449zm-309 132.353a6 6 0 1 0 0 12 6 6 0 0 0 0-12zm180.51-168.985a11.9 11.9 0 0 1 16.96 0c4.69 4.755 4.69 12.396 0 17.151a11.883 11.883 0 0 1-14.55 1.868l-53.83 54.436a46.8 46.8 0 0 1-33.43 14.041l-84.04.187a12.038 12.038 0 0 1-3.15 5.749 11.9 11.9 0 0 1-16.96 0c-4.68-4.76-4.68-12.392 0-17.152a11.887 11.887 0 0 1 19.99 5.361l84.16-.186a40.91 40.91 0 0 0 29.21-12.268l53.84-54.446a12.217 12.217 0 0 1 1.8-14.741zm4.24 12.864a5.948 5.948 0 0 0 8.48 0 6.1 6.1 0 0 0 0-8.574 5.948 5.948 0 0 0-8.48 0 6.115 6.115 0 0 0 0 8.574zm-180.52 67.707a5.948 5.948 0 0 0-8.48 0 6.115 6.115 0 0 0 0 8.575 5.947 5.947 0 0 0 8.48 0 6.1 6.1 0 0 0 0-8.575zm270.27-174.193a12.005 12.005 0 1 1-11.61 15.007h-192.78a12.006 12.006 0 1 1 0-6h192.78a12 12 0 0 1 11.61-9.007zm0 18.008a6 6 0 1 0-6-6 6 6 0 0 0 6 6.005v-.005zm-216-12a6 6 0 1 0 6 6 6 6 0 0 0-6-6.005v.005zm164.01-168.99a11.9 11.9 0 0 1 16.96 0c4.69 4.754 4.69 12.395 0 17.149a11.88 11.88 0 0 1-14.55 1.869l-53.83 54.435a46.8 46.8 0 0 1-33.43 14.041l-84.04.187a12.038 12.038 0 0 1-3.15 5.749 11.9 11.9 0 0 1-16.96 0c-4.68-4.76-4.68-12.392 0-17.152a11.887 11.887 0 0 1 19.99 5.361l84.16-.186a40.91 40.91 0 0 0 29.21-12.268l53.84-54.446a12.216 12.216 0 0 1 1.8-14.739zm4.24 12.864a5.948 5.948 0 0 0 8.48 0 6.1 6.1 0 0 0 0-8.574 5.948 5.948 0 0 0-8.48 0 6.115 6.115 0 0 0 0 8.574zm-180.52 67.707a5.948 5.948 0 0 0-8.48 0 6.115 6.115 0 0 0 0 8.575 5.947 5.947 0 0 0 8.48 0 6.1 6.1 0 0 0 0-8.575z" fill="#FF6B00" fill-rule="evenodd"/></svg>