<svg width="482" height="824" viewBox="0 0 482 824" xmlns="http://www.w3.org/2000/svg"><path d="M29.812 651.95a60.017 60.017 0 0 1-59.974.043l-162.896-93.918c-18.541-10.683-29.96-30.472-29.942-51.885l.13-188.066c.028-21.431 11.47-41.222 30.022-51.925l163.036-94.147a59.987 59.987 0 0 1 59.964-.044l162.896 93.917c18.543 10.682 29.966 30.47 29.952 51.884l-.13 188.067c-.033 21.429-11.474 41.216-30.022 51.921L29.812 651.95zm645.036-94.155L511.812 651.95a60.017 60.017 0 0 1-59.974.043l-162.896-93.918c-18.541-10.683-29.96-30.472-29.942-51.885l.13-188.066c.028-21.431 11.47-41.222 30.022-51.925l163.036-94.147a59.987 59.987 0 0 1 59.964-.044l162.896 93.917c18.543 10.682 29.966 30.47 29.952 51.884l-.13 188.067c-.033 21.429-11.474 41.216-30.022 51.921v-.002zm-241-412L270.812 239.95a60.017 60.017 0 0 1-59.974.043L47.942 146.075C29.401 135.392 17.982 115.603 18 94.19l.13-188.066c.028-21.431 11.47-41.222 30.022-51.925l163.036-94.147a59.987 59.987 0 0 1 59.964-.044l162.896 93.917c18.543 10.682 29.966 30.47 29.952 51.884l-.13 188.067c-.033 21.429-11.474 41.216-30.022 51.921v-.002zm0 824l-163.036 94.155a60.017 60.017 0 0 1-59.974.043L47.942 970.075C29.401 959.392 17.982 939.603 18 918.19l.13-188.066c.028-21.431 11.47-41.222 30.022-51.925l163.036-94.147a59.987 59.987 0 0 1 59.964-.044l162.896 93.917c18.543 10.682 29.966 30.47 29.952 51.884l-.13 188.067c-.033 21.429-11.474 41.216-30.022 51.921v-.002z" fill-rule="evenodd" fill-opacity=".04"/></svg>