<svg width="36" height="40" viewBox="0 0 36 40" xmlns="http://www.w3.org/2000/svg" class=""><path d="M36.007 20a4 4 0 0 1-2.678 3.772A4 4 0 0 1 30.008 30h-.54a3.994 3.994 0 0 1-3.461 6h-2.2a6.062 6.062 0 0 1-11.4 0h-2.4a3.994 3.994 0 0 1-3.46-6h-.54a4 4 0 0 1-3.322-6.228 4 4 0 0 1 0-7.544A4 4 0 0 1 6.007 10h.54a3.994 3.994 0 0 1 3.46-6h2.343a6 6 0 0 1 11.315 0h2.342a3.994 3.994 0 0 1 3.461 6h.54a4 4 0 0 1 3.321 6.228A4 4 0 0 1 36.007 20zm-17.9 18a4.031 4.031 0 0 0 3.488-2H14.62a4.03 4.03 0 0 0 3.487 2zm-12.1-10h14a1 1 0 0 1 0 2h-10a2 2 0 1 0 0 4h16a2 2 0 1 0 0-4 1 1 0 0 1 0-2h4a2 2 0 1 0 0-4h-7.53a6 6 0 0 1-8.942 0H6.006a2 2 0 1 0 .001 4zm16-8a4 4 0 1 0-8 0 4 4 0 0 0 8 0zm-20 0a2 2 0 0 0 2 2h8.343a6.005 6.005 0 0 1 0-4H4.007a2 2 0 0 0-2 2zm16-18a4 4 0 0 0-3.46 2h6.921a4 4 0 0 0-3.461-2zm12 10h-14a1 1 0 0 1 0-2h10a2 2 0 1 0 0-4h-16a2 2 0 1 0 0 4 1 1 0 0 1 0 2h-4a2 2 0 1 0 0 4h7.529a6 6 0 0 1 8.942 0h7.53a2 2 0 1 0 0-4h-.001zm2 6h-8.342a6.022 6.022 0 0 1 0 4h8.342a2 2 0 1 0 0-4z" fill="#FF8532" fill-rule="evenodd"></path></svg>