<svg xmlns="http://www.w3.org/2000/svg" width="2239" height="1414"><path fill-rule="evenodd" opacity=".102" fill="#FFF" d="M465.591 142.975l252.013 145.501L341.41 506.025 89.396 360.523l376.195-217.548z"/><path fill-rule="evenodd" opacity=".102" fill="#FFF" d="M793.333 166.005l161.673 93.375-241.339 139.616-161.673-93.378 241.339-139.613zM331.758 822.006l222.251 128.242-331.767 191.745L-.009 1013.75l331.767-191.744zm1573-138.001l222.251 128.243-331.767 191.745-222.251-128.242 331.767-191.746z"/><path fill-rule="evenodd" opacity=".102" fill="#FFF" d="M1942.554 580.003l154.452 88.969-230.56 133.024-154.452-88.969 230.56-133.024zm-332 580.002l154.452 88.966-230.56 133.024-154.452-88.968 230.56-133.022zm241.987-908.004l89.462 51.298-133.544 76.699-89.463-51.298 133.545-76.699zm-666.999 110.002l89.462 51.295-133.545 76.699-89.463-51.296 133.546-76.698z"/><path fill-rule="evenodd" opacity=".102" fill="#FFF" d="M1319.396 343l70.607 40.478-105.399 60.519-70.607-40.476L1319.396 343zm-74.75 442.003l122.359 70.133-182.651 104.86-122.359-70.132 182.651-104.861zm-283.348 380.001l173.709 99.789-259.305 149.202-173.709-99.789 259.305-149.202zM1422.67 140.003l114.335 65.724-170.675 98.268-114.335-65.724 170.675-98.268zM1793.582.002l75.421 43.282-112.585 64.712-75.421-43.28L1793.582.002zm370 346l75.421 43.282-112.585 64.714-75.421-43.281 112.585-64.715zm-182 768.999l75.421 43.283-112.585 64.714-75.421-43.283 112.585-64.714z"/></svg>