<svg width="480" height="546" viewBox="0 0 480 546" xmlns="http://www.w3.org/2000/svg"><defs><linearGradient x1="0%" y1="50%" x2="100%" y2="50%" id="a"><stop stop-color="#DB4A17" offset="0%"/><stop stop-color="#FF8532" offset="100%"/></linearGradient><linearGradient x1="-.007%" y1="95.106%" x2="99.987%" y2="4.926%" id="b"><stop stop-color="#1F3D53" offset="0%"/><stop stop-color="#2E5572" offset="100%"/></linearGradient><linearGradient x1="49.948%" y1="100.099%" x2="49.948%" y2=".249%" id="c"><stop stop-color="#A2ABB1" offset="0%"/><stop stop-color="#CCD4DB" offset="100%"/></linearGradient></defs><g fill="none" fill-rule="evenodd"><path d="M480 391.69L0 545.68V.01C.174.11.353.2.525.3L480 153.03v238.66z" fill="url(#a)"/><path fill="#FFF" opacity=".1" style="mix-blend-mode:overlay" d="M0 249.78v-56.17l127.777-73.97 118.131 68.27L69.567 289.99z"/><path d="M244.063 239.77l-75.785-43.81 85.081-49.27 75.726 43.85-85.022 49.23zM0 475.87l65.043-37.62 60.216 34.77L0 545.68v-69.81zM0 89.75V52.59L30.254 35.2l41.935 24.07-62.6 35.99L0 89.75zm141.816 226.03l41.936 24.07-62.6 35.99-41.935-24.07 62.599-35.99zM0 380.36V350.2l23.154-13.3 33.1 18.99-49.4 28.39L0 380.36zm316.72-111.97l53.594 30.84-80 46.11-53.594-30.84 80-46.11zM80.9 122.94l35.353 20.31-52.774 30.36-35.353-20.3L80.9 122.94z" fill="#FFF" opacity=".1" style="mix-blend-mode:overlay"/><path fill="#FFF" opacity=".1" style="mix-blend-mode:overlay" d="M64.96 411.03l35.354 20.31L47.54 461.7l-35.354-20.31z"/><path d="M236.949 93.14l-11.137-6.42a4.074 4.074 0 0 1-2.051-3.53l-.009-12.81c0-1.461.78-2.811 2.046-3.54l11.128-6.39a4.106 4.106 0 0 1 4.1 0l11.137 6.41a4.088 4.088 0 0 1 2.051 3.54l.009 12.81c0 1.458-.78 2.805-2.045 3.53l-11.129 6.4a4.106 4.106 0 0 1-4.1 0z" fill="url(#b)"/><g><path d="M425 254.42l38.971 22.52c.449.26.393.72-.124 1.01l-38.665 22.39a1.968 1.968 0 0 1-1.749.07l-38.971-22.52c-.448-.26-.393-.72.125-1.01l38.665-22.39a1.966 1.966 0 0 1 1.748-.07z" fill="#132735"/><path d="M425.044 256.01l41.037 23.49c.472.27.413.75-.131 1.06l-40.715 23.34a2.038 2.038 0 0 1-1.841.08l-41.038-23.49c-.472-.27-.413-.75.132-1.06l40.712-23.34a2.071 2.071 0 0 1 1.844-.08z" fill="#132735" opacity=".2"/><path d="M424.6 253.54l39.112-22.46a.494.494 0 0 1 .814.46l-.031 44.89a1.8 1.8 0 0 1-.816 1.4l-39.112 22.46a.494.494 0 0 1-.814-.46l.032-44.89a1.8 1.8 0 0 1 .815-1.4z" fill="#132735"/><path d="M425 207.97l38.971 22.52c.449.26.393.71-.124 1.01l-38.665 22.38a1.938 1.938 0 0 1-1.749.08l-38.971-22.52c-.448-.26-.393-.72.125-1.02l38.665-22.38a1.934 1.934 0 0 1 1.748-.07z" fill="#274C64"/><path d="M417.592 221.49l22.249 12.85c.582.34.509.93-.163 1.32a2.5 2.5 0 0 1-2.27.09l-22.249-12.86c-.582-.33-.509-.92.163-1.31a2.5 2.5 0 0 1 2.27-.09z" fill="#132735"/><path d="M417.592 221.49l22.249 12.85c.582.34.509.93-.163 1.32a2.5 2.5 0 0 1-2.27.09l-22.249-12.86c-.582-.33-.509-.92.163-1.31a2.5 2.5 0 0 1 2.27-.09zm0 1.4l22.249 12.86c.582.34.509.93-.163 1.31-.699.39-1.54.426-2.27.1l-22.249-12.86c-.582-.34-.509-.92.163-1.31a2.536 2.536 0 0 1 2.27-.1zM423.368 253.54l-39.112-22.46a.494.494 0 0 0-.814.46l.031 44.89a1.8 1.8 0 0 0 .816 1.4l39.111 22.46a.494.494 0 0 0 .814-.46l-.031-44.89a1.8 1.8 0 0 0-.815-1.4z" fill="#1B3648"/><path d="M419.315 255.84l-31.469-18.22a.4.4 0 0 0-.655.38l.025 36.39c.025.463.269.886.656 1.14l31.469 18.22a.4.4 0 0 0 .656-.38l-.026-36.39a1.456 1.456 0 0 0-.656-1.14zm-.9.81l-29.671-17.15a.374.374 0 0 0-.618.35l.024 34.27c.023.435.253.833.619 1.07l29.671 17.15a.374.374 0 0 0 .617-.35l-.024-34.27a1.346 1.346 0 0 0-.616-1.07h-.002z" fill="#132735"/><path d="M418.417 256.65l-29.671-17.15a.374.374 0 0 0-.618.35l.024 34.27c.023.435.253.833.619 1.07l29.671 17.15a.374.374 0 0 0 .617-.35l-.024-34.27a1.346 1.346 0 0 0-.618-1.07zm0 .94l-29.671-17.16a.379.379 0 0 0-.618.36l.024 34.27c.025.435.255.831.619 1.07l29.671 17.15a.374.374 0 0 0 .617-.35l-.024-34.27a1.346 1.346 0 0 0-.618-1.07z" fill="#274C64"/><path d="M398.653 254.11c-2.467-1.46-4.464-.28-4.462 2.65a10.2 10.2 0 0 0 4.469 7.95c2.466 1.47 4.464.28 4.462-2.65a10.235 10.235 0 0 0-4.469-7.95z" fill="#A2ABB1"/><path d="M398.666 251.62c-3.754-2.21-6.8-.42-6.793 3.98a15.311 15.311 0 0 0 6.8 11.95c3.755 2.21 6.8.42 6.793-3.98a15.309 15.309 0 0 0-6.8-11.95z" fill="#132735"/><path d="M397.965 254.46c-2.466-1.47-4.464-.28-4.462 2.65a10.219 10.219 0 0 0 4.469 7.95c2.466 1.47 4.464.28 4.462-2.65a10.219 10.219 0 0 0-4.469-7.95z" fill="#C4CED4"/><path d="M8.688 14.98v.01l-.066-.01c-.19 0-.381-.023-.566-.07l-2.118-.27.2-.8a8.924 8.924 0 0 1-2.946-6.1l-1.033-.07 1.379-1.68c.6-1.19 1.908-1.48 3.431-.57a8.717 8.717 0 0 1 3.787 6.77c-.002 1.76-.843 2.78-2.068 2.79z" fill="url(#c)" transform="translate(391 250)"/><path d="M395.732 257.38c-1.615-.94-2.922-.18-2.921 1.71a6.593 6.593 0 0 0 2.926 5.14c1.614.95 2.922.18 2.921-1.71a6.6 6.6 0 0 0-2.926-5.14z" fill="#BCC4CA"/><g><path d="M414.373 262.8c-1.553-.93-2.812-.18-2.81 1.67a6.465 6.465 0 0 0 2.814 5.04c1.553.93 2.812.18 2.81-1.67a6.465 6.465 0 0 0-2.814-5.04zm0 14.07c-1.553-.93-2.812-.18-2.81 1.68a6.5 6.5 0 0 0 2.814 5.04c1.553.93 2.812.18 2.81-1.68a6.5 6.5 0 0 0-2.814-5.04z" fill="#132735"/><path d="M414.375 268.03l-2.813 1.61v8.71a1.406 1.406 0 1 1-2.812 0v-9.38a1.5 1.5 0 0 1 .024-.24 1.411 1.411 0 0 1 .685-1.45l3.263-1.87a1.416 1.416 0 0 1 1.93.51c.465.67.345 1.583-.277 2.11zm-.08 10.79l-2.772-1.61v-8.71a1.387 1.387 0 1 0-2.773 0v9.38c.001.084.01.167.024.25a1.4 1.4 0 0 0 .675 1.44l3.217 1.88a1.379 1.379 0 0 0 1.9-.52 1.6 1.6 0 0 0-.266-2.11h-.005z" fill="#A3ACB2"/><path d="M414.375 268.03l-2.813 1.61v8.71a1.406 1.406 0 1 1-2.812 0v-9.38a1.5 1.5 0 0 1 .024-.24 1.411 1.411 0 0 1 .685-1.45l3.263-1.87a1.416 1.416 0 0 1 1.93.51c.465.67.345 1.583-.277 2.11zm-.08 10.79l-2.772-1.61v-8.71a1.387 1.387 0 1 0-2.773 0v9.38c.001.084.01.167.024.25a1.4 1.4 0 0 0 .675 1.44l3.217 1.88a1.379 1.379 0 0 0 1.9-.52 1.6 1.6 0 0 0-.266-2.11h-.005zm1.955-9.38l-2.812 1.61v4.96a1.407 1.407 0 0 1-2.813 0v-5.63c.001-.084.01-.167.024-.25a1.4 1.4 0 0 1 .685-1.44l3.263-1.88a1.41 1.41 0 0 1 1.93.52c.465.67.345 1.583-.277 2.11z" fill="#7F8E95"/><path d="M414.375 268.03l-2.813 1.61v8.71a1.406 1.406 0 1 1-2.812 0v-9.38a1.5 1.5 0 0 1 .024-.24 1.411 1.411 0 0 1 .685-1.45l3.263-1.87a1.416 1.416 0 0 1 1.93.51c.465.67.345 1.583-.277 2.11zm-.08 10.79l-2.772-1.61v-8.71a1.387 1.387 0 1 0-2.773 0v9.38c.001.084.01.167.024.25a1.4 1.4 0 0 0 .675 1.44l3.217 1.88a1.379 1.379 0 0 0 1.9-.52 1.6 1.6 0 0 0-.266-2.11h-.005zm-1.3 5.37l-2.8-1.64-4.292 2.48a1.408 1.408 0 1 1-1.406-2.44l4.871-2.81a2 2 0 0 1 .223-.1 1.4 1.4 0 0 1 1.592-.13l3.256 1.89c.674.391.906 1.253.519 1.93a1.579 1.579 0 0 1-1.958.82h-.005z" fill="#7F8E95"/><path d="M414.375 268.03l-2.813 1.61v8.71a1.406 1.406 0 1 1-2.812 0v-9.38a1.5 1.5 0 0 1 .024-.24 1.411 1.411 0 0 1 .685-1.45l3.263-1.87a1.416 1.416 0 0 1 1.93.51c.465.67.345 1.583-.277 2.11zm-.08 10.79l-2.772-1.61v-8.71a1.387 1.387 0 1 0-2.773 0v9.38c.001.084.01.167.024.25a1.4 1.4 0 0 0 .675 1.44l3.217 1.88a1.379 1.379 0 0 0 1.9-.52 1.6 1.6 0 0 0-.266-2.11h-.005zm3.361-15.95s-7.38 4.32-7.969 5.36c-.589 1.04 0 13.41 0 13.41a1.406 1.406 0 1 1-2.812 0v-14.08a2.771 2.771 0 0 1 .709-1.69l3.263-1.87a1.416 1.416 0 0 1 1.93.51c.391.68 5.555-2.03 4.879-1.64z" fill="#BCC4CA"/><path d="M414.375 268.03l-2.813 1.61v8.71a1.406 1.406 0 1 1-2.812 0v-9.38a1.5 1.5 0 0 1 .024-.24 1.411 1.411 0 0 1 .685-1.45l3.263-1.87a1.416 1.416 0 0 1 1.93.51c.465.67.345 1.583-.277 2.11zm-.08 10.79l-2.772-1.61v-8.71a1.387 1.387 0 1 0-2.773 0v9.38c.001.084.01.167.024.25a1.4 1.4 0 0 0 .675 1.44l3.217 1.88a1.379 1.379 0 0 0 1.9-.52 1.6 1.6 0 0 0-.266-2.11h-.005zm.362-5.57l-.014 3.24 7.539 4.36a1.404 1.404 0 1 1-1.406 2.43l-8.119-4.69a1.353 1.353 0 0 1-.2-.14 1.4 1.4 0 0 1-.909-1.32l.008-3.76c0-.78.63-1.415 1.411-1.42a1.586 1.586 0 0 1 1.69 1.3z" fill="#BCC4CA"/></g><g><path d="M84.071 128.3s3.047 15.71 12.2 20.08l-1.024.55s-16.624-.8-23.452-15.84c.005 0 10.051-3.14 12.276-4.79z" fill="#FFF"/><path d="M99.38 147.27s-6.031 1.48-10.227.47c0 0 8.237 2.11 9.547 2.4a6.864 6.864 0 0 0 .68-2.87z" fill="#DADADA"/><path d="M129.867 147.34a69.383 69.383 0 0 1 11.356 4.28s-.848 15.45-17.481 26.74c0 0 2.991-3.12 2.246-7.1 0 0 5.531-6.29 3.879-23.92zm57.42 11.52s-3.564 7.51-1.028 9.05c2.536 1.54 14.117 6.64 14.117 6.64a14.074 14.074 0 0 1 .89-6.1s-6.06-4.29-13.979-9.59z" fill="#FFF"/><path d="M209.393 177.92s-5 2.31-7.48.53c-2.48-1.78-15.731-10.63-15.731-10.63s1.515 1.23 5.669-2.52c0 0 9.678 6.78 17.542 12.62z" fill="#DADADA"/><path d="M267.955 189.49a50.009 50.009 0 0 1-7.114-5.26s-7.634 8.31-11.919 11.31c0 0 4.5 3.04 18.966-.85l.067-5.2z" fill="#FFF"/><path d="M259.8 196.34s6.384-1.76 12.681-16.57a78.014 78.014 0 0 0 13.207 7.38s-2.769 4.93-25.888 9.19z" fill="#DADADA"/><path d="M330.9 197.8s.536 11.42 3.041 11.42 17.4-4.19 17.4-4.19-1.75-1.62-1.961-6.76c-.003 0-9.741-.5-18.48-.47z" fill="#FFF"/><path d="M333.644 209.18s2.308 1.31 4.847-7.15c0 0 8.462-.04 23.2.91 0 0-2.968 6.48-6.4 6.48-3.432 0-21.647-.24-21.647-.24z" fill="#DADADA"/><path d="M420 225.8s7.658 5.24 12.656 7.04c0 0 8.8-6.23 7.969-22.99 0 0-9.79-2.07-15-2.81 0 0 0 7.69-5.625 18.76zm-9.058-5.43l32.882 19-5.86 10.16-32.881-19 5.859-10.16z" fill="#FFF"/><path d="M420 225.8s7.658 5.24 12.656 7.04c0 0 9.949-11.67 4.688-27.21 0 0-8.191 3.36-12.974 4.15 0 0 2.458-.27-4.37 16.02zm-9.058-5.43l32.882 19-5.86 10.16-32.881-19 5.859-10.16zm2.716.11l25.575 14.78-4.922 8.53-25.575-14.78 4.922-8.53z" fill="#DADADA"/></g><g><path d="M70.777 153.558s.654 6.234.916 7.983c.262 1.748 1.478 8.344-1.58 9.213-3.058.87-5.037-.785-5.436-3.413-.399-2.627-.1-8.65-.087-9.765.012-1.116-.022-3.693-.022-3.693l6.209-.325zM55.19 145.168s.535 3.288.785 3.946c.249.657.623 1.976-.873 3.179-1.496 1.203-5.685 2.973-7.1 4.12-1.415 1.148-6.776 3.255-7.25-.361-.474-3.616 3.59-4.722 4.797-5.978 1.206-1.256 3.32-3.366 2.92-4.91-.399-1.542 6.72.004 6.72.004z" fill="#132735"/><path d="M69.237 94.65s-.58 18.95-.408 24.791c.171 5.841 3.226 31.752 3.254 33.182.028 1.431-2.394 2.279-4.327 2.494-1.932.215-4.005.112-4.594-1.518-.589-1.63-4.675-24.85-5.43-30.134-.754-5.283-2.038-18.982-2.038-18.982s-.982 11.623-.446 22.111c.537 10.489 1.05 18.134 1.05 18.134s-1.558 2.313-5.13 2.326c-3.572.012-4.217-1.575-4.217-1.575s-2.026-17.707-2.453-23.719c-.427-6.012-.143-28.95-.056-30.832 0 0 8.173 2.902 14.213 2.883a46.918 46.918 0 0 0 10.641-1.228l-.059 2.066z" fill="#474C69"/><path d="M50.467 100.104c-.748-.115 2.709 9.949 3.335 12.05.39 1.303.935 2.77 1.331 3.915.115-5.477.436-9.953.536-11.221l-.28-3.254s-4.19-1.375-4.922-1.49z" fill="#3B3E51"/><path d="M75.717 96.463s.312 2.182-.814 2.478c-1.125.296-3.116.337-3.827.063-.71-.275-1.851-.586-1.914-1.331-.062-.745 0-2.316 0-2.316s6.265 1.066 6.555 1.106zm-34.84-9.294s-.2 1.68-.661 2.035c-.462.355-2.182 0-3.033-.483-.85-.483-1.87-.913-1.764-1.736.106-.823.913-2.15.913-2.15l4.544 2.334zm15.229 6.442s-6.371-.514-8.5-2.06c-2.129-1.546-.134-26.272-.134-26.272l.66-13.403s4.34-3.117 4.723-3.17c.383-.052 6.68.116 9.833 2.257 3.155 2.141 1.79 3.859 1.79 3.859l-2.993 15.07-5.38 23.72z" fill="#FFF" fill-rule="nonzero"/><path d="M72.675 96.884s3.612.49 3.965-.714c.352-1.203 1.246-11.27 1.43-13.187.184-1.917-1.786-13.515-2.65-17.586-.862-4.07-1.068-6.505-2.561-7.605-1.493-1.1-8.837-6.352-11.489-7.505-2.652-1.153 3.36 1.056 1.468 5.105s-7.275 14.229-7.55 21.843c-.273 7.615-.694 19.89 1.354 20.943 2.047 1.053 11.563-.33 12.343-.992l.077-1.193a15.97 15.97 0 0 0 3.613.891z" fill="#5E668D"/><path d="M66.136 66.264s1.48 9.06 2.057 12.49c.576 3.428.402 14.904.259 15.995-.144 1.091.476 1.16.476 1.16s.312 1.125-.53 1.066c-.841-.06-1.212-.936-1.35-2.307-.136-1.371-.912-28.404-.912-28.404z" fill="#505981"/><path d="M44.261 65.002c-.137 2.643-.997 14.69-1.514 17.925-.28 1.76-.371 3.291-.748 4.33.217-.508.402-1.029.554-1.56 0 0-.311 5.692-.159 6.58.153.889 2.11 3.385 2.999 3.632.888.246 2.381.639 2.63-2.282.25-2.92.555-15.01.53-18.268-.025-3.257.717-17.988 1.285-20.793.567-2.805.405-4.572 4.03-5.816 0 0-6.857-1.773-8.073-.436-.399.445-.898 2.041-1.4 4.083-.003 3.266-.028 10.575-.134 12.605z" fill="#5E668D"/><path d="M38.732 86.907c1.908.623 3.242.745 3.503.655a.645.645 0 0 0 .216-.312c.38-1.038.467-2.565.748-4.33.514-3.238 1.377-15.272 1.514-17.925.106-2.032.131-9.35.134-12.614-.997 4.07-1.998 9.924-2.231 12.013a26.494 26.494 0 0 1-2.014 7.889c-1.113 2.736-4.513 11.33-4.563 11.897-.05.567.798 2.113 2.693 2.727z" fill="#505981"/><path d="M52.758 53.846c.374.524.73 1.132 1.131 1.337.093.044.189.08.287.11-2.319 7.48-4.363 29.837-4.27 30.367.094.53 1.278 3.22 1.278 3.22.2-.43 2.525-2.29 2.525-2.29-.056-13.665 1.287-28.835 1.496-31.089.52.056 1.007 0 1.084-.265.107-.638.153-1.285.138-1.932a5.299 5.299 0 0 1-3.04-1.153s-.987 1.172-.629 1.695z" fill="#8599FF"/><path d="M60.962 47.048s-.147 2.117.374 3.286c.52 1.168-2.737 3.472-3.578 3.74-.842.268-4.168-.144-4.61-.751-.443-.608.405-1.758.523-2.322.119-.565.468-4.676.468-4.676l6.823.723z" fill="#EFAAAA"/><path d="M52.873 54.442c.044-.624.78-2.316.78-2.316l-.34-2.977c-.381.452-.653.985-.795 1.559-.19.863.309 4.357.355 3.734zm8.952-2.806a4.956 4.956 0 0 0-.44-2.375c-1.667 3.07-5.822 3.525-5.822 3.525.549.452.549 3.308.549 3.308 3.612-.68 5.607-3.152 5.713-4.458z" fill="#E6E7E8" fill-rule="nonzero"/><path d="M66.684 39.736s-.025 5.258-1.309 8.534c-1.284 3.276-2.412 4.675-4.603 4.326-2.192-.349-5.3-1.52-7.02-5.07 0 0-.44-1.537-.885-1.728-.446-.19-1.845-1.415-1.74-2.4.107-.984.163-2.088 1.042-1.994.879.093-.156-2.148.732-3.526.889-1.377 1.104-3.384 5.044-3.141 3.94.243 8.493 1.315 8.74 5z" fill="#FCB2B2"/><path d="M57.546 39.677s.716-.278 2.144.841c1.428 1.12 7.053 2.182 7.69-.623.635-2.805-1.375-5.012-4.63-6.545-3.253-1.534-7.614-1.456-8.103-.278-.49 1.178-.935 1.132-1.147 1.281-.212.15-1.705.103-2.244 1.609-.54 1.505-2.092 5.831.196 8.184a4.326 4.326 0 0 1-.29-1.527 1.082 1.082 0 0 1 1.434-.935c.732.278 1.247.658 1.222 1.456-.025.798 1.022 1.421 1.353.813.33-.608.935-.589.875-1.674-.059-1.084.767-1.01 1.041-1.72.088-.323.245-.624.459-.882z" fill="#714141"/><path d="M59.706 134.212l23.488-13.518a.246.246 0 0 1 .406.234l9.35 17.694a.891.891 0 0 1-.405.699l-23.489 13.517a.246.246 0 0 1-.402-.215l-9.35-17.697c.01-.29.16-.555.402-.714z" fill="#132735"/><path d="M85.055 120.208l-1.518.474a.25.25 0 0 0-.408.23l9.37 17.685a.888.888 0 0 0 .408.699l1.514-.474a.25.25 0 0 0 .415-.225l-9.35-17.666a.888.888 0 0 0-.43-.723z" fill="#0D1B25"/><path d="M82.976 120.875L59.487 134.43c-.224.128-.196.355.063.505l1.365-.54c.268.152.592.165.873.038l23.488-13.555c.225-.128.197-.355-.062-.502l-1.365.54a.972.972 0 0 0-.873-.041z" fill="#0D1B25"/><path d="M92.327 139.102l-23.489 13.556c-.224.127-.196.355.062.505l1.366-.54a.97.97 0 0 0 .872.038l23.49-13.556c.224-.13.195-.355-.063-.504l-1.365.539a.97.97 0 0 0-.873-.038z" fill="#1B3648"/><path d="M61.205 134.71l-1.518.474a.25.25 0 0 0-.408.231l9.35 17.667a.888.888 0 0 0 .409.698l1.517-.474a.25.25 0 0 0 .409-.23l-9.35-17.667a.888.888 0 0 0-.41-.698z" fill="#0D1B25"/><g><path d="M58.303 113.647l23.489-13.518a.246.246 0 0 1 .405.234v17.694a.891.891 0 0 1-.405.698l-23.489 13.518a.246.246 0 0 1-.405-.234v-17.697a.891.891 0 0 1 .405-.695z" fill="#0D1B25"/><path d="M84.588 101.522l-2.453-1.396a.25.25 0 0 0-.409.23l.019 17.67a.888.888 0 0 0 .408.698l2.453 1.397a.25.25 0 0 0 .409-.234V102.22a.888.888 0 0 0-.427-.698z" fill="#0D1B25"/><path d="M81.57 100.306l-23.488 13.556c-.225.128-.197.355.062.505l2.3 1.328c.269.15.593.164.873.037l23.489-13.555c.224-.128.196-.356-.063-.505l-2.3-1.331a.97.97 0 0 0-.872-.035zM81.57 118.537l-23.488 13.555c-.225.131-.197.356.062.505l2.3 1.325a.97.97 0 0 0 .873.037l23.492-13.555c.224-.13.196-.355-.062-.505l-2.3-1.33a.97.97 0 0 0-.876-.032z" fill="#1B3648"/><path d="M60.737 116.012l-2.453-1.396a.25.25 0 0 0-.408.23v17.667a.888.888 0 0 0 .408.698l2.453 1.397a.25.25 0 0 0 .409-.23V116.71a.891.891 0 0 0-.409-.699z" fill="#132735"/></g><path d="M79.79 122.948l-2.54 1.464c-.193.113-.168.312.053.437.233.13.513.14.755.031l2.54-1.465c.193-.112.168-.312-.053-.436a.838.838 0 0 0-.754-.031zm-12.155 7.013l-2.54 1.464c-.194.113-.169.312.053.437.232.129.512.14.754.031l2.54-1.465c.193-.112.169-.312-.053-.436a.838.838 0 0 0-.754-.031z" fill="#B0B0B0" fill-rule="nonzero"/><g><path d="M68.601 109.215c.518.311.518.782 0 1.081a2.07 2.07 0 0 1-1.87 0c-.517-.312-.517-.782 0-1.081a2.073 2.073 0 0 1 1.87 0zM75.097 105.505c.517.312.517.783 0 1.082a2.073 2.073 0 0 1-1.87 0c-.518-.312-.518-.782 0-1.082a2.073 2.073 0 0 1 1.87 0z" fill="#0D1B25"/><path d="M66.893 109.61a9.687 9.687 0 0 1 .54-2.091 7.144 7.144 0 0 1 3.334-3.288c2.067-1.045 2.612-.873 3.236-.574.623.3.935 2.039.935 2.15 0 .113-1.029.755-1.375.175 0 0-.152-.953-.467-.857a9.974 9.974 0 0 0-2.085 1.044c-.957.624-2.157 1.272-2.625 3.239 0-.01-.608.994-1.493.202z" fill="#E1E1E1"/><path d="M68.05 108.435a7.34 7.34 0 0 0-.43 1.475c.317-.05.596-.236.766-.508.468-1.967 1.668-2.628 2.625-3.239a9.974 9.974 0 0 1 2.085-1.044c.311-.097.467.857.467.857.157.225.448.31.702.206-.147-.243 0-.57-.25-.91-.405-.561-.555-1.172-2.621-.125a7.138 7.138 0 0 0-3.345 3.288z" fill="#BBB" opacity=".5"/></g><path d="M37.956 99.724c1.131-.278.97-2.762.895-3.99-.075-1.228-.047-1.627.236-1.668a2.095 2.095 0 0 0 1.322-.66c.424-.502-.284-1.559-.536-2.182-.253-.623-.268-2.098-.268-2.098l-3.74-1.78a17.093 17.093 0 0 0-1.384 7.25c.102 4.246 2.344 5.405 3.475 5.128zm29.545 6.682l.062-.022c.022-.208.044-.162.066-.021.212-.09.037-.162.455-.312l.056-.016c.196-.461.87-.592 1.636-.424.767.169.134 1.191-.383 1.702-.227.263-.395.571-.493.904.097.006.194.006.29 0 .789-.028 1.852.555 3.002-.312 1.15-.866 2.135-2.577 2.144-3.244.01-.667.053-5.96.053-5.96l-4.57-.935s-.31 2.575-.554 2.877a36.935 36.935 0 0 0-2.36 4.292c-.592 1.378.184 1.59.596 1.477v-.006zm.04.259c-.004.075-.004.15 0 .224l.14-.168c-.015-.125-.03-.265-.046-.358l-.066.021c0 .066 0 .156-.021.28h-.007z" fill="#FCB2B2" fill-rule="nonzero"/></g></g></g></svg>