<svg width="960" height="1163" viewBox="0 0 960 1163" xmlns="http://www.w3.org/2000/svg"><defs><linearGradient x1="0%" y1="50.001%" x2="100.001%" y2="50.001%" id="a"><stop stop-color="#DB4A17" offset="0%"/><stop stop-color="#FF8532" offset="100%"/></linearGradient><linearGradient x1="0%" y1="95.157%" x2="100%" y2="4.884%" id="b"><stop stop-color="#1F3D53" offset="0%"/><stop stop-color="#2E5572" offset="100%"/></linearGradient><linearGradient x1="-.008%" y1="94.83%" x2="99.992%" y2="5.177%" id="c"><stop stop-color="#059A8E" offset="0%"/><stop stop-color="#0FBAAC" offset="100%"/></linearGradient><linearGradient x1="49.913%" y1="99.954%" x2="49.913%" y2=".094%" id="d"><stop stop-color="#A2ABB1" offset="0%"/><stop stop-color="#CCD4DB" offset="100%"/></linearGradient></defs><g fill="none" fill-rule="evenodd"><path d="M933.636 621.94L0 1162.98V0c.371.21.752.4 1.12.62l921.5 533.03c45.151 26.12 50.08 65.65 11.016 88.29z" fill="url(#a)"/><path fill="#FFF" opacity=".1" style="mix-blend-mode:overlay" d="M0 532.34V412.61l272.591-157.63L524.6 400.48 148.41 618.02z"/><path d="M520.667 511l-161.673-93.38 181.505-105 161.55 93.45L520.667 511zM0 1014.2l138.758-80.19 128.462 74.12L0 1162.98V1014.2zm0-822.93v-79.2L64.542 75 154 126.3 20.459 203 0 191.27zM302.541 673L392 724.3 258.459 801 169 749.7 302.541 673zM0 810.63v-64.27L49.4 718l70.6 40.48L14.6 819 0 810.63zM675.67 572l114.335 65.73L619.33 736 505 670.27 675.67 572zM172.582 262L248 305.28 135.418 370 60 326.72 172.582 262z" fill="#FFF" opacity=".1" style="mix-blend-mode:overlay"/><path fill="#FFF" opacity=".1" style="mix-blend-mode:overlay" d="M138.582 876L214 919.28 101.418 984 26 940.72z"/><path d="M372.159 251.83l-23.76-13.67a8.7 8.7 0 0 1-4.376-7.54l-.023-27.3a8.7 8.7 0 0 1 4.364-7.53l23.741-13.63a8.77 8.77 0 0 1 8.74.01l23.76 13.66a8.714 8.714 0 0 1 4.375 7.54l.02 27.3a8.672 8.672 0 0 1-4.365 7.53L380.9 251.84a8.769 8.769 0 0 1-8.741-.01z" fill="url(#b)"/><path d="M121.317 144.64L73.8 117.12a17.566 17.566 0 0 1-8.75-15.18l-.039-54.98a17.509 17.509 0 0 1 8.729-15.17l47.481-27.45a17.42 17.42 0 0 1 17.48.01l47.52 27.52a17.553 17.553 0 0 1 8.75 15.18l.039 54.98a17.507 17.507 0 0 1-8.729 15.17L138.8 144.65a17.42 17.42 0 0 1-17.483-.01z" fill="url(#c)"/><g><path d="M107.752 450.085c-22.364 13.013-22.39 34.11-.06 47.13 22.332 13.02 58.577 13.02 80.915 0 22.338-13.02 22.391-34.11.053-47.13-22.337-13.019-58.544-13.012-80.908 0z" fill="#193143" opacity=".1"/><path d="M142.672 900.99l83.138 48c.956.56.837 1.52-.266 2.16l-82.485 47.7a4.147 4.147 0 0 1-3.731.16l-83.138-48c-.956-.56-.837-1.52.266-2.16l82.485-47.7a4.147 4.147 0 0 1 3.731-.16z" fill="#132735"/><path d="M142.76 904.39l87.546 50.06c1.008.58.882 1.58-.28 2.25l-86.858 49.75a4.373 4.373 0 0 1-3.928.16l-87.546-50.06c-1.007-.58-.882-1.58.28-2.25l86.858-49.75a4.373 4.373 0 0 1 3.928-.16z" fill="#132735" opacity=".2"/><path d="M141.816 899.12l83.438-47.88a1.056 1.056 0 0 1 1.737.99l-.067 95.66a3.816 3.816 0 0 1-1.74 2.99l-83.438 47.88a1.056 1.056 0 0 1-1.737-.99l.067-95.66a3.816 3.816 0 0 1 1.74-2.99z" fill="#132735"/><path d="M142.672 801.99l83.138 48c.956.56.837 1.52-.266 2.16l-82.485 47.7a4.147 4.147 0 0 1-3.731.16l-83.138-48c-.956-.56-.837-1.52.266-2.16l82.485-47.7a4.147 4.147 0 0 1 3.731-.16z" fill="#274C64"/><path d="M126.862 830.8l47.464 27.4c1.242.72 1.088 1.97-.345 2.8a5.365 5.365 0 0 1-4.843.2l-47.465-27.4c-1.241-.72-1.087-1.97.346-2.8a5.365 5.365 0 0 1 4.843-.2z" fill="#132735"/><path d="M126.862 830.8l47.464 27.4c1.242.72 1.088 1.97-.345 2.8a5.365 5.365 0 0 1-4.843.2l-47.465-27.4c-1.241-.72-1.087-1.97.346-2.8a5.365 5.365 0 0 1 4.843-.2zm0 3l47.464 27.4c1.242.72 1.088 1.97-.345 2.8a5.365 5.365 0 0 1-4.843.2l-47.465-27.4c-1.241-.72-1.087-1.97.346-2.8a5.365 5.365 0 0 1 4.843-.2zM139.184 899.12l-83.438-47.88a1.056 1.056 0 0 0-1.737.99l.067 95.66a3.815 3.815 0 0 0 1.74 2.99l83.438 47.88a1.056 1.056 0 0 0 1.737-.99l-.067-95.66a3.816 3.816 0 0 0-1.74-2.99z" fill="#1B3648"/><path d="M130.539 904.01L63.4 865.19a.854.854 0 0 0-1.4.81l.054 77.56a3.084 3.084 0 0 0 1.4 2.42l67.134 38.83a.854.854 0 0 0 1.4-.81l-.054-77.56a3.12 3.12 0 0 0-1.395-2.43zm-1.917 1.73l-63.3-36.56a.8.8 0 0 0-1.318.76l.051 73.04a2.911 2.911 0 0 0 1.32 2.28l63.3 36.56a.8.8 0 0 0 1.317-.76l-.051-73.04a2.908 2.908 0 0 0-1.319-2.28z" fill="#132735"/><path d="M128.622 905.74l-63.3-36.56a.8.8 0 0 0-1.318.76l.051 73.04a2.911 2.911 0 0 0 1.32 2.28l63.3 36.56a.8.8 0 0 0 1.317-.76l-.051-73.04a2.908 2.908 0 0 0-1.319-2.28zm0 2l-63.3-36.56a.8.8 0 0 0-1.318.76l.051 73.04a2.911 2.911 0 0 0 1.32 2.28l63.3 36.56a.8.8 0 0 0 1.317-.76l-.051-73.04a2.908 2.908 0 0 0-1.319-2.28z" fill="#274C64"/><path d="M86.459 900.33c-5.261-3.12-9.523-.6-9.519 5.64.004 6.24 4.273 13.83 9.534 16.96 5.261 3.13 9.523.59 9.519-5.65-.004-6.24-4.273-13.83-9.534-16.95z" fill="#A2ABB1"/><path d="M86.488 895.02c-8.01-4.7-14.5-.9-14.492 8.48.008 9.38 6.505 20.79 14.515 25.48 8.01 4.69 14.5.9 14.492-8.48-.008-9.38-6.503-20.79-14.515-25.48z" fill="#132735"/><path d="M84.992 901.07c-5.261-3.12-9.523-.59-9.519 5.65.004 6.24 4.273 13.83 9.534 16.95 5.261 3.12 9.523.6 9.519-5.64-.004-6.24-4.272-13.83-9.534-16.96z" fill="#C4CED4"/><path d="M17.667 30.5v.01l-.14-.01a5.832 5.832 0 0 1-1.208-.16l-4.519-.57.422-1.71a19.008 19.008 0 0 1-6.285-13l-2.2-.15 2.942-3.57c1.278-2.54 4.07-3.16 7.319-1.22 4.458 2.66 8.076 9.12 8.079 14.44-.002 3.74-1.795 5.91-4.41 5.94z" fill="url(#d)" transform="translate(71 893)"/><path d="M80.228 907.3c-3.444-2.01-6.234-.38-6.231 3.65a14.034 14.034 0 0 0 6.241 10.95c3.444 2.01 6.234.38 6.231-3.65a14.035 14.035 0 0 0-6.241-10.95z" fill="#BCC4CA"/><path d="M120 918.84c-3.313-1.98-6-.38-6 3.58a13.826 13.826 0 0 0 6 10.74c3.313 1.98 6 .38 6-3.58a13.826 13.826 0 0 0-6-10.74zm0 30c-3.313-1.98-6-.38-6 3.58a13.826 13.826 0 0 0 6 10.74c3.313 1.98 6 .38 6-3.58a13.826 13.826 0 0 0-6-10.74z" fill="#132735"/><path d="M120 930l-6 3.43V952a3 3 0 0 1-6 0v-20c.002-.175.02-.348.052-.52a2.993 2.993 0 0 1 1.46-3.08l6.962-4a3.016 3.016 0 0 1 4.117 1.1c.833 1.44.851 3.67-.591 4.5zm-.171 23l-5.914-3.43V931a2.958 2.958 0 1 0-5.915 0v20c.002.175.02.349.052.52a3.006 3.006 0 0 0 1.438 3.08l6.863 4a2.951 2.951 0 0 0 4.059-1.1c.821-1.44.839-3.67-.583-4.5z" fill="#A3ACB2"/><path d="M120 930l-6 3.43V952a3 3 0 0 1-6 0v-20c.002-.175.02-.348.052-.52a2.993 2.993 0 0 1 1.46-3.08l6.962-4a3.016 3.016 0 0 1 4.117 1.1c.833 1.44.851 3.67-.591 4.5zm-.171 23l-5.914-3.43V931a2.958 2.958 0 1 0-5.915 0v20c.002.175.02.349.052.52a3.006 3.006 0 0 0 1.438 3.08l6.863 4a2.951 2.951 0 0 0 4.059-1.1c.821-1.44.839-3.67-.583-4.5zM124 933l-6 3.43V947a3 3 0 0 1-6 0v-12c.002-.175.02-.348.052-.52a2.993 2.993 0 0 1 1.46-3.08l6.962-4a3.025 3.025 0 0 1 4.117 1.1c.833 1.43.851 3.67-.591 4.5z" fill="#7F8E95"/><path d="M120 930l-6 3.43V952a3 3 0 0 1-6 0v-20c.002-.175.02-.348.052-.52a2.993 2.993 0 0 1 1.46-3.08l6.962-4a3.016 3.016 0 0 1 4.117 1.1c.833 1.44.851 3.67-.591 4.5zm-.171 23l-5.914-3.43V931a2.958 2.958 0 1 0-5.915 0v20c.002.175.02.349.052.52a3.006 3.006 0 0 0 1.438 3.08l6.863 4a2.951 2.951 0 0 0 4.059-1.1c.821-1.44.839-3.67-.583-4.5zm-2.769 11.43l-5.969-3.48-9.155 5.29a3.002 3.002 0 0 1-3-5.2l10.392-6c.15-.088.31-.158.475-.21a2.976 2.976 0 0 1 3.4-.28l6.945 4.03a3.018 3.018 0 0 1 1.108 4.11c-.83 1.44-2.756 2.58-4.196 1.74z" fill="#7F8E95"/><path d="M120 930l-6 3.43V952a3 3 0 0 1-6 0v-20c.002-.175.02-.348.052-.52a2.993 2.993 0 0 1 1.46-3.08l6.962-4a3.016 3.016 0 0 1 4.117 1.1c.833 1.44.851 3.67-.591 4.5zm-.171 23l-5.914-3.43V931a2.958 2.958 0 1 0-5.915 0v20c.002.175.02.349.052.52a3.006 3.006 0 0 0 1.438 3.08l6.863 4a2.951 2.951 0 0 0 4.059-1.1c.821-1.44.839-3.67-.583-4.5zM127 919s-15.746 9.21-17 11.43c-1.254 2.22 0 28.57 0 28.57a3 3 0 0 1-6 0v-30c.002-.175.02-.348.052-.52a2.993 2.993 0 0 1 1.46-3.08l6.962-4a3.018 3.018 0 0 1 4.118 1.1c.832 1.43 11.85-4.33 10.408-3.5z" fill="#BCC4CA"/><path d="M120 930l-6 3.43V952a3 3 0 0 1-6 0v-20c.002-.175.02-.348.052-.52a2.993 2.993 0 0 1 1.46-3.08l6.962-4a3.016 3.016 0 0 1 4.117 1.1c.833 1.44.851 3.67-.591 4.5zm-.171 23l-5.914-3.43V931a2.958 2.958 0 1 0-5.915 0v20c.002.175.02.349.052.52a3.006 3.006 0 0 0 1.438 3.08l6.863 4a2.951 2.951 0 0 0 4.059-1.1c.821-1.44.839-3.67-.583-4.5zm.773-11.88l-.03 6.91 16.083 9.28a3.002 3.002 0 0 1-3 5.2l-17.321-10a3.082 3.082 0 0 1-.422-.3 3 3 0 0 1-1.938-2.81l.017-8.03a3.016 3.016 0 0 1 3.01-3.01c1.659-.01 3.605 1.1 3.599 2.76h.002z" fill="#BCC4CA"/><g><path d="M63.656 447.32s12.9 3.16 21.87 1.01c0 0-17.614 4.51-20.415 5.13a14.7 14.7 0 0 1-1.455-6.14z" fill="#DADADA"/><path d="M118.753 460.88s-14.538 4.01-24.286 9.15c0 0 1.814 33.11 37.384 57.3 0 0-6.4-6.68-4.8-15.21-.003 0-11.832-13.48-8.298-51.24zm-8.541 93.74s-7.6 16.01-2.192 19.29c5.408 3.28 30.116 14.16 30.116 14.16s-.78-5.43 1.9-13c-.002 0-12.936-9.16-29.824-20.45z" fill="#FFF"/><path d="M157.371 595.24s-10.668 4.91-15.956 1.12-33.56-22.65-33.56-22.65 3.233 2.62 12.1-5.36c-.005 0 20.645 14.45 37.416 26.89z" fill="#DADADA"/><path d="M86.3 651.91s-9.76-5.94-15.175-11.2c0 0-16.287 17.71-25.427 24.08 0 0 9.591 6.5 40.46-1.81l.142-11.07z" fill="#FFF"/><path d="M68.906 666.51s13.62-3.76 27.054-35.32a166.234 166.234 0 0 0 28.175 15.74s-5.908 10.51-55.229 19.58z" fill="#DADADA"/><path d="M79.249 721.63s1.145 24.35 6.487 24.35c5.342 0 37.119-8.93 37.119-8.93s-3.734-3.47-4.185-14.41c0 0-20.77-1.08-39.421-1.01z" fill="#FFF"/><path d="M85.108 745.89s4.923 2.79 10.339-15.23c0 0 18.052-.1 49.493 1.93 0 0-6.331 13.82-13.654 13.82-7.323 0-46.178-.52-46.178-.52z" fill="#DADADA"/><path d="M132 840s16.338 11.15 27 15c0 0 18.764-13.27 17-49 0 0-20.884-4.42-32-6 0 0 0 16.4-12 40zm-19.324-11.58l70.148 40.5-12.5 21.66-70.148-40.5 12.5-21.66z" fill="#FFF"/><path d="M132 840s16.338 11.15 27 15c0 0 21.224-24.88 10-58 0 0-17.474 7.17-27.676 8.85 0 0 5.242-.58-9.324 34.15zm-19.324-11.58l70.148 40.5-12.5 21.66-70.148-40.5 12.5-21.66zm5.794.24l54.56 31.5-10.5 18.18-54.56-31.5 10.5-18.18z" fill="#DADADA"/></g><path d="M119.273 459.663s-1.393 13.264-1.95 16.985c-.558 3.72-3.144 17.755 3.362 19.605 6.507 1.85 10.718-1.671 11.567-7.262.849-5.591.212-18.405.186-20.78-.027-2.374.046-7.859.046-7.859l-13.211-.69zM152.441 441.808s-1.14 6.997-1.671 8.397c-.531 1.4-1.327 4.205 1.857 6.765 3.183 2.56 12.097 6.327 15.108 8.768 3.011 2.44 14.419 6.924 15.427-.77 1.008-7.693-7.64-10.048-10.207-12.72-2.567-2.673-7.064-7.163-6.215-10.446.85-3.283-14.299.006-14.299.006z" fill="#132735"/><path d="M122.549 334.31s1.234 40.326.869 52.755c-.365 12.429-6.865 67.564-6.924 70.608-.06 3.044 5.093 4.848 9.205 5.306 4.112.457 8.523.238 9.776-3.23 1.254-3.469 9.949-52.88 11.554-64.122 1.605-11.242 4.338-40.391 4.338-40.391s2.089 24.732.948 47.05c-1.14 22.318-2.235 38.587-2.235 38.587s3.316 4.921 10.917 4.948c7.6.026 8.973-3.35 8.973-3.35s4.311-37.678 5.22-50.472c.909-12.794.305-61.601.12-65.607 0 0-17.39 6.174-30.244 6.135a99.837 99.837 0 0 1-22.643-2.614l.126 4.398z" fill="#474C69"/><path d="M162.489 345.917c1.592-.245-5.763 21.17-7.097 25.641-.829 2.772-1.99 5.896-2.832 8.33-.245-11.653-.928-21.177-1.14-23.876l.597-6.924s8.913-2.925 10.472-3.17z" fill="#3B3E51"/><path d="M108.76 338.17s-.663 4.643 1.731 5.273c2.395.63 6.633.717 8.145.133 1.512-.584 3.94-1.247 4.072-2.832.133-1.585 0-4.928 0-4.928s-13.331 2.269-13.948 2.355zm74.137-19.777s.424 3.575 1.406 4.33c.982.757 4.643 0 6.453-1.027 1.81-1.028 3.98-1.943 3.754-3.694-.225-1.751-1.943-4.577-1.943-4.577l-9.67 4.968zm-32.406 13.71s13.557-1.095 18.087-4.385c4.53-3.29.285-55.904.285-55.904l-1.406-28.52s-9.233-6.632-10.048-6.744c-.816-.113-14.214.245-20.925 4.801-6.712 4.557-3.807 8.211-3.807 8.211l6.367 32.068 11.447 50.472z" fill="#FFF" fill-rule="nonzero"/><path d="M115.233 339.066s-7.687 1.041-8.436-1.519c-.75-2.56-2.653-23.982-3.044-28.061-.392-4.08 3.8-28.758 5.637-37.42 1.837-8.662 2.275-13.842 5.452-16.183 3.177-2.341 18.803-13.517 24.447-15.97 5.644-2.455-7.15 2.248-3.124 10.863 4.026 8.615 15.48 30.277 16.064 46.48.583 16.203 1.479 42.32-2.879 44.563-4.357 2.241-24.606-.704-26.264-2.11l-.166-2.54c-2.48.93-5.06 1.566-7.687 1.897z" fill="#5E668D"/><path d="M129.148 273.91s-3.15 19.28-4.377 26.576c-1.227 7.295-.856 31.716-.55 34.037.304 2.321-1.015 2.467-1.015 2.467s-.664 2.394 1.127 2.268c1.79-.126 2.58-1.99 2.872-4.908.292-2.918 1.943-60.44 1.943-60.44z" fill="#505981"/><path d="M175.694 271.224c.292 5.624 2.122 31.258 3.223 38.142.597 3.748.79 7.004 1.592 9.213a27.969 27.969 0 0 1-1.18-3.316s.663 12.11.338 14c-.325 1.89-4.49 7.203-6.38 7.727-1.89.524-5.068 1.36-5.598-4.855-.53-6.214-1.18-31.941-1.128-38.872.053-6.93-1.525-38.275-2.732-44.245-1.207-5.969-.862-9.73-8.576-12.376 0 0 14.591-3.773 17.178-.928.849.948 1.91 4.344 2.978 8.688.007 6.951.06 22.504.285 26.822z" fill="#5E668D"/><path d="M187.46 317.836c-4.06 1.326-6.898 1.585-7.455 1.393a1.373 1.373 0 0 1-.457-.664c-.81-2.208-.995-5.458-1.592-9.212-1.095-6.891-2.932-32.499-3.224-38.143-.225-4.324-.278-19.897-.285-26.84 2.123 8.661 4.252 21.117 4.749 25.56.555 5.783 2 11.445 4.285 16.787 2.367 5.823 9.603 24.108 9.71 25.316.105 1.207-1.699 4.496-5.731 5.803z" fill="#505981"/><path d="M157.614 247.486c-.796 1.115-1.552 2.408-2.407 2.846-.197.093-.401.17-.61.232 4.934 15.917 9.285 63.491 9.086 64.619-.2 1.127-2.72 6.851-2.72 6.851-.424-.915-5.372-4.875-5.372-4.875.12-29.076-2.739-61.356-3.183-66.15-1.108.118-2.142 0-2.308-.565a21.774 21.774 0 0 1-.292-4.112c2.36-.12 4.621-.978 6.467-2.454 0 0 2.102 2.494 1.34 3.608z" fill="#8599FF"/><path d="M140.158 233.021s.312 4.503-.796 6.99c-1.108 2.488 5.823 7.39 7.614 7.96 1.79.57 8.867-.306 9.81-1.599.941-1.293-.863-3.74-1.115-4.941-.252-1.2-.995-9.949-.995-9.949l-14.518 1.54z" fill="#EFAAAA"/><path d="M157.369 248.753c-.093-1.326-1.658-4.928-1.658-4.928l.723-6.334a8.198 8.198 0 0 1 1.69 3.316c.406 1.838-.656 9.273-.755 7.946zm-19.048-5.97c-.11-1.735.211-3.471.935-5.053 3.548 6.533 12.39 7.501 12.39 7.501-1.168.962-1.168 7.037-1.168 7.037-7.687-1.446-11.932-6.705-12.157-9.484z" fill="#E6E7E8" fill-rule="nonzero"/><g><path d="M127.98 217.462s.054 11.188 2.786 18.159c2.733 6.97 5.134 9.949 9.796 9.206 4.663-.743 11.275-3.237 14.937-10.791 0 0 .935-3.27 1.883-3.674.949-.405 3.926-3.012 3.701-5.107-.226-2.096-.345-4.444-2.215-4.245-1.87.199.331-4.57-1.559-7.501-1.89-2.932-2.348-7.203-10.731-6.686-8.383.518-18.073 2.8-18.597 10.639z" fill="#FCB2B2"/><path d="M147.427 217.336s-1.526-.59-4.563 1.79c-3.038 2.381-15.01 4.643-16.362-1.326-1.353-5.97 2.925-10.665 9.849-13.928 6.924-3.263 16.203-3.098 17.244-.59 1.041 2.507 1.99 2.407 2.44 2.725.452.319 3.629.22 4.776 3.423 1.147 3.203 4.45 12.409-.418 17.416.4-1.037.61-2.138.617-3.25a2.301 2.301 0 0 0-3.05-1.99c-1.56.591-2.654 1.4-2.6 3.098.052 1.698-2.176 3.024-2.88 1.731-.702-1.293-1.989-1.253-1.863-3.561.126-2.309-1.631-2.15-2.215-3.662a4.994 4.994 0 0 0-.975-1.876z" fill="#714141"/></g><g><path d="M142.83 418.495l-49.98-28.764a.524.524 0 0 0-.863.497L72.09 427.88c.034.605.354 1.157.862 1.486l49.982 28.764a.524.524 0 0 0 .855-.457l19.897-37.659a1.897 1.897 0 0 0-.855-1.519z" fill="#132735"/><path d="M88.89 388.696l3.23 1.008a.53.53 0 0 1 .868.491l-19.936 37.632a1.89 1.89 0 0 1-.87 1.486l-3.223-1.008a.53.53 0 0 1-.882-.478l19.897-37.592a1.89 1.89 0 0 1 .916-1.539z" fill="#0D1B25"/><path d="M93.313 390.115l49.982 28.845c.477.272.418.756-.133 1.074l-2.905-1.147c-.57.32-1.26.35-1.857.08L88.42 390.121c-.478-.272-.418-.756.132-1.068l2.905 1.148a2.07 2.07 0 0 1 1.857-.087z" fill="#0D1B25"/><path d="M73.416 428.902l49.982 28.844c.477.272.418.756-.133 1.074l-2.905-1.147c-.571.32-1.26.35-1.857.08l-49.981-28.845c-.478-.278-.418-.756.132-1.074l2.905 1.147c.572-.32 1.26-.35 1.857-.08z" fill="#1B3648"/><path d="M139.64 419.557l3.23 1.008a.53.53 0 0 1 .87.49l-19.898 37.593a1.89 1.89 0 0 1-.869 1.485l-3.23-1.008a.53.53 0 0 1-.868-.49l19.897-37.593a1.89 1.89 0 0 1 .869-1.485z" fill="#0D1B25"/><g><path d="M145.815 374.735L95.834 345.97a.524.524 0 0 0-.863.498v37.652c.034.604.355 1.156.863 1.485l49.981 28.765a.524.524 0 0 0 .862-.497v-37.659a1.897 1.897 0 0 0-.862-1.479z" fill="#0D1B25"/><path d="M89.884 348.935l5.22-2.971a.53.53 0 0 1 .869.49l-.04 37.6a1.89 1.89 0 0 1-.869 1.485l-5.22 2.971a.53.53 0 0 1-.868-.497v-37.592a1.89 1.89 0 0 1 .908-1.486z" fill="#0D1B25"/><path d="M96.305 346.348l49.981 28.845c.478.272.418.756-.132 1.074l-4.895 2.825c-.571.321-1.26.35-1.857.08L89.42 350.328c-.477-.272-.418-.756.133-1.075l4.895-2.832a2.063 2.063 0 0 1 1.857-.073zM96.305 385.141l49.981 28.844c.478.279.418.756-.132 1.075l-4.895 2.819c-.571.32-1.26.349-1.857.08l-49.988-28.845c-.478-.279-.418-.756.132-1.074l4.895-2.832a2.063 2.063 0 0 1 1.864-.067z" fill="#1B3648"/><path d="M140.635 379.769l5.22-2.971a.53.53 0 0 1 .869.49v37.593a1.89 1.89 0 0 1-.869 1.485l-5.22 2.972a.53.53 0 0 1-.868-.491v-37.592a1.897 1.897 0 0 1 .868-1.486z" fill="#132735"/></g><path d="M100.092 394.526l5.405 3.117c.411.239.358.663-.113.929-.494.275-1.09.3-1.605.066l-5.405-3.117c-.411-.239-.358-.663.113-.929.494-.275 1.09-.3 1.605-.066zm25.866 14.923l5.405 3.117c.412.239.358.663-.112.929a1.79 1.79 0 0 1-1.605.066l-5.406-3.117c-.411-.24-.358-.664.113-.929.494-.275 1.09-.3 1.605-.066z" fill="#B0B0B0" fill-rule="nonzero"/><g><path d="M123.902 365.304c-1.101.663-1.101 1.664 0 2.301a4.404 4.404 0 0 0 3.98 0c1.1-.663 1.1-1.665 0-2.301a4.41 4.41 0 0 0-3.98 0zM110.08 357.411c-1.1.663-1.1 1.665 0 2.302a4.41 4.41 0 0 0 3.98 0c1.1-.664 1.1-1.665 0-2.302a4.41 4.41 0 0 0-3.98 0z" fill="#0D1B25"/><path d="M127.536 366.146a20.613 20.613 0 0 0-1.147-4.45 15.201 15.201 0 0 0-7.097-6.997c-4.397-2.222-5.558-1.857-6.884-1.22-1.326.636-1.99 4.337-1.99 4.576 0 .238 2.189 1.605 2.925.371 0 0 .325-2.03.995-1.824 1.56.565 3.05 1.31 4.437 2.222 2.036 1.326 4.59 2.706 5.585 6.891 0-.02 1.293 2.116 3.176.431z" fill="#E1E1E1"/><path d="M125.076 363.646c.414 1.01.72 2.062.915 3.137a2.354 2.354 0 0 1-1.631-1.081c-.995-4.185-3.549-5.591-5.585-6.891a21.224 21.224 0 0 0-4.437-2.222c-.663-.206-.995 1.824-.995 1.824a1.24 1.24 0 0 1-1.492.437c.312-.517 0-1.213.53-1.936.863-1.194 1.181-2.494 5.578-.265a15.188 15.188 0 0 1 7.117 6.997z" fill="#BBB" opacity=".5"/></g></g><path d="M189.111 345.108c-2.407-.59-2.062-5.876-1.903-8.49.16-2.612.1-3.461-.504-3.548a4.457 4.457 0 0 1-2.812-1.406c-.902-1.067.603-3.316 1.14-4.642.538-1.327.57-4.464.57-4.464l7.96-3.787a36.372 36.372 0 0 1 2.944 15.427c-.218 9.033-4.987 11.5-7.395 10.91zm-62.868 14.22l-.133-.046c-.046-.445-.092-.345-.139-.047-.45-.192-.08-.345-.968-.663l-.12-.033c-.417-.982-1.85-1.26-3.482-.902-1.631.358-.285 2.533.816 3.621a5.16 5.16 0 0 1 1.048 1.923 5.346 5.346 0 0 1-.617 0c-1.678-.06-3.94 1.181-6.387-.663-2.447-1.844-4.543-5.485-4.563-6.904-.02-1.42-.112-12.681-.112-12.681l9.723-1.99s.663 5.478 1.18 6.122a78.594 78.594 0 0 1 5.02 9.133c1.261 2.931-.39 3.382-1.266 3.143v-.013zm-.086.55c.008.16.008.319 0 .478l-.299-.358c.034-.265.067-.564.1-.763l.14.047c0 .139 0 .331.046.596h.013z" fill="#FCB2B2" fill-rule="nonzero"/><g fill="#FFF"><path d="M96.351 407.194s-6.486 33.473-25.972 42.799l2.175 1.173s35.377-1.71 49.909-33.765c0 0-21.376-6.679-26.112-10.207z"/></g></g></g></svg>